<svg width="19" height="22" viewBox="0 0 19 22" fill="none" xmlns="http://www.w3.org/2000/svg">
<path d="M15.9365 11.6201C15.9268 9.82813 16.7373 8.47559 18.3779 7.47949C17.46 6.16602 16.0732 5.44336 14.2422 5.30176C12.5088 5.16504 10.6143 6.3125 9.9209 6.3125C9.18848 6.3125 7.50879 5.35059 6.19043 5.35059C3.46582 5.39453 0.570312 7.52344 0.570312 11.8545C0.570312 13.1338 0.804687 14.4554 1.27344 15.8193C1.89844 17.6113 4.1543 22.0059 6.50781 21.9326C7.73828 21.9033 8.60742 21.0586 10.209 21.0586C11.7617 21.0586 12.5674 21.9326 13.9395 21.9326C16.3125 21.8984 18.3535 17.9043 18.9492 16.1074C15.7656 14.6084 15.9365 11.7129 15.9365 11.6201ZM13.1729 3.60254C14.5059 2.02051 14.3838 0.580078 14.3447 0.0625C13.168 0.130859 11.8057 0.863281 11.0293 1.7666C10.1748 2.7334 9.67188 3.92969 9.7793 5.27734C11.0537 5.375 12.2158 4.7207 13.1729 3.60254Z" fill="black"/>
</svg>
