<svg width="21" height="20" viewBox="0 0 21 20" fill="none" xmlns="http://www.w3.org/2000/svg">
<path d="M7.33398 13.3333L14.6007 12.7277C16.8745 12.5383 17.3849 12.0417 17.6369 9.77408L18.1673 5" stroke="#030517" stroke-width="1.25" stroke-linecap="round"/>
<path d="M5.66699 5H19.0003" stroke="#030517" stroke-width="1.25" stroke-linecap="round"/>
<path d="M5.66667 18.3333C6.58714 18.3333 7.33333 17.5871 7.33333 16.6667C7.33333 15.7462 6.58714 15 5.66667 15C4.74619 15 4 15.7462 4 16.6667C4 17.5871 4.74619 18.3333 5.66667 18.3333Z" stroke="#030517" stroke-width="1.25"/>
<path d="M14.8337 18.3333C15.7541 18.3333 16.5003 17.5871 16.5003 16.6667C16.5003 15.7462 15.7541 15 14.8337 15C13.9132 15 13.167 15.7462 13.167 16.6667C13.167 17.5871 13.9132 18.3333 14.8337 18.3333Z" stroke="#030517" stroke-width="1.25"/>
<path d="M7.33398 16.667H13.1673" stroke="#030517" stroke-width="1.25" stroke-linecap="round"/>
<path d="M2.33398 1.66699H3.13898C3.92622 1.66699 4.61243 2.18748 4.80337 2.92943L7.28275 12.5641C7.40804 13.051 7.30082 13.5667 6.99085 13.9683L6.19409 15.0003" stroke="#030517" stroke-width="1.25" stroke-linecap="round"/>
</svg>
