<svg width="16" height="18" viewBox="0 0 16 18" fill="none" xmlns="http://www.w3.org/2000/svg">
<path d="M0.979448 1.05977C0.764026 1.31891 0.655494 1.65042 0.675962 1.98678V16.6369C0.652622 16.977 0.761325 17.313 0.979448 17.575L1.03463 17.6301L9.23981 9.40842V9.21529L1.03463 1.01562L0.979448 1.05977Z" fill="url(#paint0_linear_2098_6815)"/>
<path d="M11.999 12.151L9.26758 9.41406V9.21542L11.9934 6.47852L12.0541 6.51714L15.3097 8.36013C16.2312 8.88434 16.2312 9.73962 15.3097 10.2693L12.0652 12.1068L11.9934 12.151H11.999Z" fill="url(#paint1_linear_2098_6815)"/>
<path d="M12.031 12.1075L9.23888 9.31543L0.978516 17.5758C1.36477 17.9179 1.94967 17.9345 2.358 17.6144L12.031 12.1185" fill="url(#paint2_linear_2098_6815)"/>
<path d="M12.031 6.52284L2.358 1.01041C2.16045 0.8531 1.91364 0.770695 1.6612 0.777763C1.40877 0.784832 1.16696 0.880918 0.978516 1.04904L9.23888 9.31492L12.031 6.51732V6.52284Z" fill="url(#paint3_linear_2098_6815)"/>
<path opacity="0.2" d="M11.9874 12.0518L2.35312 17.5145C2.16209 17.6578 1.92975 17.7352 1.69097 17.7352C1.45218 17.7352 1.21984 17.6578 1.02881 17.5145L0.973633 17.5752L1.02881 17.6304C1.41507 17.9284 1.96134 17.9284 2.35312 17.6304L12.0316 12.129L11.9874 12.0518Z" fill="#030517"/>
<path opacity="0.12" d="M0.973589 17.4761C0.755465 17.2142 0.646762 16.8782 0.670102 16.5381V16.6429C0.648204 16.9812 0.75682 17.3149 0.973589 17.5755L1.02877 17.5313L0.973589 17.4761Z" fill="#030517"/>
<path opacity="0.12" d="M15.2981 10.1753L11.9873 12.0514L12.048 12.1065L15.3036 10.2856C15.6843 10.109 15.9382 9.73382 15.9657 9.31445C15.9286 9.49903 15.8496 9.67262 15.7348 9.82185C15.62 9.97109 15.4725 10.092 15.3036 10.1753H15.2981Z" fill="#030517"/>
<path opacity="0.25" d="M2.35289 1.11491L15.298 8.45378C15.6401 8.61931 15.8884 8.93936 15.9601 9.31458C15.9436 9.11126 15.8736 8.91592 15.7573 8.7483C15.6411 8.58068 15.4826 8.44672 15.298 8.35997L2.35289 1.02111C1.42588 0.485867 0.669922 0.921785 0.669922 1.98123V2.08055C0.669922 1.01559 1.42588 0.590708 2.35289 1.11491Z" fill="white"/>
<defs>
<linearGradient id="paint0_linear_2098_6815" x1="523.6" y1="83.0914" x2="-180.272" y2="786.369" gradientUnits="userSpaceOnUse">
<stop stop-color="#4597CF"/>
<stop offset="0.01" stop-color="#4498D0"/>
<stop offset="0.26" stop-color="#16B9EA"/>
<stop offset="0.51" stop-color="#4DC2EC"/>
<stop offset="0.76" stop-color="#69C7E6"/>
<stop offset="1" stop-color="#71C9E4"/>
</linearGradient>
<linearGradient id="paint1_linear_2098_6815" x1="730.266" y1="290.101" x2="-871.983" y2="290.101" gradientUnits="userSpaceOnUse">
<stop stop-color="#FFE000"/>
<stop offset="0.41" stop-color="#FCBC00"/>
<stop offset="0.78" stop-color="#F7A300"/>
<stop offset="1" stop-color="#F59A00"/>
</linearGradient>
<linearGradient id="paint2_linear_2098_6815" x1="953.92" y1="272.502" x2="-247.876" y2="1474.29" gradientUnits="userSpaceOnUse">
<stop stop-color="#E8393C"/>
<stop offset="1" stop-color="#C31363"/>
</linearGradient>
<linearGradient id="paint3_linear_2098_6815" x1="-206.918" y1="-100.478" x2="330.987" y2="436.329" gradientUnits="userSpaceOnUse">
<stop stop-color="#329F71"/>
<stop offset="0.07" stop-color="#2EA671"/>
<stop offset="0.48" stop-color="#53B766"/>
<stop offset="0.8" stop-color="#6BBC65"/>
<stop offset="1" stop-color="#72BE66"/>
</linearGradient>
</defs>
</svg>
