<?xml version="1.0" encoding="UTF-8"?>
<svg id="Layer_2" xmlns="http://www.w3.org/2000/svg" xmlns:xlink="http://www.w3.org/1999/xlink" viewBox="0 0 5000 5000">
  <defs>
    <style>
      .cls-1 {
        fill: none;
      }

      .cls-2 {
        clip-path: url(#clippath-1);
      }

      .cls-3 {
        fill: #fa7200;
      }

      .cls-4 {
        opacity: .3;
      }

      .cls-5 {
        clip-path: url(#clippath);
      }
    </style>
    <clipPath id="clippath">
      <rect class="cls-1" width="5000" height="5000"/>
    </clipPath>
    <clipPath id="clippath-1">
      <rect class="cls-1" x="918.06" y="513.29" width="3163.88" height="3138.28"/>
    </clipPath>
  </defs>
  <g id="Layer_1-2" data-name="Layer_1">
    <g class="cls-5">
      <path class="cls-3" d="M2457.92,4091.54c-378.69-10.28-729.62-116.23-1051.2-318.95,55.57,91.72,213.4,234.87,213.4,234.87,0,0-29.74,14.01-42.83,20.43-13.79,6.77-27.5,13.75-41.16,20.69-196.57,100.02-317.72,254.73-347.85,476.56-15.59,114.91,37.42,229.51,137.01,290.4,129.71,72.7,294.88,26.75,317.85-170.13l32.55-186.47c20.25-82.58,86.49-211.37,167.18-296.11,9.57-10.1,16.91-8.3,28.42-4.08,67.08,24.64,133.49,52.23,202.24,71.12,166.44,45.77,336.47,56.58,508.62,46.39,175.31-10.37,344.65-44.85,505.72-115.4,169.82-74.46,301.83-218.79,411.2-370.87.03-.04.06-.09.09-.13,3.49-4.93-2.43-11.04-7.58-7.88-324.4,199.6-660.74,319.68-1033.67,309.55M1548.16,4249.63c-23.41,45.37-45.55,91.45-68.26,137.22-1.45,2.9-2.99,5.8-7.29,14.15-3.43-58.6,7.16-108.63,25.56-157.12,29.96-78.71,79.03-142.54,150.14-188.88,14.06-9.18,25.48-10.45,39.31.66,14.72,11.77,31.27,21.26,50.82,34.26-89.83,26.22-149.97,81.66-190.29,159.71"/>
      <path class="cls-3" d="M3332.98,2546.87c11.26,0,22.13-2.33,32.61-6.99,10.87-4.66,19.8-10.29,26.79-16.89l1.75-151.98c-11.26-4.66-23.49-6.99-36.68-6.99-16.69,0-31.44,5.24-44.25,15.72-12.81,10.09-22.71,23.68-29.7,40.76-6.99,16.69-10.48,34.55-10.48,53.57,0,23.68,5.24,41.73,15.72,54.15,10.48,12.42,25.23,18.63,44.26,18.63M3421.49,2606.85c-7.76,0-14.17-2.14-19.21-6.41-4.66-4.27-6.99-9.9-6.99-16.89v-8.15c-15.92,17.08-38.04,25.62-66.38,25.62-21.35,0-40.57-5.24-57.65-15.72-17.08-10.48-30.47-25.23-40.18-44.25-9.7-19.41-14.56-41.34-14.56-65.8,0-27.17,5.82-53.38,17.47-78.61,11.65-25.62,27.95-46.39,48.91-62.3,21.35-15.92,45.81-23.87,73.37-23.87,17.86,0,33.97,2.52,48.33,7.57,14.36,4.66,29.31,10.48,44.84,17.47v242.23c0,7.76-2.72,14.56-8.15,20.38-5.44,5.82-12.03,8.73-19.8,8.73M2983.77,2601.6c-7.38,0-13.98-2.72-19.8-8.15-5.43-5.82-8.15-12.42-8.15-19.8v-335.4c0-7.76,2.72-14.36,8.15-19.8,5.82-5.82,12.81-8.73,20.96-8.73s14.17,2.91,19.22,8.73c5.05,5.43,7.57,12.03,7.57,19.8v125.19c12.81-16.3,27.37-29.31,43.67-39.01,16.3-10.09,32.61-15.14,48.91-15.14,30.67,0,52.21,15.53,64.64,46.58,12.42,30.67,18.63,79.39,18.63,146.16,0,37.66-.58,61.92-1.75,72.79-.39,7.38-3.3,13.59-8.73,18.63-5.05,5.05-11.26,7.57-18.63,7.57-8.15,0-14.75-2.52-19.8-7.57-5.05-5.43-7.57-12.03-7.57-19.8s.19-14.17.58-19.22l.58-48.33c0-56.29-3.1-93.94-9.32-112.96-5.82-19.02-13.2-28.53-22.13-28.53-11.26,0-22.71,5.24-34.36,15.72-11.65,10.09-21.74,21.54-30.28,34.36-8.15,12.42-13.98,22.32-17.47,29.7-4.66,10.48-6.99,24.26-6.99,41.34v86.76c0,8.93-2.72,16.11-8.15,21.54-5.44,5.05-12.03,7.57-19.8,7.57M2820.62,2601.02c-22.51,0-42.12-4.85-58.81-14.56-16.3-10.09-28.92-21.55-37.85-34.36-8.54-13.2-12.81-23.87-12.81-32.02s2.72-14.17,8.15-19.22c5.44-5.44,11.84-8.15,19.22-8.15,6.6,0,12.03,1.75,16.3,5.24,4.66,3.49,7.96,8.15,9.9,13.97,4.27,12.03,11.26,21.55,20.96,28.53,9.7,6.99,21.74,10.48,36.1,10.48,15.14,0,26.98-3.69,35.52-11.06,8.54-7.38,12.81-15.72,12.81-25.04s-3.69-15.92-11.06-20.96c-6.99-5.43-21.35-11.45-43.09-18.05-31.83-9.7-54.74-21.16-68.71-34.35-13.98-13.59-20.96-31.25-20.96-52.99,0-22.9,9.12-41.54,27.37-55.9,18.25-14.75,43.67-22.13,76.28-22.13,30.28,0,53.76,6.6,70.46,19.8,17.08,13.2,25.62,30.86,25.62,52.99,0,12.03-2.52,21.35-7.57,27.95-5.05,6.21-12.23,9.32-21.54,9.32-8.15,0-14.75-2.52-19.8-7.57-5.05-5.05-7.57-10.48-7.57-16.3,0-1.94.39-4.27,1.16-6.99,1.17-3.11,1.75-5.44,1.75-6.99,0-6.99-3.49-12.62-10.48-16.89-6.6-4.27-16.89-6.4-30.86-6.4-17.47,0-30.47,2.52-39.01,7.57-8.15,5.05-12.23,11.84-12.23,20.38s4.27,16.3,12.81,22.13c8.54,5.44,23.87,11.65,46,18.63,32.22,10.09,54.54,21.16,66.96,33.19,12.81,12.03,19.22,28.92,19.22,50.66,0,14.75-4.46,29.11-13.39,43.09-8.54,13.59-20.77,24.65-36.69,33.19-15.53,8.54-33.58,12.81-54.15,12.81M2652.01,2601.02c-7.76,0-14.56-2.72-20.38-8.15-5.43-5.82-8.15-12.62-8.15-20.38l2.91-231.75c0-7.76,2.72-14.36,8.15-19.8,5.82-5.82,12.62-8.73,20.38-8.73,8.15,0,14.95,2.91,20.38,8.73,5.43,5.44,8.15,12.03,8.15,19.8l-2.91,231.75c0,7.76-2.91,14.56-8.73,20.38-5.44,5.44-12.03,8.15-19.8,8.15M2654.92,2286c-7.38,0-13.97-2.91-19.8-8.73-5.44-5.82-7.96-12.42-7.57-19.8l.58-21.54c.39-7.38,3.3-13.78,8.73-19.22,5.44-5.44,11.84-8.15,19.22-8.15s13.78,2.91,19.22,8.74c5.82,5.82,8.54,12.23,8.15,19.21l-.58,22.13c-.39,7.76-3.3,14.36-8.73,19.8-5.05,5.05-11.45,7.57-19.22,7.57M2445.47,2601.02c-7.38,0-13.97-2.72-19.8-8.15-5.82-5.43-8.73-11.65-8.73-18.63v-235.83c0-7.76,2.72-14.36,8.15-19.8,5.82-5.43,12.62-8.15,20.38-8.15s14.36,2.72,19.8,8.15c5.82,5.44,8.74,12.03,8.74,19.8v17.47c19.02-31.06,45.03-46.58,78.03-46.58,19.8,0,33.97,5.44,42.51,16.3,8.93,10.87,13.39,23.87,13.39,39.01v17.47c0,7.76-2.72,14.36-8.15,19.8-5.05,5.05-11.45,7.57-19.22,7.57-9.32,0-16.3-2.72-20.96-8.15-4.27-5.43-6.41-12.03-6.41-19.8v-7.57c0-6.21-4.27-9.32-12.81-9.32-6.99,0-15.14,3.49-24.46,10.48-8.93,6.99-16.3,14.36-22.13,22.13-8.15,10.09-13.59,20.19-16.3,30.28-2.33,10.09-3.49,22.13-3.49,36.1l-.58,110.64c0,6.99-2.91,13.2-8.73,18.63-5.82,5.44-12.23,8.15-19.22,8.15M2223.63,2602.77c-20.96,0-37.65-4.46-50.08-13.39-12.42-9.32-21.74-26.01-27.95-50.08-6.21-24.07-9.32-58.62-9.32-103.65,0-15.14.58-31.83,1.75-50.08,1.17-18.24,2.72-33.58,4.66-46,1.55-9.71,4.46-17.08,8.73-22.13,4.27-5.05,10.48-7.57,18.63-7.57s14.36,2.33,19.8,6.99c5.44,4.66,8.15,11.45,8.15,20.38l-1.17,16.3c-3.88,33-5.82,64.63-5.82,94.91,0,39.6,3.3,66.58,9.9,80.94,6.99,13.98,16.5,20.96,28.53,20.96,13.97,0,28.34-3.69,43.09-11.06,14.75-7.76,25.23-15.14,31.44-22.13,2.33-2.33,3.49-7.18,3.49-14.56l1.17-165.95c0-7.76,2.72-14.17,8.15-19.21,5.82-5.05,12.23-7.57,19.22-7.57,7.38,0,13.78,2.52,19.22,7.57,5.82,5.05,8.73,11.45,8.73,19.21v236.41c0,7.38-2.91,13.97-8.73,19.8-5.43,5.44-11.84,8.15-19.22,8.15-7.76,0-14.75-2.33-20.96-6.99-5.82-5.05-8.73-11.26-8.73-18.63v-6.4c-14.75,10.48-28.53,18.83-41.34,25.04-12.42,5.82-26.2,8.73-41.34,8.73M1972.67,2548.62c13.59,0,26.59-4.66,39.01-13.98,12.42-9.32,22.32-21.74,29.7-37.27,7.38-15.53,11.06-32.03,11.06-49.5,0-14.75-2.91-28.53-8.73-41.34-5.82-13.2-13.78-23.68-23.88-31.44-10.09-8.15-21.16-12.23-33.19-12.23-13.59,0-26.4,4.85-38.43,14.56-11.65,9.32-20.96,21.93-27.95,37.85-6.99,15.53-10.48,32.22-10.48,50.08s2.91,32.41,8.73,44.84c6.21,12.42,13.97,21.93,23.29,28.53,9.7,6.6,19.99,9.9,30.86,9.9M1972.67,2601.02c-22.13,0-42.51-6.02-61.14-18.05-18.24-12.03-32.61-28.34-43.09-48.91-10.48-20.96-15.72-43.67-15.72-68.13,0-27.56,6.21-53.18,18.63-76.86,12.42-24.07,29.11-43.09,50.08-57.06,20.96-14.36,43.48-21.54,67.55-21.54,22.13,0,42.31,6.21,60.56,18.63,18.63,12.42,33.19,28.92,43.67,49.49,10.87,20.57,16.3,42.7,16.3,66.38,0,27.95-6.21,53.96-18.63,78.03-12.42,23.68-29.31,42.7-50.66,57.07-20.96,13.97-43.48,20.96-67.55,20.96M1551.25,2601.02c-7.38,0-13.97-2.91-19.8-8.73s-8.73-12.42-8.73-19.8l.58-339.48c0-7.76,2.52-14.36,7.57-19.8,5.43-5.82,12.23-8.73,20.38-8.73,4.66,0,9.12,1.17,13.39,3.49,4.27,1.94,7.76,4.85,10.48,8.73l182.26,263.78v-247.48c0-7.76,2.72-14.56,8.15-20.38,5.82-5.82,12.81-8.73,20.96-8.73s14.36,2.91,19.8,8.73c5.82,5.82,8.73,12.62,8.73,20.38v339.48c0,8.15-2.72,14.95-8.15,20.38-5.43,5.44-12.23,8.15-20.38,8.15-4.27,0-8.73-1.17-13.39-3.49-4.27-2.33-7.76-5.43-10.48-9.32l-181.67-262.61-.58,246.89c0,8.15-2.91,14.95-8.73,20.38-5.44,5.44-12.23,8.15-20.38,8.15"/>
      <path class="cls-3" d="M2394.86,1893.27c32.48-30.57,19.57-82.47-7.77-117.29h-300.56c.02,77.38,22.51,153.08,64.74,217.91,42.23,64.83,102.38,116.01,173.14,147.3-24.34-139.43,43.4-222.49,70.45-247.92"/>
      <path class="cls-3" d="M2698.79,1775.68c-27.42,42.3-76.17,98.23-153.95,127.04-115.31,42.89-233.34,69.49-189.13,250.64,60.13,20.63,124.32,26.6,187.23,17.43,62.91-9.17,122.72-33.23,174.46-70.16s93.92-85.69,123.03-142.21c29.11-56.52,44.31-119.17,44.33-182.74h-185.98Z"/>
      <path class="cls-3" d="M2705.61,1426.89c-361.18,130.05-272.19,385.45-272.19,385.45,62.75-27.93,174.25-192.58,174.25-192.58-6.67,67.74-75.58,163.84-111.65,210.02-.81.95-45.6,50.73-72.21,65.32-59.09,32.55-57.4,65.02-60.19,79.17v1.1c2.71-7.33,21.99-46.4,109.38-75.87,109.96-36.65,193.82-93.98,232.24-179.53,70.74-127.77.37-293.08.37-293.08"/>
      <path class="cls-3" d="M2894.01,1738.73h-174.33c-12.99,26.53-29.24,51.32-48.38,73.82h222.71c9.79,0,19.18-3.89,26.1-10.81,6.92-6.92,10.81-16.31,10.81-26.1s-3.89-19.18-10.81-26.1-16.31-10.81-26.1-10.81M2407.62,1812.55h-329.88c-9.79,0-19.18-3.89-26.1-10.81-6.92-6.92-10.81-16.31-10.81-26.1s3.89-19.18,10.81-26.1,16.31-10.81,26.1-10.81h254.82c19.72,7.84,39.37,18.47,50.95,32.04,10.45,12.39,18.62,26.54,24.12,41.78"/>
      <g class="cls-4">
        <g class="cls-2">
          <path class="cls-3" d="M1185.77,1343.49l-62.5-37.7,6.71-11.15,62.52,37.7c5.28,3.17,11.01,3.5,17.22.96,5.71-2.42,10.37-6.6,13.96-12.59,3.62-5.96,5.14-12.02,4.59-18.22-.64-6.65-3.62-11.58-8.9-14.76l-62.5-37.7,6.73-11.17,62.47,37.7c8.14,4.9,12.78,12.38,13.94,22.4,1.17,9.53-.93,18.78-6.35,27.8-5.45,8.98-12.63,15.17-21.6,18.57-9.42,3.66-18.18,3.04-26.31-1.84"/>
          <polygon class="cls-3" points="1257.11 1285.99 1171.14 1227.14 1178.51 1216.39 1275.65 1219.77 1207.94 1173.42 1215.29 1162.67 1301.24 1221.51 1293.89 1232.26 1196.9 1228.98 1264.49 1275.24 1257.11 1285.99"/>
          <polygon class="cls-3" points="1307.17 1213.75 1224.47 1150.4 1232.4 1140.08 1305.86 1196.34 1339.09 1152.95 1348.32 1160.02 1307.17 1213.75"/>
          <polygon class="cls-3" points="1349.61 1158.66 1270.1 1091.31 1316.42 1036.66 1325.82 1044.63 1287.95 1089.36 1312.26 1109.95 1345.94 1070.21 1355.34 1078.18 1321.68 1117.92 1348.61 1140.74 1386.48 1096.04 1395.9 1104.01 1349.61 1158.66"/>
          <path class="cls-3" d="M1392.72,1107.44l-52.58-96.13,11.51-12.2,99.11,46.72-8.94,9.49-29.86-13.8-25.84,27.45,15.51,29-8.92,9.47ZM1380.23,1058.23l20.67-21.95-43.15-19.91,22.48,41.86Z"/>
          <path class="cls-3" d="M1424,1023.05l9.42-8.97c5.45,5.71,11.51,8.59,18.22,8.66,6.68.26,12.89-2.36,18.58-7.79,5.71-5.45,9.04-11.05,9.99-16.85,1.02-5.85-.5-10.95-4.61-15.25-3.69-3.89-8.68-5.07-14.94-3.52-4.54,1.2-10.09,3.94-16.56,8.22-8.61,5.7-17.01,9.05-25.19,10.08-9.4,1.07-16.96-1.42-22.72-7.45-5.85-6.11-8.14-13.32-6.9-21.6,1.26-8.3,5.9-16.27,13.89-23.93,8.02-7.64,16.53-11.54,25.5-11.74,8.97-.2,16.94,3.35,23.84,10.62l-9.42,8.99c-5.31-3.92-10.9-5.88-16.7-5.86-5.8.19-10.87,2.34-15.18,6.44-5.11,4.9-8.23,9.91-9.33,15.05-1,5.05.24,9.42,3.71,13.06,3.62,3.81,8.42,5.27,14.42,4.46,5.11-.62,10.47-2.78,16.03-6.54,9.52-6.39,17.99-10.35,25.36-11.87,9.52-2.12,17.1-.21,22.77,5.76,6.78,7.09,9.64,15.2,8.52,24.31-1.09,9.25-5.9,17.95-14.44,26.07-8.49,8.11-17.72,12.18-27.64,12.18-9.87-.07-18.75-4.23-26.62-12.51"/>
          <polygon class="cls-3" points="1507.1 992.44 1439.53 913.16 1449.45 904.71 1477.36 937.44 1516.99 903.65 1489.09 870.92 1499.01 862.5 1566.57 941.76 1556.65 950.21 1524.56 912.52 1484.9 946.31 1517.02 983.99 1507.1 992.44"/>
          <polygon class="cls-3" points="1536.31 832.85 1547.47 824.91 1604.97 846.42 1603.56 784.94 1614.72 776.97 1616.67 850.89 1641.56 885.77 1630.38 893.72 1605.52 858.86 1536.31 832.85"/>
          <path class="cls-3" d="M1644.51,819.75c-8.66-13.87-11.94-27.29-9.92-40.24,2.07-12.86,9.14-23.04,21.15-30.51,12.04-7.49,24.22-9.3,36.59-5.42,12.54,3.91,23.12,12.8,31.74,26.67,8.52,13.68,11.7,26.91,9.56,39.68-2.05,12.69-9.11,22.79-21.12,30.27-12.04,7.48-24.24,9.36-36.64,5.65-12.42-3.72-22.89-12.42-31.35-26.1M1655.55,812.87c6.64,10.68,14.61,17.63,23.89,20.86,9.21,3.14,18.18,2,26.91-3.43,8.64-5.38,13.58-12.89,14.82-22.55,1.21-9.75-1.52-19.96-8.16-30.62-6.8-10.97-14.87-18.08-24.15-21.32-9.33-3.33-18.32-2.31-26.95,3.06-8.73,5.44-13.66,13.07-14.77,22.92-1.19,9.75,1.62,20.11,8.42,31.07"/>
          <path class="cls-3" d="M1739.67,785.61l-34.69-64.22,11.47-6.17,34.69,64.21c2.95,5.42,7.71,8.61,14.34,9.59,6.16.82,12.3-.43,18.44-3.73,6.11-3.32,10.52-7.78,13.23-13.37,2.81-6.08,2.76-11.82-.19-17.25l-34.69-64.22,11.44-6.19,34.71,64.21c4.5,8.34,4.71,17.13.59,26.36-3.81,8.8-10.33,15.71-19.58,20.7-9.23,5-18.6,6.67-28.05,5.04-9.97-1.63-17.2-6.6-21.72-14.95"/>
          <path class="cls-3" d="M1830.21,772.45l-44.2-94.33,40.66-19.03c9.3-4.38,17.96-5.33,25.91-2.88,7.92,2.37,13.85,7.73,17.77,16.12,2.43,5.17,3.28,10.53,2.59,16.02-.91,5.61-3.28,10.38-7.11,14.32,4.54.79,8.59,2.42,12.13,4.9,3.78,2.67,6.57,5.94,8.4,9.86l9.18,17.97c.48,1.05,1.71,2.17,3.66,3.38l1.14.81-11.8,5.52-.59-.46c-2.4-1.65-3.9-3.08-4.5-4.34l-8.9-17.39c-2.14-4.54-5.9-7.33-11.28-8.34-5-.94-10.09-.2-15.25,2.22l-24.19,11.34,18.18,38.79-11.8,5.52ZM1818.89,717.59l28.88-13.52c5.66-2.68,9.52-6.39,11.59-11.16,1.9-4.84,1.64-9.86-.81-15.07-2.4-5.13-6.04-8.46-10.92-9.99-5-1.47-10.33-.88-16.01,1.77l-28.86,13.52,16.13,34.45Z"/>
          <polygon class="cls-3" points="1900.01 639.47 1895.92 628.56 1969.02 601.02 1973.14 611.92 1942.52 623.46 1975.11 710.05 1962.93 714.62 1930.32 628.05 1900.01 639.47"/>
          <path class="cls-3" d="M2000.35,700.29l.69-109.54,15.99-5.11,63.97,88.96-12.42,3.94-19.41-26.52-35.92,11.44-.47,32.88-12.42,3.96ZM2013.3,651.2l28.74-9.16-28.05-38.32-.69,47.48Z"/>
          <path class="cls-3" d="M2068.2,641.82l12.58-3.31c2,7.64,5.9,13.11,11.73,16.43,5.76,3.45,12.44,4.19,20.05,2.18,7.64-2,13.25-5.3,16.89-9.9,3.73-4.64,4.88-9.84,3.35-15.58-1.36-5.19-5.14-8.64-11.37-10.31-4.57-1.17-10.71-1.45-18.46-.84-10.3.83-19.27-.31-26.93-3.39-8.73-3.62-14.16-9.46-16.27-17.52-2.14-8.19-.67-15.58,4.45-22.24,5.11-6.64,13.01-11.37,23.74-14.18,10.71-2.81,20.05-2.12,27.98,2.06,7.95,4.18,13.2,11.12,15.75,20.85l-12.61,3.3c-2.74-6.01-6.69-10.41-11.78-13.22-5.19-2.64-10.66-3.23-16.39-1.71-6.88,1.78-12.01,4.66-15.44,8.63-3.35,3.95-4.38,8.35-3.09,13.22,1.33,5.08,4.8,8.71,10.47,10.9,4.76,1.94,10.47,2.63,17.18,2.06,11.42-.99,20.74-.36,27.95,1.89,9.32,2.75,15.04,8.1,17.13,16.05,2.5,9.52,1.05,17.99-4.33,25.41-5.45,7.58-13.89,12.83-25.26,15.82-11.37,2.97-21.41,2.07-30.12-2.74-8.59-4.85-14.32-12.79-17.2-23.84"/>
          <polygon class="cls-3" points="2129.96 566.34 2127.61 554.94 2204.09 538.98 2206.45 550.38 2174.42 557.06 2193.34 647.63 2180.59 650.29 2161.67 559.72 2129.96 566.34"/>
          <polygon class="cls-3" points="2227.17 640.78 2211.01 537.87 2281.74 526.76 2283.67 538.94 2225.79 548.03 2230.74 579.52 2282.17 571.43 2284.1 583.63 2232.64 591.7 2238.13 626.56 2296.01 617.47 2297.92 629.67 2227.17 640.78"/>
          <path class="cls-3" d="M2337.53,625.12l-8.06-103.84,44.08-3.43c8.3-.64,15.68,1.59,22.17,6.71,6.5,5.21,10.02,11.92,10.68,20.13.36,4.66-.45,9.04-2.45,13.08-2.07,4.04-5.04,7.21-8.87,9.46,5.07,1.89,9.18,4.83,12.37,8.83,3.4,4.09,5.33,8.69,5.71,13.83.67,8.42-2.24,15.69-8.61,21.79-6.19,5.98-13.85,9.33-22.93,10.04l-44.08,3.4ZM2345.92,565l31.09-2.4c4.78-.36,8.75-2.17,11.94-5.41,3.31-3.25,4.78-7.11,4.45-11.57-.38-4.81-2.43-8.8-6.09-11.95-3.69-3.18-7.99-4.58-12.87-4.2l-31.09,2.4,2.57,33.14ZM2349.59,612.5l31.12-2.42c5.57-.43,10.28-2.4,14.13-5.9,3.95-3.73,5.73-8.17,5.33-13.3-.38-5.23-2.85-9.47-7.35-12.67-4.35-3.11-9.33-4.44-14.89-4.01l-31.09,2.43,2.76,35.86Z"/>
          <path class="cls-3" d="M2417.63,587.84l-1.48-72.96,13.01-.26,1.5,72.96c.12,6.16,2.88,11.19,8.35,15.06,5.11,3.57,11.13,5.28,18.1,5.14,6.95-.16,12.89-2.09,17.87-5.85,5.26-4.12,7.85-9.23,7.73-15.39l-1.48-72.99,13.01-.26,1.5,72.96c.19,9.48-3.66,17.39-11.54,23.72-7.4,6.09-16.37,9.23-26.86,9.44-10.51.23-19.6-2.57-27.26-8.35-8.14-6-12.28-13.74-12.47-23.22"/>
          <path class="cls-3" d="M2503.96,617.53l3.83-104.08,32.54,1.19c14.13.52,25.26,5.69,33.35,15.46,8.23,9.8,12.04,22.58,11.47,38.3-.59,15.75-5.33,28.22-14.23,37.37-8.83,9.16-20.29,13.49-34.45,12.97l-32.52-1.21ZM2517.4,606.38l19.51.71c10.18.38,18.46-2.97,24.88-10.06,6.45-7.21,9.9-16.94,10.35-29.17.45-12.25-2.26-22.14-8.16-29.69-5.9-7.54-13.94-11.51-24.08-11.87l-19.53-.74-2.97,80.81Z"/>
          <path class="cls-3" d="M2585.39,585.5l12.97,1.19c-.74,7.85,1.07,14.33,5.42,19.45,4.21,5.2,10.25,8.16,18.1,8.88,7.85.73,14.27-.46,19.27-3.56,5.09-3.09,7.9-7.59,8.47-13.51.48-5.35-1.9-9.85-7.18-13.56-3.9-2.64-9.59-5-17.08-7.09-9.94-2.74-18.01-6.85-24.17-12.36-6.97-6.39-10.09-13.71-9.32-22.02.79-8.42,4.71-14.89,11.8-19.4,7.04-4.51,16.1-6.24,27.14-5.24,11.01,1.02,19.58,4.84,25.62,11.49,6.02,6.64,8.57,14.94,7.66,24.96l-12.97-1.19c-.55-6.59-2.74-12.06-6.59-16.44-3.95-4.26-8.9-6.67-14.82-7.21-7.04-.65-12.87.31-17.46,2.85-4.47,2.58-6.95,6.35-7.4,11.37-.48,5.22,1.55,9.84,6.14,13.8,3.81,3.45,8.95,6.05,15.44,7.8,11.09,2.97,19.63,6.73,25.62,11.3,7.85,5.78,11.4,12.75,10.66,20.94-.93,9.78-5.16,17.25-12.75,22.39-7.71,5.28-17.41,7.35-29.14,6.28-11.7-1.07-20.82-5.35-27.38-12.85-6.42-7.47-9.09-16.89-8.04-28.27"/>
          <polygon class="cls-3" points="2737.2 639.12 2757.35 536.93 2827.62 550.78 2825.22 562.88 2767.72 551.55 2761.56 582.82 2812.66 592.89 2810.28 605 2759.18 594.91 2752.35 629.55 2809.83 640.88 2807.45 652.98 2737.2 639.12"/>
          <path class="cls-3" d="M2802.95,651.89l58.4-92.7,16.27,4.13,7.38,109.29-12.63-3.19-2.5-32.78-36.54-9.24-17.77,27.68-12.61-3.19ZM2839.85,617.03l29.24,7.4-3.59-47.39-25.65,39.99Z"/>
          <polygon class="cls-3" points="2906.7 582.73 2910.12 571.6 2984.78 594.65 2981.33 605.78 2950.07 596.12 2922.78 684.52 2910.31 680.67 2937.63 592.29 2906.7 582.73"/>
          <polygon class="cls-3" points="2955.16 694.58 2991.3 596.87 3003.52 601.38 3023.89 696.42 3052.34 619.45 3064.57 623.98 3028.45 721.66 3016.23 717.16 2995.79 622.28 2967.39 699.08 2955.16 694.58"/>
          <path class="cls-3" d="M3054.22,675.69c6.61-14.94,15.84-25.22,27.69-30.84,11.82-5.51,24.19-5.42,37.14.33,12.97,5.72,21.32,14.78,25.07,27.19,3.81,12.56,2.4,26.3-4.19,41.24-6.52,14.71-15.65,24.8-27.43,30.2-11.66,5.46-23.96,5.33-36.9-.4-12.97-5.73-21.39-14.76-25.31-27.12-3.9-12.35-2.59-25.87,3.93-40.6M3066.14,680.93c-5.09,11.51-6.38,22.01-3.83,31.5,2.59,9.38,8.61,16.15,17.99,20.32,9.3,4.12,18.29,3.97,27-.43,8.73-4.5,15.65-12.49,20.72-23.98,5.21-11.81,6.57-22.46,4.02-31.95-2.5-9.59-8.4-16.46-17.7-20.57-9.4-4.15-18.49-3.94-27.26.67-8.76,4.5-15.73,12.66-20.94,24.44"/>
          <path class="cls-3" d="M3135.46,734.89l33.5-64.84,11.56,5.98-33.5,64.83c-2.83,5.49-2.78,11.23.17,17.25,2.78,5.57,7.25,9.94,13.46,13.13,6.19,3.19,12.35,4.33,18.48,3.39,6.61-1.11,11.32-4.37,14.16-9.85l33.52-64.84,11.56,5.97-33.5,64.83c-4.35,8.43-11.51,13.55-21.46,15.36-9.4,1.82-18.79.32-28.12-4.51-9.35-4.83-15.99-11.6-19.96-20.34-4.28-9.15-4.24-17.94.12-26.36"/>
          <path class="cls-3" d="M3197.67,802.46l53-89.68,38.66,22.84c8.85,5.23,14.49,11.83,16.96,19.79,2.5,7.87,1.4,15.78-3.31,23.77-2.9,4.92-6.85,8.64-11.78,11.16-5.14,2.42-10.42,3.15-15.84,2.21,1.9,4.18,2.83,8.45,2.81,12.77-.07,4.6-1.19,8.76-3.4,12.49l-9.68,17.72c-.59.97-.83,2.63-.74,4.95v1.37l-11.23-6.62.07-.76c-.02-2.91.36-4.96,1.05-6.14l9.35-17.18c2.54-4.33,2.71-8.99.5-14.01-2.02-4.65-5.5-8.42-10.4-11.34l-23.01-13.59-21.81,36.87-11.21-6.63ZM3236.62,762.18l27.43,16.23c5.4,3.19,10.66,4.28,15.77,3.29,5.04-1.17,9.04-4.21,11.99-9.18,2.88-4.85,3.57-9.74,2.09-14.64-1.62-4.95-5.09-9-10.51-12.2l-27.43-16.23-19.34,32.73Z"/>
          <polygon class="cls-3" points="3269.83 845.93 3326.47 758.5 3337.39 765.58 3280.72 853.01 3269.83 845.93"/>
          <path class="cls-3" d="M3304.08,825.67l10.75,7.39c-4.47,6.48-6.07,13.02-4.76,19.59,1.14,6.61,4.95,12.14,11.42,16.63,6.49,4.46,12.66,6.57,18.53,6.31,5.97-.2,10.63-2.74,14.01-7.62,3.02-4.41,3.16-9.55.36-15.36-2.07-4.2-5.88-9.04-11.42-14.51-7.33-7.28-12.32-14.82-15.01-22.6-2.95-8.99-2.09-16.92,2.64-23.79,4.78-6.96,11.37-10.67,19.75-11.15,8.37-.48,17.13,2.43,26.24,8.72,9.14,6.27,14.7,13.8,16.73,22.55,2.02,8.72.19,17.24-5.5,25.5l-10.73-7.38c2.74-6,3.5-11.86,2.31-17.55-1.38-5.65-4.52-10.18-9.4-13.55-5.83-4.02-11.4-6.02-16.65-6.04-5.16.05-9.16,2.14-12.01,6.27-3,4.34-3.45,9.34-1.43,15.05,1.64,4.88,4.85,9.67,9.68,14.36,8.21,8.03,13.8,15.48,16.82,22.4,4,8.87,3.69,16.7-.98,23.46-5.57,8.1-12.92,12.54-22.05,13.32-9.3.81-18.79-2.13-28.48-8.8-9.68-6.66-15.56-14.87-17.6-24.6-1.95-9.66.33-19.2,6.78-28.6"/>
          <polygon class="cls-3" points="3351.85 901.32 3415.63 818.95 3425.91 826.93 3399.6 860.93 3440.78 892.82 3467.09 858.81 3477.42 866.78 3413.64 949.14 3403.33 941.17 3433.64 902.04 3392.46 870.13 3362.15 909.29 3351.85 901.32"/>
          <path class="cls-3" d="M3414.97,950.14l93.95-56.38,12.66,11.01-42.73,100.87-9.85-8.54,12.58-30.4-28.43-24.72-28.36,16.7-9.82-8.54ZM3463.62,935.65l22.77,19.79,18.17-43.89-40.94,24.1Z"/>
          <polygon class="cls-3" points="3480.13 1007.66 3489.5 997.64 3499.52 1006.98 3490.17 1017 3480.13 1007.66"/>
          <path class="cls-3" d="M3531.23,983.44c11.56-11.54,23.62-18.07,36.14-19.58,12.51-1.36,23.34,2.52,32.45,11.67,7.19,7.2,11.09,15.74,11.71,25.59.64,10.01-2.24,18.86-8.64,26.52l-9.18-9.23c4.19-5,6.09-10.85,5.71-17.56-.47-6.62-3.09-12.32-7.85-17.09-6.61-6.62-15.06-8.79-25.31-6.46-9.11,2.18-17.75,7.28-25.81,15.34-7.92,7.92-12.92,16.43-14.94,25.55-2.21,10.1-.02,18.41,6.49,24.95,5.42,5.42,11.37,8.18,17.94,8.28,6.61.17,12.7-2.38,18.27-7.61l9.23,9.22c-7.95,7.91-16.75,11.69-26.43,11.36-9.87-.34-18.96-4.69-27.24-13.01-9.14-9.15-13.04-19.91-11.71-32.35,1.38-12.35,7.78-24.22,19.18-35.59"/>
          <path class="cls-3" d="M3590.27,1042.49c12.23-10.82,24.91-16.32,38.02-16.49,13.06-.08,24.27,5.16,33.64,15.8,9.37,10.61,13.18,22.34,11.44,35.16-1.78,13.01-8.78,24.93-21.01,35.73-12.08,10.68-24.57,16.01-37.54,16.02-12.87.11-23.98-5.15-33.38-15.76-9.37-10.62-13.27-22.34-11.66-35.18,1.59-12.85,8.42-24.61,20.48-35.28M3598.89,1052.24c-9.4,8.33-14.94,17.33-16.56,27.02-1.57,9.61,1.05,18.27,7.85,25.98,6.76,7.61,14.96,11.22,24.69,10.85,9.82-.43,19.44-4.83,28.86-13.14,9.68-8.55,15.32-17.68,16.96-27.37,1.76-9.75-.76-18.46-7.49-26.07-6.8-7.71-15.15-11.28-25.07-10.75-9.83.43-19.56,4.95-29.24,13.49"/>
          <polygon class="cls-3" points="3616.11 1150.47 3698.71 1086.99 3708.63 1099.9 3663.4 1175.71 3748.31 1151.52 3758.23 1164.41 3675.63 1227.9 3667.69 1217.57 3729.64 1169.96 3648.61 1192.7 3643.06 1185.51 3686 1113.17 3624.06 1160.8 3616.11 1150.47"/>
          <path class="cls-3" d="M3794.84,1426.57l94.33-44.15,18.75,40.04c3.52,7.53,4.04,15.25,1.55,23.1-2.59,7.91-7.64,13.6-15.06,17.09-4.26,1.99-8.61,2.76-13.11,2.34-4.54-.54-8.54-2.19-11.97-4.99,0,5.4-1.31,10.3-3.93,14.68-2.62,4.64-6.26,8.04-10.92,10.23-7.66,3.58-15.46,3.46-23.46-.38-7.75-3.68-13.58-9.65-17.46-17.94l-18.72-40.03ZM3810.9,1433.42l13.23,28.24c2.38,5.08,5.88,8.8,10.51,11.17,4.9,2.38,9.66,2.45,14.32.29,4.76-2.24,7.85-6.01,9.28-11.35,1.33-5.16.83-10.28-1.52-15.34l-13.23-28.25-32.59,15.25ZM3854.06,1413.22l13.23,28.25c2.02,4.34,5.11,7.45,9.28,9.27,4.19,1.94,8.33,1.96,12.37.06,4.38-2.02,7.4-5.33,9.06-9.9,1.67-4.57,1.45-9.09-.62-13.51l-13.23-28.25-30.09,14.08Z"/>
          <path class="cls-3" d="M3876.04,1476.95c15.18-6.03,28.98-6.9,41.37-2.6,12.3,4.33,21.05,13.08,26.29,26.24,5.21,13.16,4.85,25.48-1.19,36.97-6.04,11.63-16.68,20.46-31.88,26.5-14.94,5.95-28.52,6.72-40.73,2.34-12.13-4.27-20.82-12.99-26.03-26.16-5.23-13.16-4.93-25.52.95-37.06,5.83-11.54,16.25-20.28,31.21-26.23M3880.84,1489.05c-11.66,4.64-19.94,11.24-24.74,19.79-4.76,8.52-5.21,17.56-1.43,27.11,3.76,9.44,10.28,15.64,19.55,18.59,9.4,2.92,19.94,2.05,31.62-2.6,11.99-4.77,20.41-11.41,25.24-19.97,4.92-8.59,5.52-17.63,1.76-27.07-3.78-9.54-10.42-15.77-19.91-18.63-9.4-2.9-20.08-1.98-32.09,2.78"/>
          <polygon class="cls-3" points="3863.64 1587.88 3962.66 1555.46 3966.7 1567.84 3904.92 1642.87 3982.93 1617.34 3986.97 1629.71 3887.96 1662.13 3883.91 1649.75 3945.55 1574.76 3867.71 1600.24 3863.64 1587.88"/>
          <path class="cls-3" d="M3898.64,1699.43l109.22,8.74,3.9,16.33-93.42,57.24-3.02-12.67,27.91-17.42-8.8-36.66-32.73-2.93-3.05-12.64ZM3946.65,1715.96l7.02,29.33,40.32-25.17-47.34-4.16Z"/>
          <path class="cls-3" d="M3918.57,1783.72l102.44-18.76,7.73,42.11c1.78,9.8.45,18.1-3.97,24.94-4.33,6.84-11.04,11.09-20.13,12.76-9.23,1.68-17.13.09-23.7-4.73-6.57-4.83-10.75-12.13-12.56-21.9l-5.35-29.33-42.13,7.72-2.33-12.81ZM3974.5,1786.71l5.35,29.32c1.09,5.85,3.64,10.26,7.71,13.24,4.14,2.82,9.04,3.73,14.73,2.69,5.54-1.01,9.73-3.58,12.49-7.68,2.74-4.21,3.57-9.25,2.5-15.08l-5.35-29.33-37.42,6.85Z"/>
          <path class="cls-3" d="M3932.56,1861.5l103.29-13.23,5.45,42.46c1.26,9.87-.5,18.08-5.3,24.69-4.66,6.59-11.61,10.47-20.77,11.66-9.3,1.19-17.08-.81-23.39-6-6.33-5.17-10.11-12.7-11.37-22.54l-3.78-29.57-42.49,5.44-1.64-12.92ZM3988.23,1867.5l3.81,29.57c.76,5.88,3.07,10.42,6.97,13.62,3.97,3.06,8.83,4.2,14.56,3.49,5.59-.74,9.9-3.06,12.87-7.02,2.97-4.07,4.07-9.04,3.33-14.94l-3.81-29.56-37.73,4.84Z"/>
          <path class="cls-3" d="M3942.29,1939.96l103.87-7.81,5.38,71.41-12.3.93-4.4-58.43-31.78,2.4,3.93,51.92-12.3.94-3.93-51.96-35.16,2.65,4.38,58.44-12.3.92-5.38-71.41ZM4081.01,1972.65l.93,12.63-27.15-11.54-.95-12.81,27.17,11.72Z"/>
          <polygon class="cls-3" points="4039.93 2004.74 4051.58 2004.46 4053.53 2082.56 4041.88 2082.85 4041.07 2050.13 3948.57 2052.44 3948.24 2039.43 4040.74 2037.12 4039.93 2004.74"/>
          <rect class="cls-3" x="3994.4" y="2041.72" width="13.03" height="104.15" transform="translate(1877.48 6079.06) rotate(-89.57)"/>
          <polygon class="cls-3" points="4041.69 2106.16 4053.32 2106.63 4050.18 2184.69 4038.52 2184.22 4039.85 2151.52 3947.41 2147.79 3947.93 2134.79 4040.38 2138.51 4041.69 2106.16"/>
          <rect class="cls-3" x="3976.57" y="2161.67" width="13.03" height="136.38" transform="translate(1372.81 5974.69) rotate(-84.36)"/>
          <path class="cls-3" d="M3985.19,2290.31l-.55,4.08-52.12-3.51-25.79-3.62,1.64-11.54,25.79,3.62,51.03,10.97ZM4011.52,2290.21l-1.62,11.55-11.54-1.63,1.62-11.55,11.54,1.63Z"/>
          <path class="cls-3" d="M3932.85,2301.16l102.58,18.18-7.71,43.53c-1.48,8.21-5.47,14.8-12.04,19.78-6.71,4.97-14.08,6.72-22.17,5.29-4.64-.81-8.66-2.69-12.06-5.63-3.4-3.03-5.71-6.7-6.92-10.97-3.14,4.44-7.02,7.7-11.66,9.77-4.8,2.28-9.75,2.96-14.8,2.08-8.33-1.49-14.65-6.09-18.98-13.81-4.24-7.47-5.57-15.71-3.95-24.72l7.71-43.51ZM3942.05,2316.01l-5.45,30.7c-.98,5.51-.24,10.56,2.16,15.19,2.64,4.75,6.5,7.57,11.56,8.48,5.16.92,9.87-.42,14.11-3.94,4.09-3.47,6.61-7.95,7.59-13.45l5.45-30.7-35.42-6.28ZM3988.94,2324.32l-5.42,30.7c-.86,4.72-.09,9.04,2.24,12.92,2.33,4.03,5.69,6.42,10.09,7.21,4.76.83,9.14-.12,13.11-2.9,4-2.78,6.42-6.59,7.28-11.42l5.45-30.7-32.74-5.8Z"/>
          <path class="cls-3" d="M3948.95,2387.76l71.01,16.84-3,12.67-71.04-16.83c-6-1.44-11.56,0-16.68,4.31-4.71,4.06-7.87,9.47-9.49,16.25-1.59,6.78-1.21,13.04,1.19,18.77,2.64,6.14,6.97,9.92,12.97,11.35l71.01,16.83-2.97,12.69-71.04-16.84c-9.21-2.19-15.92-7.9-20.08-17.1-4.04-8.71-4.83-18.18-2.4-28.41,2.43-10.21,7.38-18.29,14.92-24.26,7.83-6.35,16.37-8.45,25.6-6.26"/>
          <polygon class="cls-3" points="3898.31 2464.5 3998.18 2494.06 3977.86 2562.73 3966.01 2559.23 3982.66 2503.07 3952.12 2494 3937.32 2543.94 3925.47 2540.44 3940.27 2490.49 3906.44 2480.49 3889.81 2536.66 3877.97 2533.16 3898.31 2464.5"/>
          <polygon class="cls-3" points="3877.08 2535.92 3975.15 2571 3970.77 2583.26 3875.94 2604.65 3953.21 2632.3 3948.83 2644.57 3850.75 2609.47 3855.13 2597.2 3949.79 2575.77 3872.68 2548.17 3877.08 2535.92"/>
          <path class="cls-3" d="M3833.17,2652.39l94.85,43.05-17.7,39.02c-4.12,9.05-9.92,15.11-17.49,18.21-7.45,3.14-15.39,2.81-23.81-1.02-8.54-3.88-14.11-9.67-16.77-17.39-2.62-7.73-1.9-16.11,2.21-25.15l12.3-27.14-38.97-17.72,5.38-11.85ZM3877.39,2686.76l-12.32,27.16c-2.45,5.4-2.88,10.49-1.21,15.25,1.79,4.69,5.31,8.25,10.54,10.62,5.16,2.34,10.02,2.6,14.63.81,4.66-1.89,8.23-5.55,10.68-10.97l12.32-27.14-34.64-15.73Z"/>
          <path class="cls-3" d="M3800.2,2724.55l92.3,48.25-20.79,39.8c-4.76,9.09-11.04,15.08-18.86,17.96-7.73,2.92-15.7,2.24-23.91-2.06-5.07-2.65-8.99-6.36-11.78-11.17-2.66-5.02-3.69-10.25-3.02-15.7-4.07,2.13-8.28,3.27-12.61,3.45-4.62.18-8.8-.74-12.66-2.73l-18.2-8.74c-1.02-.53-2.69-.69-4.97-.48l-1.38.05,6.04-11.55.76.02c2.9-.14,4.97.1,6.19.73l17.63,8.45c4.45,2.32,9.14,2.26,14.01-.2,4.57-2.27,8.14-5.95,10.78-11l12.39-23.68-37.97-19.84,6.04-11.54ZM3842.45,2761.32l-14.75,28.25c-2.93,5.57-3.76,10.87-2.47,15.92,1.4,5,4.69,8.83,9.8,11.49,5,2.62,9.9,3.07,14.7,1.33,4.88-1.84,8.75-5.57,11.66-11.13l14.77-28.22-33.71-17.64Z"/>
          <path class="cls-3" d="M3808.59,2821.05c13.99,8.42,23.05,18.85,27.14,31.32,4,12.39,2.38,24.67-4.95,36.82-7.28,12.13-17.32,19.29-30.09,21.48-12.92,2.21-26.38-.87-40.4-9.3-13.82-8.29-22.67-18.61-26.57-30.96-3.95-12.24-2.28-24.44,5.02-36.57,7.3-12.16,17.29-19.39,30.05-21.72,12.73-2.36,25.98.64,39.8,8.93M3801.89,2832.22c-10.78-6.47-21.03-9.05-30.76-7.7-9.64,1.39-17.1,6.51-22.41,15.31-5.23,8.71-6.21,17.65-2.93,26.82,3.38,9.23,10.44,17.08,21.22,23.56,11.06,6.64,21.46,9.3,31.19,7.96,9.85-1.3,17.37-6.28,22.62-15,5.28-8.8,6.19-17.87,2.74-27.14-3.4-9.23-10.61-17.15-21.67-23.81"/>
          <polygon class="cls-3" points="3803.53 2930.12 3796.2 2940.88 3711.17 2917.76 3763.87 2988.31 3756.54 2999.06 3690.33 2911.23 3697.66 2900.46 3803.53 2930.12"/>
          <polygon class="cls-3" points="3669.02 2942.04 3751.93 3005.08 3708.58 3062.07 3698.76 3054.62 3734.23 3007.97 3708.84 2988.69 3677.35 3030.14 3667.5 3022.68 3699.04 2981.21 3670.95 2959.85 3635.48 3006.48 3625.67 2999.04 3669.02 2942.04"/>
          <path class="cls-3" d="M3666.26,3031.69c12.47,10.57,19.96,22.02,22.53,34.36,2.38,12.37-.59,23.48-8.95,33.32-6.57,7.76-14.73,12.33-24.48,13.8-9.94,1.46-19.01-.65-27.17-6.39l8.42-9.95c5.33,3.78,11.32,5.2,17.96,4.24,6.57-1.02,12.01-4.1,16.39-9.23,6.07-7.16,7.49-15.75,4.31-25.76-2.9-8.92-8.73-17.08-17.44-24.46-8.54-7.26-17.44-11.49-26.69-12.76-10.23-1.34-18.36,1.51-24.34,8.58-4.97,5.83-7.18,12.01-6.73,18.53.38,6.63,3.4,12.49,9.11,17.6l-8.45,9.94c-8.54-7.24-13.04-15.7-13.51-25.4-.47-9.84,3.07-19.26,10.71-28.23,8.33-9.85,18.75-14.63,31.26-14.37,12.44.36,24.76,5.73,37.06,16.17"/>
          <polygon class="cls-3" points="3571.62 3062.55 3647.08 3134.35 3638.09 3143.8 3606.95 3114.13 3571.03 3151.86 3602.19 3181.52 3593.22 3190.95 3517.76 3119.13 3526.73 3109.71 3562.61 3143.84 3598.51 3106.11 3562.63 3071.98 3571.62 3062.55"/>
          <path class="cls-3" d="M3549.95,3160.83c11.11,11.98,16.91,24.52,17.39,37.64.38,13.04-4.61,24.36-14.99,33.99-10.37,9.61-22.03,13.7-34.88,12.25-13.06-1.46-25.12-8.18-36.23-20.15-10.97-11.82-16.58-24.19-16.92-37.12-.38-12.88,4.59-24.13,14.99-33.75,10.37-9.64,22.01-13.8,34.9-12.51,12.87,1.28,24.79,7.85,35.73,19.65M3540.41,3169.69c-8.54-9.22-17.68-14.52-27.41-15.95-9.66-1.33-18.25,1.5-25.76,8.49-7.47,6.9-10.9,15.22-10.3,24.94.69,9.81,5.3,19.31,13.85,28.53,8.78,9.47,18.03,14.9,27.76,16.33,9.8,1.5,18.44-1.21,25.88-8.12,7.54-6.98,10.92-15.44,10.18-25.32-.69-9.8-5.45-19.44-14.2-28.89"/>
          <polygon class="cls-3" points="3396.13 3192.38 3482.08 3298.25 3471.94 3306.47 3386.02 3200.58 3396.13 3192.38"/>
          <path class="cls-3" d="M3366.44,3250.23l60.55,84.76-35.97,25.69c-6.78,4.85-14.27,6.76-22.46,5.72-8.23-1.13-14.75-5.03-19.53-11.72-2.71-3.81-4.28-7.98-4.66-12.47-.31-4.55.59-8.78,2.71-12.68-5.3.99-10.4.59-15.15-1.18-5.02-1.74-9.04-4.7-12.04-8.87-4.9-6.89-6.21-14.59-3.88-23.14,2.21-8.3,7.02-15.11,14.46-20.42l35.97-25.71ZM3362.61,3267.29l-25.36,18.13c-4.57,3.26-7.59,7.36-9.09,12.36-1.43,5.27-.67,9.96,2.33,14.14,3.05,4.28,7.33,6.62,12.82,7.04,5.33.42,10.3-1.02,14.82-4.27l25.38-18.12-20.91-29.29ZM3390.3,3306.04l-25.38,18.13c-3.9,2.78-6.38,6.4-7.45,10.82-1.12,4.47-.4,8.54,2.21,12.18,2.78,3.92,6.59,6.29,11.37,7.09,4.81.83,9.18-.19,13.18-3.06l25.38-18.12-19.32-27.05Z"/>
          <path class="cls-3" d="M3331.3,3339.47c8.68,13.83,12.04,27.24,10.04,40.21-2.05,12.87-9.04,23.08-21.05,30.59-12.01,7.52-24.17,9.37-36.56,5.52-12.54-3.85-23.15-12.7-31.83-26.55-8.54-13.63-11.75-26.85-9.66-39.63,2-12.73,9.02-22.84,21.01-30.35,12.01-7.52,24.19-9.44,36.61-5.76,12.42,3.66,22.91,12.32,31.45,25.98M3320.26,3346.37c-6.66-10.63-14.66-17.56-23.93-20.77-9.23-3.12-18.2-1.94-26.91,3.52-8.61,5.4-13.54,12.93-14.75,22.6-1.16,9.75,1.59,19.96,8.26,30.62,6.88,10.92,14.94,17.98,24.24,21.21,9.33,3.3,18.32,2.25,26.93-3.15,8.71-5.45,13.63-13.12,14.73-22.97,1.14-9.77-1.69-20.11-8.56-31.06"/>
          <polygon class="cls-3" points="3219.84 3347.75 3268.95 3439.6 3254.6 3447.28 3187.2 3390.25 3197.17 3477.97 3182.83 3485.64 3133.73 3393.78 3145.22 3387.64 3182.04 3456.54 3172.83 3372.86 3180.85 3368.56 3245.2 3422.78 3208.35 3353.88 3219.84 3347.75"/>
          <path class="cls-3" d="M3098.97,3410.11l9.59,109.12-15.44,6.58-72.04-82.55,11.99-5.1,21.84,24.59,34.69-14.75-2.62-32.8,11.99-5.09ZM3090.69,3460.2l-27.76,11.8,31.52,35.55-3.76-47.35Z"/>
          <path class="cls-3" d="M3019.53,3443.67l35.61,97.9-40.25,14.63c-9.35,3.4-17.75,3.49-25.27.26-7.45-3.13-12.75-9.04-15.92-17.72-3.21-8.8-2.97-16.84.69-24.15,3.66-7.28,10.18-12.63,19.51-16.02l28.02-10.21-14.65-40.24,12.25-4.45ZM3025.91,3499.31l-28,10.19c-5.59,2.03-9.52,5.29-11.75,9.79-2.09,4.57-2.19,9.56-.21,14.99,1.93,5.29,5.16,8.97,9.66,11.02,4.61,1.99,9.73,1.97,15.3-.05l28.02-10.19-13.01-35.74Z"/>
          <polygon class="cls-3" points="2945.19 3470.37 2975.64 3569.99 2907.17 3590.93 2903.56 3579.14 2959.58 3562 2950.28 3531.52 2900.47 3546.75 2896.85 3534.95 2946.67 3519.72 2936.34 3485.99 2880.32 3503.09 2876.7 3491.32 2945.19 3470.37"/>
          <polygon class="cls-3" points="2903.63 3579.8 2906.48 3591.12 2830.71 3610.2 2827.86 3598.9 2859.59 3590.9 2837.02 3501.19 2849.63 3498.02 2872.25 3587.73 2903.63 3579.8"/>
          <rect class="cls-3" x="2800.8" y="3509.46" width="13.02" height="104.16" transform="translate(-692.44 677.57) rotate(-12.26)"/>
          <polygon class="cls-3" points="2805.09 3603.84 2807.21 3615.31 2730.37 3629.42 2728.25 3617.98 2760.44 3612.06 2743.69 3521.07 2756.49 3518.7 2773.24 3609.7 2805.09 3603.84"/>
          <polygon class="cls-3" points="2709.67 3527.12 2723.4 3630.37 2652.39 3639.8 2650.77 3627.56 2708.84 3619.85 2704.68 3588.27 2653.03 3595.12 2651.41 3582.91 2703.03 3576.03 2698.4 3541.06 2640.3 3548.77 2638.68 3536.54 2709.67 3527.12"/>
          <path class="cls-3" d="M2635.19,3536.38l1.17,11.6-11.61,1.15-1.14-11.59,11.59-1.17ZM2634.02,3562.66l8.9,51.46,2.57,25.93-11.59,1.14-2.57-25.91-1.4-52.22,4.09-.4Z"/>
          <polygon class="cls-3" points="2574.09 3514.66 2581.97 3650.81 2568.98 3651.57 2561.08 3515.39 2574.09 3514.66"/>
          <path class="cls-3" d="M2524.13,3620.58l-.02,7.54-94.49-.42.02-7.54,94.49.42ZM2518.97,3613.84l-3.5-.02c-2.47-17.6-7.54-31.57-15.18-41.89-7.64-10.3-16.96-15.49-28-15.53-8.45-.05-15.3,2.81-20.58,8.53-5.28,5.72-7.92,12.22-7.97,19.5-.02,4.14.81,7.73,2.45,10.78,1.95-5.82,5.26-10.49,9.92-14.01,4.66-3.55,10.06-5.28,16.23-5.26,6.18.01,11.37,2.25,15.56,6.67,4.16,4.4,6.23,9.64,6.23,15.64-.02,4.8-1.4,8.66-4.14,11.56-2.74,2.91-6.23,4.35-10.56,4.34-4-.01-7.14-1.11-9.44-3.28-2.28-2.15-3.45-4.96-3.43-8.37.02-2.85,1-5.32,2.97-7.35,1.95-2.03,4.43-3.04,7.45-3.03,2.97.02,5.3.93,6.99,2.74,1.71,1.8,2.69,2.69,2.95,2.69,1.21.02,1.83-1.09,1.83-3.35,0-3.32-1.21-6.11-3.66-8.4-2.47-2.28-5.76-3.43-9.9-3.44-6.19-.04-11.13,2.45-14.84,7.44-3.69,5-5.57,11.25-5.59,18.79-.02,1.12.02,2.24.09,3.31-10.49-8.16-15.73-18.56-15.68-31.19.05-10.54,3.02-19.22,8.92-26.05,5.88-6.83,13.44-10.21,22.7-10.18,13.82.07,25.1,7.78,33.85,23.17,8.78,15.37,13.54,30.77,14.32,46.22"/>
          <path class="cls-3" d="M2327.06,3620.51l-.86,11.43-2.69-.21-2.64-11.68-16.06-1.18.57-7.52,13.7,1.01,5.64-76.02,3.5.26,4.43,8.29-5.04,68.1,12.56.94-.55,7.52-12.56-.94ZM2357.46,3582.93c.19-2.51,1.24-4.57,3.14-6.21,1.88-1.64,4.09-2.38,6.59-2.19,2.57.19,4.66,1.24,6.33,3.14,1.66,1.9,2.4,4.1,2.21,6.61-.19,2.5-1.24,4.57-3.16,6.21-1.93,1.64-4.16,2.36-6.71,2.17-2.5-.19-4.59-1.22-6.21-3.12-1.64-1.9-2.38-4.12-2.19-6.61M2389.82,3617.59l11.28.86c6.69-3.92,12.35-9.88,16.99-17.89,4.64-8.02,7.3-16.44,7.95-25.3.31-4.08-.07-8.01-1.14-11.78-1.07-3.77-2.4-5.72-3.97-5.83-.93-.08-1.67.68-2.17,2.19-1.81,4.94-4.95,7.22-9.44,6.89-2.76-.21-5.04-1.45-6.88-3.69-1.81-2.26-2.59-5.14-2.33-8.61.29-3.73,1.52-6.64,3.73-8.71,2.19-2.09,4.71-3.03,7.59-2.82,6.3.46,11.2,4.48,14.68,12.1,3.45,7.59,4.85,15.96,4.16,25.09-1.17,15.95-6.31,29.06-15.39,39.38l19.86,1.47-.55,7.52-44.94-3.33.57-7.54Z"/>
          <path class="cls-3" d="M2309,3611.18l-1.09,7.47-100.61-14.9,1.12-7.47,42.63,6.3c-.26-4.4-1.81-8.09-4.61-11.09-2.83-3.01-6.21-4.82-10.16-5.38-1.07-.17-2.66-.17-4.73,0-2.09.17-4.71.5-7.8.97l-5.14-12.61c6.14-3.16,11.01-7.45,14.65-12.8,3.62-5.35,6-11.81,7.11-19.36,1.21-8.21.83-15.92-1.12-23.11l3.52-.7c2.97,8.84,3.52,19.7,1.62,32.59-.5,3.28-1.64,7.38-3.47,12.23-1.86,4.9-3.76,8.9-5.78,12.06,5.71,1.88,10.25,5.16,13.66,9.81,3.4,4.65,5.64,10.67,6.73,18.04,4.43-.44,9.35-2.93,14.82-7.49,5.47-4.58,8.56-9.28,9.28-14.13.62-4.21-.83-6.57-4.4-7.09-2.43-.38-5.19.55-8.25,2.77-3.09,2.22-5.47,5.07-7.19,8.54-3.45-2.69-6.02-6.35-7.73-10.98-1.67-4.63-2.12-9.75-1.28-15.35,1.14-7.68,4.23-13.68,9.32-17.96,5.09-4.28,11.21-5.88,18.37-4.83,4.21.62,7.9,2.22,11.01,4.77,3.14,2.56,6.09,6.66,8.83,12.34,2.76,5.66,4.83,12.7,6.28,21.08,1.43,8.4,2.05,18.23,1.81,29.55l-3.57-.31c.21-17.22-1.81-30.47-6.04-39.7-4.23-9.25-10.71-14.54-19.41-15.82-5.38-.81-10.23.55-14.54,4-4.33,3.47-6.9,7.85-7.68,13.13-.4,2.76-.05,5.31,1.05,7.65,2.52-2.36,5.09-4.01,7.66-5.01,2.57-.96,5.19-1.26,7.85-.87,4.61.68,8.28,3.1,10.97,7.28,2.71,4.16,3.69,8.79,2.93,13.85-.5,3.28-1.71,6.36-3.66,9.27-1.95,2.88-4.66,5.58-8.11,8.04l35.19,5.22Z"/>
          <path class="cls-3" d="M2174.78,3589.83l-1.76,7.3-105.49-25.62,1.76-7.3,41.04,9.95,1.78-7.32c-9.61-1.87-17.06-5.76-22.29-11.66-5.23-5.89-6.97-12.6-5.14-20.09,1.21-4.97,3.5-8.71,6.85-11.23,3.35-2.52,7.06-3.27,11.13-2.28,2.93.71,5.12,2.2,6.59,4.47,1.48,2.28,1.85,4.88,1.14,7.8-.79,3.31-2.17,5.63-4.12,6.92-1.95,1.31-4.5,1.59-7.59.83-2.71-.64-4.57-2.2-5.61-4.61-.88-2.44-1.67-3.73-2.38-3.91-1-.23-1.81.99-2.47,3.69-1.07,4.38.24,8.33,3.95,11.88,3.69,3.56,9.21,6.22,16.58,8.02,2.02.48,3.88.76,5.64.81l13.92-57.38,2.95.71c4.35,12.32,10.75,22.31,19.22,29.95,8.49,7.65,16.84,12.23,25.05,13.72l1.57,13.06-56.31,10.03-2.09,8.63,56.07,13.63ZM2133.82,3514.11l-10.47,42.98,38.11-5.99c-5.45-3.94-10.47-9-15.08-15.15-4.61-6.16-8.8-13.43-12.56-21.83"/>
          <path class="cls-3" d="M2074.27,3565.15l-2.21,7.2-79.27-24.3,2.24-7.22,13.13,4.04,22.36-72.88,2.9.89c3.21,11.23,8.59,21.1,16.11,29.67,7.52,8.54,15.84,14.23,24.98,17.03,1.12.35,2.21.62,3.26.86l.48,13.39-60.69,9.83-1.17,3.73,57.88,17.76ZM2035.3,3485.78l-14.68,47.77,43.65-7.04c-6.23-3.83-11.92-9.42-17.08-16.79-5.19-7.35-9.16-15.33-11.9-23.93M2071.8,3491.7c-.74,2.4-2.21,4.19-4.43,5.35-2.21,1.19-4.52,1.4-6.95.67-2.33-.74-4.11-2.21-5.3-4.43-1.21-2.21-1.45-4.52-.71-6.92.76-2.42,2.24-4.23,4.5-5.44,2.24-1.2,4.54-1.45,6.92-.72,2.4.74,4.19,2.24,5.35,4.47,1.17,2.21,1.36,4.57.62,7.02"/>
          <path class="cls-3" d="M2047.08,3461.22l-2.5,4.35-3.31-1.09c-.09-.79.93-3,3.04-6.64-4.28-4.51-8.54-11.87-12.8-22.14l3.35-1.58c4.31,8.9,8.52,15.34,12.68,19.32,6.83-6.16,14.16-7.92,22.01-5.33,4.04,1.33,7.04,3.4,9.04,6.21,1.98,2.78,2.45,5.78,1.38,8.97-1.05,3.15-3.38,5.38-6.97,6.69-3.62,1.32-7.52,1.27-11.75-.14-3.78-1.25-8.52-4.12-14.18-8.61M2051,3456.49c2.31,2.07,5.26,3.7,8.83,4.93l.31.11c2.38.8,4.52.94,6.45.44,1.93-.5,3.14-1.52,3.66-3.12,1.02-3.12-.62-5.39-4.97-6.82-2.38-.8-4.92-.77-7.59.11-2.69.86-4.9,2.32-6.69,4.35"/>
          <path class="cls-3" d="M1940.88,3521.11l25.72-71.76,2.85,1.02,2.54,9.49-5.57,15.53c-4.95,13.82-6.35,25.65-4.14,35.49,2.19,9.85,7.59,16.32,16.22,19.41,5.5,1.96,10.49,1.97,14.99.07,4.5-1.92,7.61-5.23,9.3-9.97,1.31-3.69,1.31-7.4-.05-11.18-1.33-3.77-3-6.01-4.97-6.72-.74-.25-1.24.01-1.52.82-.12.3-.24.9-.45,1.84-.17.99-.33,1.71-.5,2.18-1,2.79-2.69,4.79-5.09,6.02-2.38,1.2-5.16,1.24-8.33.12-3.33-1.2-5.64-3.22-6.92-6.09-1.26-2.85-1.33-5.82-.26-8.86,1.45-4.01,3.88-6.74,7.26-8.21,3.38-1.46,7.19-1.41,11.4.08,6.38,2.28,10.59,6.9,12.75,13.87,2.14,6.97,1.9,14.13-.71,21.48-2.47,6.9-6.38,11.85-11.75,14.87-5.33,3.02-10.99,3.45-16.94,1.33-6.83-2.45-11.7-7.49-14.66-15.12-2.97-7.65-4-17.88-3.04-30.72l-12.56,35.01-21.03-7.53,2.55-7.11,12.92,4.63Z"/>
          <polygon class="cls-3" points="1896.68 3391.07 1840.01 3515.12 1828.16 3509.71 1884.83 3385.67 1896.68 3391.07"/>
          <path class="cls-3" d="M1717.61,3366.58c-8.3,23.02-5.97,44.21,5.33,62.28l-8.92,3.59c-12.44-19.19-15.75-43.74-6.9-68.03l10.49,2.15ZM1766.69,3467.08c.83-.96,2.57-.94,4.33-.14,6.47-8.26,13.32-18.65,18.94-28.81,2.45-4.47,4.62-8.97,6.52-12.97,9.9-21.36,8.44-38.4-.93-43.44-4.83-2.66-17.91,6.19-29.76,17.32-.76-2.62-2.76-6.73-4.14-9.06,14.58-13.25,28.95-22.67,39.11-17.37,15.46,8.24,15.82,32.73,4.69,56.88-2.17,4.78-4.85,9.92-7.88,15.37-5.85,10.63-12.89,21.91-19.77,31.52l-11.11-9.3Z"/>
          <path class="cls-3" d="M1631.35,3342.85c-14.34-4.14-32.23-12.66-45.51-22.06l5.21-7.8c12.73,9.04,28.95,17.28,43.11,21.46l-2.81,8.41ZM1602.99,3354.38c12.04,3.1,26.45,9.62,39.56,17.08,22.41-23,46.91-44.44,69.01-57.52l6.16,8.61c-21.77,12.16-44.56,31.26-66.47,54.26,2.38,1.41,17.79,11.61,21.12,14.04l-5.09,7.87c-1.76-1.36-4.16-2.97-6.8-4.73-1.02-.7-12.49-8.39-15.54-10.28-6.07,6.59-12.61,13.82-17.98,20.34l-11.01-9.05c.95-1.19,3.19-1.02,4.85-.06,4.07-4.59,9.37-10,15.08-16.3-11.92-6.51-24.55-12.17-36.37-15.11l3.47-9.16ZM1623.71,3257.64c3.52,2.2,7.14,4.46,10.7,6.84,10.75,7.23,20.44,14.87,25.46,20.74,6.59,7.76,7.3,16.87,2.09,24.35-3.47,4.97-9.49,9.24-18.22,11.85l-4.9-7.6c7.18-2,12.13-5.16,14.51-8.72,6.07-9.05-1.09-17.19-21.96-31.18-4.23-2.86-8.66-5.66-13.13-8.16l5.45-8.12Z"/>
          <path class="cls-3" d="M1455.42,3280.67c-2.14-8.1-3.62-19.22-3.09-26.42l6.76-.21c-.38,6.61.64,18.25,2.55,26.17l-6.21.46ZM1474.96,3284.8c-2.14-8.11-3.4-19.44-3.09-26.62l6.73-.23c-.62,7.11.76,19.23,2.59,26.37l-6.23.47ZM1523.89,3262.88c-13.89-5.39-30.93-15.45-43.3-26l5.9-7.28c11.85,10.1,27.26,19.75,40.94,25.17l-3.55,8.11ZM1494.68,3271.83c11.68,4.16,25.43,11.92,37.8,20.51,24.36-20.88,50.65-40.02,73.79-51.08l5.38,9.15c-22.74,10.12-47.13,27.09-70.99,48.04,2.24,1.62,16.68,13.13,19.82,15.83l-5.81,7.39c-1.62-1.5-3.85-3.32-6.33-5.33-.95-.77-11.68-9.45-14.56-11.59-6.61,5.98-13.75,12.62-19.67,18.63l-10.18-9.99c1.07-1.09,3.26-.74,4.85.36,4.45-4.19,10.21-9.11,16.44-14.86-11.25-7.53-23.36-14.29-34.83-18.28l4.28-8.78ZM1523.37,3177.89c4.43,3.06,9.11,6.49,13.51,10.04,8.66,7.02,16.51,14.63,20.55,20.19,5.85,8.29,5.73,17.41-.09,24.4-3.9,4.63-10.28,8.33-19.2,10.16l-4.19-7.99c7.3-1.34,12.51-4.07,15.2-7.39,6.85-8.45.26-16.97-17.18-31.11-4.73-3.81-9.85-7.59-14.46-10.62l5.85-7.67Z"/>
          <path class="cls-3" d="M1384.58,3145.22c11.92,5.52,24.58,14.04,35.95,22.68,2.07-8.34,3.16-21.62-1.4-31.37l9.42-1.86c.71,2.05,2.17,5.71,2.9,8.52,1.43,2.89,5.61,8.28,10.3,12.77,1.4,1.33,2.88,2.56,4.26,3.69l-3.85,6.83c-3.57-3.04-8.23-7.95-10.75-11.1-.07,5.46-1,12.79-2.93,18.78,7.33,5.7,14.96,12.47,27.6,24.6,4.88,4.67,10.35,9.93,14.73,14.32l-5.92,6.36c-4.38-4.39-10.06-10.03-15.01-14.81-8.16-7.84-16.22-15.56-24.93-22.6-1.88,4.13-5.71,11.32-8.83,16.94,4.35,3.43,9.02,7.52,13.11,11.43,5.35,5.17,12.23,11.76,16.7,16.44l-5.9,6.16c-5.71-6.02-12.25-12.31-16.53-16.43-3.59-3.43-7.85-7.15-11.92-10.49-3.5,5.45-7.76,11.85-12.3,18.2l-10.16-9.94c1.14-1.19,2.71-1.03,4.81.39,3.5-4.85,7.18-10.09,10.13-14.74-10.23-8.06-22.17-15.72-32.21-19.82l4.23-7.78c9.85,4.28,21.51,11.85,32.5,20.29,3.76-6.49,6.97-12.42,8.73-16.65-11.59-9.03-25.22-17.72-37.33-23.22l4.61-7.61ZM1452.59,3109.44c5.88,4.85,12.61,10.94,22.46,20.4,16.01,15.57,23.57,32.77,12.58,43.82-5.73,5.77-16.94,7.08-26.81,4.44l-.07-8.87c8.71,2.45,16.08,1.53,19.72-2.26,6.78-7.05,1-18.53-11.54-30.76-7.47-7.17-15.7-14.3-22.93-20.31l6.59-6.46Z"/>
          <path class="cls-3" d="M1352.46,3152.08c-5.23-6.78-12.82-15.39-19.03-22.42-4.09-4.67-8.85-9.85-12.8-14.12-4.88,4.48-10.59,9.71-14.23,12.91l-8.71-10.91c1.36-1,2.78-.61,4.66.88,1.74-1.36,9.61-8.51,11.37-10.06-11.3-11.56-22.93-22.65-34.35-30.82l6.02-6.95c11.23,8.12,22.86,19.23,35.07,31.84,6.11-5.59,12.47-11.35,18.7-17.22-9.49-9.49-20.32-19.08-29.78-25.65l5.99-6.76c9.54,7.07,20.36,16.82,30,26.74l16.58-16.09c-5.31-12.26-8.85-27.16-10.7-44.69l10.35-1.01c.88,15.8,3.66,28.99,7.42,39.1,1.66-1.45,3.43-3.21,4.78-4.38,9.92-8.59,20.84-7.7,31.88,4.83,11.59,13.16,14.7,27.52,4.97,36.11-9.94,8.78-25.38,2.32-35.61-9.28-3.02-3.42-5.9-7.3-8.35-11.97-4.35,4.02-9.56,8.98-15.08,14.01,3.05,3.24,6.42,6.85,9.09,9.87,15.61,17.7,17.2,25.15,11.18,30.45-3.93,3.45-9.78,3.3-19.89.41l-1.16-7.8c6.71,2.38,11.16,2.85,13.25,1.02,3.09-2.73-.57-8.16-12.16-21.31-2.02-2.27-4.12-4.65-6.23-6.85l-18.6,17.52c4.14,4.3,8.68,9.46,12.82,14.12,5.83,6.62,14.13,16.06,19.41,22.44l-6.85,6.03ZM1372.64,3066.18c2.52,5.14,5.38,9.43,8.59,13.05,6.92,7.87,17.18,13.03,23.39,7.54,6.11-5.39,2.71-15.28-5.23-24.29-7.21-8.18-13.56-8.09-20.82-1.7l-5.92,5.4Z"/>
          <path class="cls-3" d="M1233.66,3006.29c-2.35,1.92-14.16,11.2-16.75,13.48l-8.02-11.72c.97-.55,2.64-.59,4.45,1.14,1.33-.97,2.66-1.95,14.11-10.81-10.54-13.26-21.48-27.28-27.74-35.48l7.64-5.66c6.76,9.54,16.89,22.77,27.12,35.59,8.47-6.64,16.25-12.76,22.08-17.6,2.83-3.83,5.99-6.52,10.63-9.94,3.55-2.64,7.87-5.35,11.54-6.88,15.08-6.73,33.5-5.69,55.72,8.02-.83,2.83-1.79,7.33-2.12,10.31-18.65-12.38-34.57-14.64-47.13-9.6l.09.11c5.04-.13,10.63,2.07,14.32,7.04,7.33,9.84,5.71,24.56-5.54,32.94-11.63,8.83-27.67,5.97-35.45-4.53-2.97-3.98-4.59-9.15-4.21-12.82-1.9,1.39-9.14,7.12-13.73,10.86,8.78,11.32,35.95,45.37,39.51,49.72l-7.11,5.65-19.39-24.71-20.03-25.1ZM1270.91,2975.36c-4.33,3.21-14.39,10.68-5.99,21.96,5.76,7.53,15.65,8.61,23.79,2.71,7.76-5.74,8.47-15.39,3.71-21.79-5.83-7.85-15.11-7.64-21.51-2.88"/>
          <polygon class="cls-3" points="1254.92 2821.77 1137.69 2891.47 1131.03 2880.28 1248.26 2810.6 1254.92 2821.77"/>
          <path class="cls-3" d="M1157.51,2811.62c-14.54,7.45-28.05,9.87-40.54,7.28-12.44-2.74-21.7-10.05-27.81-21.95-4.52-8.85-5.78-18.07-3.76-27.69,2.09-9.68,7.09-17.51,14.94-23.44l7.14,10.97c-5.35,4.04-8.78,9.37-10.25,16.03-1.5,6.54-.74,12.82,2.33,18.83,4.31,8.43,11.21,13.38,20.67,14.81,9.42,1.61,19.87-.55,31.36-6.42,11.18-5.72,18.87-12.87,23.1-21.45,4.14-8.41,4.07-16.83-.26-25.28-3.95-7.73-9.75-12.58-17.46-14.56-7.57-2.01-15.72-.79-24.48,3.7l13.13,25.61-11.44,5.88-19.05-37.23,47.27-24.19,4.23,8.23-9.06,6.76c5.78.76,11.11,3.03,16.01,6.82,4.69,3.63,8.42,8.18,11.23,13.68,6.09,11.91,6.66,23.67,1.71,35.32-5,11.54-14.66,20.98-29,28.31"/>
          <path class="cls-3" d="M1134.29,2719.79l-66.8,29.39-5.23-11.92,66.8-29.41c5.64-2.49,9.21-6.98,10.73-13.51,1.31-6.08.57-12.29-2.24-18.66-2.81-6.38-6.9-11.13-12.28-14.26-5.81-3.3-11.56-3.71-17.2-1.24l-66.8,29.39-5.23-11.92,66.8-29.38c8.68-3.81,17.44-3.31,26.31,1.51,8.47,4.51,14.82,11.57,19.06,21.21,4.23,9.61,5.14,19.07,2.76,28.36-2.43,9.8-7.99,16.62-16.68,20.44"/>
          <polygon class="cls-3" points="1044.81 2668.36 1033.92 2672.49 1006.3 2599.41 1017.19 2595.29 1028.78 2625.89 1115.3 2593.18 1119.89 2605.37 1033.37 2638.07 1044.81 2668.36"/>
          <polygon class="cls-3" points="1103.26 2560.74 1004.11 2592.66 982.17 2524.48 993.9 2520.69 1011.86 2576.48 1042.2 2566.72 1026.23 2517.13 1037.99 2513.37 1053.95 2562.94 1087.54 2552.13 1069.6 2496.35 1081.33 2492.57 1103.26 2560.74"/>
          <polygon class="cls-3" points="1080.5 2489.61 979.72 2516.01 976.42 2503.4 1042.6 2432.23 963.21 2453.02 959.93 2440.43 1060.7 2414.04 1063.99 2426.64 997.97 2497.76 1077.19 2477.02 1080.5 2489.61"/>
          <path class="cls-3" d="M1052.28,2376.2l-108.48-15.34-2.93-16.53,96.7-51.48,2.26,12.83-28.9,15.7,6.57,37.11,32.5,4.89,2.28,12.82ZM1005.37,2356.79l-5.23-29.7-41.77,22.67,47.01,7.03Z"/>
          <path class="cls-3" d="M1037.49,2290.79l-103.41,12.56-5.16-42.54c-1.19-9.85.62-18.06,5.47-24.64,4.73-6.55,11.68-10.4,20.86-11.5,9.3-1.14,17.1.92,23.36,6.13,6.26,5.22,10.02,12.78,11.2,22.64l3.57,29.59,42.54-5.15,1.57,12.91ZM981.82,2284.44l-3.57-29.59c-.71-5.9-3-10.44-6.88-13.66-3.97-3.08-8.83-4.28-14.53-3.59-5.61.69-9.94,2.99-12.94,6.92-3,4.04-4.14,9.02-3.43,14.92l3.59,29.59,37.75-4.59Z"/>
          <path class="cls-3" d="M1028.21,2212.24l-103.91,6.96-2.88-42.73c-.67-9.93,1.59-18.02,6.78-24.32,5.09-6.3,12.23-9.75,21.46-10.37,9.35-.62,17.01,1.84,23.01,7.38,5.97,5.57,9.3,13.3,9.97,23.22l2,29.74,42.7-2.85.88,12.99ZM972.99,2202.89l-2-29.75c-.41-5.91-2.45-10.6-6.14-14.01-3.81-3.29-8.59-4.75-14.35-4.37-5.61.38-10.04,2.46-13.25,6.21-3.21,3.88-4.59,8.79-4.21,14.7l2,29.76,37.95-2.54Z"/>
          <polygon class="cls-3" points="1023.24 2133.21 919.08 2134.69 918.06 2063.1 930.38 2062.91 931.24 2121.5 963.12 2121.04 962.36 2068.96 974.68 2068.78 975.44 2120.86 1010.72 2120.36 1009.89 2061.76 1022.21 2061.6 1023.24 2133.21"/>
          <polygon class="cls-3" points="929.69 2063.57 918.06 2063.17 920.82 1985.09 932.48 1985.48 931.31 2018.19 1023.76 2021.47 1023.31 2034.48 930.84 2031.21 929.69 2063.57"/>
          <polygon class="cls-3" points="1025.59 1986.35 921.68 1979.25 922.56 1966.25 1026.49 1973.37 1025.59 1986.35"/>
          <polygon class="cls-3" points="934.07 1961.87 922.49 1960.69 930.36 1882.96 941.95 1884.14 938.66 1916.71 1030.71 1926.04 1029.4 1938.99 937.33 1929.66 934.07 1961.87"/>
          <path class="cls-3" d="M1009.48,1884.15l-52.12-3.2-25.81-3.45,1.55-11.55,25.81,3.46,51.12,10.67-.55,4.07ZM1034.77,1891.36l-11.51-1.56,1.55-11.54,11.54,1.53-1.57,11.56Z"/>
        </g>
      </g>
    </g>
    <rect class="cls-1" width="5000" height="5000"/>
  </g>
</svg>