<?xml version="1.0" standalone="no"?>
<!DOCTYPE svg PUBLIC "-//W3C//DTD SVG 20010904//EN"
 "http://www.w3.org/TR/2001/REC-SVG-20010904/DTD/svg10.dtd">
<svg version="1.0" xmlns="http://www.w3.org/2000/svg"
 width="100.000000pt" height="100.000000pt" viewBox="0 0 100.000000 100.000000"
 preserveAspectRatio="xMidYMid meet">
<metadata>
Created by potrace 1.14, written by Peter Selinger 2001-2017
</metadata>
<g transform="translate(0.000000,100.000000) scale(0.100000,-0.100000)"
fill="#000000" stroke="none">
<path d="M730 912 c-104 -31 -228 -131 -270 -218 -27 -54 -39 -188 -18 -200
11 -7 138 121 165 167 26 44 35 34 13 -15 -43 -101 -118 -199 -196 -257 -30
-22 -54 -46 -54 -55 0 -12 4 -11 21 4 11 11 61 36 110 57 49 20 115 56 147 79
107 79 151 207 123 358 -15 75 -21 87 -41 80z"/>
<path d="M10 555 c-16 -19 -9 -45 15 -59 28 -15 32 -23 39 -70 16 -95 100
-214 194 -275 27 -17 51 -31 53 -31 2 0 4 30 5 68 0 75 30 153 78 207 37 42
30 97 -19 143 l-35 32 -159 0 c-126 0 -161 -3 -171 -15z"/>
<path d="M731 520 c-44 -65 -113 -115 -207 -150 -142 -53 -186 -103 -179 -203
5 -60 11 -67 67 -78 229 -44 456 96 518 321 7 25 13 51 13 58 0 8 11 18 24 23
30 11 38 31 23 58 -10 19 -19 21 -118 21 l-107 -1 -34 -49z"/>
</g>
</svg>
