<svg width="34" height="24" viewBox="0 0 34 24" fill="none" xmlns="http://www.w3.org/2000/svg">
<mask id="path-1-outside-1_2098_18586" maskUnits="userSpaceOnUse" x="-2" y="-2" width="38" height="27" fill="black">
<rect fill="white" x="-2" y="-2" width="38" height="27"/>
<path d="M6.73438 1.17188C6.95312 1.20312 7.23438 1.23438 7.57812 1.26562C7.92188 1.29688 8.15625 1.32292 8.28125 1.34375C8.40625 1.36458 8.58854 1.41146 8.82812 1.48438C9.06771 1.54688 9.29688 1.64583 9.51562 1.78125C9.74479 1.90625 10.026 2.08333 10.3594 2.3125C11.9531 3.40625 13.1979 4.83854 14.0938 6.60938C14.9896 8.38021 15.4531 10.3125 15.4844 12.4062C15.5156 14.8646 14.8021 17.1094 13.3438 19.1406C11.8854 21.1719 10.1094 22.401 8.01562 22.8281C6.89062 23.0573 5.88021 23.0521 4.98438 22.8125C4.08854 22.5729 3.35417 22.1562 2.78125 21.5625C2.21875 20.9688 1.75 20.2396 1.375 19.375C1 18.5104 0.744792 17.5677 0.609375 16.5469C0.473958 15.5156 0.411458 14.4531 0.421875 13.3594C0.432292 12.2552 0.520833 11.1719 0.6875 10.1094C0.864583 9.04688 1.09375 8.04688 1.375 7.10938C1.65625 6.16146 1.97396 5.33854 2.32812 4.64062C2.51562 4.27604 2.73438 3.89583 2.98438 3.5C3.23438 3.10417 3.53125 2.68229 3.875 2.23438C4.21875 1.78646 4.58854 1.41146 4.98438 1.10938C5.39062 0.807292 5.77604 0.635417 6.14062 0.59375C6.32812 0.572917 6.48438 0.619792 6.60938 0.734375C6.73438 0.848958 6.77604 0.994792 6.73438 1.17188ZM5.75 12.8906C5.39583 15.099 5.59896 16.6562 6.35938 17.5625C6.86979 18.1771 7.50521 18.349 8.26562 18.0781C9.03646 17.7969 9.67188 17.1458 10.1719 16.125C10.974 14.5208 11.1615 12.5625 10.7344 10.25C10.4427 8.64583 9.98438 7.51042 9.35938 6.84375C8.70312 6.14583 8.06771 6.24479 7.45312 7.14062C6.76562 8.15104 6.19792 10.0677 5.75 12.8906ZM28.29 5.90625C28.2483 5.92708 28.1129 6.13542 27.8838 6.53125C27.6546 6.92708 27.5296 7.13542 27.5088 7.15625C27.0921 7.60417 26.639 7.80208 26.1494 7.75C25.6702 7.69792 25.2327 7.53125 24.8369 7.25C24.441 6.95833 24.1702 6.65104 24.0244 6.32812C23.7848 5.78646 24.139 5.03646 25.0869 4.07812C26.0348 3.10938 27.139 2.27083 28.3994 1.5625C29.6598 0.854167 30.5817 0.536458 31.165 0.609375C31.6858 0.671875 32.1077 1.02083 32.4306 1.65625C32.7535 2.29167 32.9775 3.11458 33.1025 4.125C33.2275 5.13542 33.3056 6.25 33.3369 7.46875C33.3681 8.67708 33.3577 9.9375 33.3056 11.25C33.264 12.5625 33.2171 13.7969 33.165 14.9531C33.1233 16.099 33.1025 17.1615 33.1025 18.1406C33.1129 19.1094 33.165 19.8177 33.2588 20.2656C33.1442 21.599 32.6233 22.4479 31.6963 22.8125C30.9775 23.1042 30.2379 23.0469 29.4775 22.6406C28.7796 22.276 28.3629 21.7656 28.2275 21.1094C28.2067 21.0052 28.1963 20.901 28.1963 20.7969C28.1546 19.0156 28.165 16.4531 28.2275 13.1094C28.29 9.75521 28.3108 7.35417 28.29 5.90625Z"/>
</mask>
<path d="M6.73438 1.17188L4.78754 0.713797L4.28667 2.84251L6.45153 3.15177L6.73438 1.17188ZM8.82812 1.48438L8.2458 3.39772L8.28432 3.40945L8.32328 3.41961L8.82812 1.48438ZM9.51562 1.78125L8.46292 3.48178L8.50966 3.51072L8.55792 3.53704L9.51562 1.78125ZM10.3594 2.3125L9.22632 3.96058L9.22769 3.96153L10.3594 2.3125ZM15.4844 12.4062L17.4842 12.3808L17.4842 12.3764L15.4844 12.4062ZM8.01562 22.8281L8.41483 24.7879L8.41535 24.7878L8.01562 22.8281ZM2.78125 21.5625L1.32934 22.938L1.33565 22.9446L1.34201 22.9512L2.78125 21.5625ZM0.609375 16.5469L-1.3736 16.8073L-1.37326 16.8099L0.609375 16.5469ZM0.421875 13.3594L2.42178 13.3784L2.42179 13.3782L0.421875 13.3594ZM0.6875 10.1094L-1.28529 9.78058L-1.28686 9.79L-1.28834 9.79944L0.6875 10.1094ZM1.375 7.10938L3.29066 7.68407L3.29238 7.67827L1.375 7.10938ZM2.32812 4.64062L0.549523 3.72592L0.544626 3.73557L2.32812 4.64062ZM4.98438 1.10938L3.79097 -0.49555L3.78095 -0.488101L3.77103 -0.480528L4.98438 1.10938ZM6.14062 0.59375L5.91976 -1.39403L5.91353 -1.39332L6.14062 0.59375ZM5.75 12.8906L7.72477 13.2073L7.72529 13.204L5.75 12.8906ZM6.35938 17.5625L7.89797 16.2847L7.89148 16.2769L6.35938 17.5625ZM8.26562 18.0781L8.93666 19.9622L8.94392 19.9596L8.95115 19.957L8.26562 18.0781ZM10.1719 16.125L8.38302 15.2306L8.37936 15.2379L8.37575 15.2453L10.1719 16.125ZM10.7344 10.25L8.76663 10.6078L8.76764 10.6132L10.7344 10.25ZM9.35938 6.84375L10.8185 5.47587L10.8164 5.4737L9.35938 6.84375ZM7.45312 7.14062L5.80391 6.00919L5.79959 6.01554L7.45312 7.14062ZM6.45153 3.15177C6.71731 3.18974 7.03586 3.22458 7.39705 3.25741L7.7592 -0.726161C7.43289 -0.755825 7.18894 -0.783493 7.01722 -0.808024L6.45153 3.15177ZM7.39705 3.25741C7.56112 3.27233 7.69144 3.28531 7.79086 3.29636C7.84035 3.30186 7.87906 3.30653 7.90831 3.31035C7.92276 3.31223 7.93375 3.31376 7.94167 3.31491C7.94975 3.31608 7.95308 3.31664 7.95245 3.31654L8.61005 -0.629038C8.40117 -0.663851 8.09597 -0.695546 7.7592 -0.726161L7.39705 3.25741ZM7.95245 3.31654C7.93795 3.31412 7.95439 3.31628 8.01364 3.33152C8.06909 3.34578 8.14544 3.36718 8.2458 3.39772L9.41045 -0.428973C9.1514 -0.507813 8.8679 -0.586062 8.61005 -0.629038L7.95245 3.31654ZM8.32328 3.41961C8.36208 3.42973 8.40736 3.44739 8.46292 3.48178L10.5683 0.0807199C10.1864 -0.155721 9.77333 -0.335982 9.33297 -0.450859L8.32328 3.41961ZM8.55792 3.53704C8.7036 3.6165 8.92248 3.7517 9.22632 3.96058L11.4924 0.664416C11.1296 0.41497 10.786 0.195996 10.4733 0.0254593L8.55792 3.53704ZM9.22769 3.96153C10.537 4.86008 11.5606 6.03263 12.3091 7.51219L15.8784 5.70656C14.8352 3.64445 13.3692 1.95242 11.4911 0.663473L9.22769 3.96153ZM12.3091 7.51219C13.0604 8.99722 13.4576 10.6287 13.4846 12.4361L17.4842 12.3764C17.4486 9.99627 16.9188 7.7632 15.8784 5.70656L12.3091 7.51219ZM13.4845 12.4317C13.5103 14.4551 12.9329 16.2836 11.7191 17.9742L14.9684 20.307C16.6713 17.9352 17.521 15.2741 17.4842 12.3808L13.4845 12.4317ZM11.7191 17.9742C10.5013 19.6705 9.13319 20.559 7.6159 20.8685L8.41535 24.7878C11.0856 24.2431 13.2696 22.6733 14.9684 20.307L11.7191 17.9742ZM7.61642 20.8684C6.72399 21.0502 6.03516 21.0232 5.5011 20.8804L4.46765 24.7446C5.72526 25.0809 7.05726 25.0644 8.41483 24.7879L7.61642 20.8684ZM5.5011 20.8804C4.91185 20.7228 4.51076 20.4746 4.22049 20.1738L1.34201 22.9512C2.19757 23.8379 3.26523 24.423 4.46765 24.7446L5.5011 20.8804ZM4.23316 20.187C3.85355 19.7863 3.50591 19.2618 3.20984 18.5792L-0.459842 20.1708C-0.00590521 21.2174 0.583953 22.1512 1.32934 22.938L4.23316 20.187ZM3.20984 18.5792C2.91502 17.8994 2.70531 17.138 2.59201 16.2839L-1.37326 16.8099C-1.21572 17.9974 -0.915017 19.1214 -0.459842 20.1708L3.20984 18.5792ZM2.59235 16.2865C2.46971 15.3525 2.41221 14.3835 2.42178 13.3784L-1.57803 13.3403C-1.5893 14.5227 -1.52179 15.6788 -1.3736 16.8073L2.59235 16.2865ZM2.42179 13.3782C2.43131 12.369 2.51218 11.383 2.66334 10.4193L-1.28834 9.79944C-1.47051 10.9608 -1.56672 12.1415 -1.57804 13.3405L2.42179 13.3782ZM2.66029 10.4382C2.82488 9.45059 3.03587 8.53333 3.29065 7.68407L-0.540653 6.53468C-0.848375 7.56042 -1.09572 8.64316 -1.28529 9.78058L2.66029 10.4382ZM3.29238 7.67827C3.54777 6.81751 3.82421 6.11205 4.11162 5.54568L0.544626 3.73557C0.123704 4.56503 -0.235273 5.5054 -0.542384 6.54048L3.29238 7.67827ZM4.1067 5.55532C4.26382 5.24982 4.45248 4.92086 4.67535 4.56799L1.2934 2.43201C1.01627 2.8708 0.767434 3.30226 0.549549 3.72593L4.1067 5.55532ZM4.67535 4.56799C4.88707 4.23277 5.14766 3.86111 5.46162 3.45201L2.28838 1.01674C1.91484 1.50347 1.58168 1.97556 1.2934 2.43201L4.67535 4.56799ZM5.46162 3.45201C5.71201 3.12575 5.95948 2.8811 6.19772 2.69928L3.77103 -0.480528C3.21761 -0.0581799 2.72549 0.447171 2.28838 1.01674L5.46162 3.45201ZM6.17778 2.7143C6.28569 2.63406 6.35745 2.59623 6.39269 2.58051C6.42632 2.56551 6.4161 2.57529 6.36772 2.58082L5.91353 -1.39332C5.09055 -1.29926 4.37744 -0.931645 3.79097 -0.49555L6.17778 2.7143ZM6.36149 2.58152C6.22935 2.5962 6.0404 2.59393 5.82374 2.52893C5.60147 2.46225 5.40872 2.34691 5.25793 2.20868L7.96082 -0.739933C7.35953 -1.29112 6.60863 -1.47056 5.91976 -1.39402L6.36149 2.58152ZM5.25793 2.20868C5.08119 2.04667 4.90361 1.80213 4.81133 1.47913C4.7213 1.16404 4.74574 0.89144 4.78754 0.713797L8.68121 1.62995C8.8738 0.81146 8.66532 -0.0941448 7.96082 -0.739933L5.25793 2.20868ZM3.77524 12.5739C3.4038 14.8899 3.47141 17.2322 4.82727 18.8481L7.89148 16.2769C7.72651 16.0803 7.38786 15.308 7.72476 13.2073L3.77524 12.5739ZM4.8208 18.8403C5.28216 19.3958 5.90231 19.8681 6.69653 20.083C7.48881 20.2973 8.26062 20.203 8.93666 19.9622L7.59459 16.1941C7.54959 16.2101 7.54583 16.2055 7.57731 16.2032C7.61197 16.2008 7.67051 16.2027 7.74097 16.2217C7.8116 16.2408 7.8652 16.2694 7.89741 16.2915C7.92698 16.3118 7.92495 16.3172 7.89795 16.2847L4.8208 18.8403ZM8.95115 19.957C10.3685 19.4398 11.3294 18.3085 11.968 17.0047L8.37575 15.2453C8.01433 15.9832 7.70447 16.1539 7.5801 16.1993L8.95115 19.957ZM11.9607 17.0194C13.01 14.9208 13.1826 12.4937 12.7011 9.88677L8.76764 10.6132C9.14033 12.6313 8.93789 14.1208 8.38302 15.2306L11.9607 17.0194ZM12.7021 9.89223C12.3885 8.16757 11.8419 6.56751 10.8184 5.47587L7.9003 8.21163C8.12689 8.45332 8.49688 9.12409 8.76663 10.6078L12.7021 9.89223ZM10.8164 5.4737C10.2701 4.89269 9.33004 4.22412 8.08286 4.41835C6.94544 4.59549 6.21912 5.40399 5.80392 6.0092L9.10233 8.27205C9.18114 8.15717 9.20702 8.14835 9.16338 8.18308C9.11308 8.22311 8.95617 8.33056 8.69839 8.37071C8.42532 8.41324 8.18701 8.35707 8.02973 8.28414C7.89446 8.22142 7.85635 8.16489 7.90234 8.2138L10.8164 5.4737ZM5.79959 6.01554C4.83653 7.43094 4.22289 9.75265 3.77471 12.5772L7.72529 13.204C8.17295 10.3828 8.69472 8.87114 9.10666 8.26571L5.79959 6.01554ZM28.29 5.90625L30.2898 5.87748L30.244 2.69319L27.3956 4.1174L28.29 5.90625ZM27.5088 7.15625L26.0945 5.74204L26.069 5.76759L26.0444 5.79404L27.5088 7.15625ZM26.1494 7.75L25.9333 9.73829L25.9378 9.73878L26.1494 7.75ZM24.8369 7.25L23.6505 8.86011L23.6644 8.87036L23.6785 8.88036L24.8369 7.25ZM24.0244 6.32812L22.1953 7.13714L22.1984 7.14423L22.2016 7.1513L24.0244 6.32812ZM25.0869 4.07812L26.5088 5.48461L26.5164 5.47688L25.0869 4.07812ZM31.165 0.609375L30.9169 2.59396L30.9267 2.59513L31.165 0.609375ZM33.3369 7.46875L31.3375 7.52002L31.3375 7.52046L33.3369 7.46875ZM33.3056 11.25L31.3072 11.1707L31.3069 11.1786L31.3066 11.1865L33.3056 11.25ZM33.165 14.9531L31.167 14.8631L31.1666 14.8718L31.1663 14.8804L33.165 14.9531ZM33.1025 18.1406H31.1025V18.1514L31.1026 18.1621L33.1025 18.1406ZM33.2588 20.2656L35.2514 20.4369L35.2766 20.1438L35.2163 19.8559L33.2588 20.2656ZM31.6963 22.8125L30.9643 20.9513L30.9542 20.9552L30.9442 20.9593L31.6963 22.8125ZM29.4775 22.6406L30.4199 20.8766L30.4118 20.8722L30.4035 20.8679L29.4775 22.6406ZM28.2275 21.1094L26.2663 21.5016L26.2688 21.5136L28.2275 21.1094ZM28.1963 20.7969H30.1963V20.7735L30.1957 20.7501L28.1963 20.7969ZM28.2275 13.1094L30.2272 13.1468L30.2272 13.1466L28.2275 13.1094ZM27.3956 4.1174C27.0696 4.28037 26.8675 4.49585 26.8283 4.53663C26.7513 4.61676 26.6929 4.68979 26.6586 4.73414C26.588 4.8255 26.5261 4.91772 26.4803 4.98815C26.3844 5.1357 26.273 5.32173 26.1529 5.52918L29.6146 7.53332C29.7237 7.34493 29.7946 7.22889 29.8341 7.1681C29.856 7.13437 29.8501 7.14586 29.8237 7.17993C29.8116 7.19563 29.7724 7.24587 29.7116 7.30907C29.6805 7.34142 29.6284 7.39329 29.5578 7.45187C29.4948 7.5041 29.3672 7.60374 29.1844 7.6951L27.3956 4.1174ZM26.1529 5.52918C26.0398 5.72445 25.9575 5.86478 25.9031 5.95538C25.8751 6.00214 25.8608 6.02506 25.8566 6.03172C25.8537 6.03622 25.8619 6.0232 25.8771 6.00123C25.8845 5.9905 25.9014 5.96626 25.9252 5.93525C25.9373 5.91934 25.9559 5.89561 25.9796 5.86736C26.0012 5.84163 26.0408 5.79578 26.0945 5.74204L28.923 8.57046C29.0195 8.47395 29.0851 8.3879 29.1026 8.36505C29.1305 8.3285 29.1525 8.29726 29.1658 8.27807C29.1928 8.23918 29.2159 8.20336 29.2312 8.17922C29.2635 8.12859 29.2987 8.07078 29.3331 8.01337C29.4037 7.89564 29.4985 7.73389 29.6146 7.53332L26.1529 5.52918ZM26.0444 5.79404C25.9797 5.86355 25.9792 5.84132 26.0559 5.80783C26.0948 5.79082 26.1452 5.77479 26.204 5.7657C26.2628 5.7566 26.3167 5.75651 26.3609 5.76122L25.9378 9.73878C27.205 9.87359 28.2432 9.30313 28.9731 8.51846L26.0444 5.79404ZM26.3655 5.76171C26.2285 5.74682 26.1149 5.70463 25.9953 5.61964L23.6785 8.88036C24.3505 9.35787 25.1119 9.64902 25.9333 9.73829L26.3655 5.76171ZM26.0233 5.63989C25.918 5.56229 25.8621 5.50649 25.8373 5.47838C25.8135 5.45137 25.8264 5.45913 25.8471 5.50495L22.2016 7.1513C22.5328 7.88467 23.0804 8.44002 23.6505 8.86011L26.0233 5.63989ZM25.8534 5.51911C25.9431 5.72189 25.9609 5.91662 25.9482 6.05954C25.9368 6.18819 25.9041 6.24445 25.9188 6.21339C25.933 6.18338 25.9767 6.10299 26.0779 5.97019C26.1775 5.83951 26.3177 5.67779 26.5088 5.48459L23.665 2.67166C23.1184 3.22419 22.617 3.83796 22.3018 4.50536C21.9799 5.18705 21.758 6.14835 22.1953 7.13714L25.8534 5.51911ZM26.5164 5.47688C27.323 4.65257 28.2733 3.92756 29.3792 3.30604L27.4195 -0.181036C26.0047 0.614104 24.7466 1.56618 23.6574 2.67937L26.5164 5.47688ZM29.3792 3.30604C29.9496 2.98547 30.3805 2.78971 30.6877 2.68383C31.0269 2.56695 31.0651 2.61245 30.9169 2.59393L31.4131 -1.37518C30.6816 -1.46661 29.9672 -1.29872 29.3844 -1.09789C28.7698 -0.88606 28.1095 -0.568801 27.4195 -0.181036L29.3792 3.30604ZM30.9267 2.59513C30.8671 2.58798 30.8016 2.57114 30.737 2.54297C30.6731 2.51507 30.6264 2.48315 30.5973 2.45908C30.5437 2.41477 30.5745 2.41845 30.6477 2.56235L34.2136 0.750151C33.7076 -0.245581 32.8115 -1.20739 31.4033 -1.37638L30.9267 2.59513ZM30.6477 2.56235C30.8309 2.92293 31.0099 3.49998 31.1176 4.37055L35.0874 3.87945C34.9451 2.72919 34.6762 1.66041 34.2136 0.750151L30.6477 2.56235ZM31.1176 4.37055C31.2333 5.30539 31.3076 6.354 31.3375 7.52002L35.3362 7.41748C35.3036 6.146 35.2217 4.96544 35.0874 3.87945L31.1176 4.37055ZM31.3375 7.52046C31.3676 8.68157 31.3577 9.89814 31.3072 11.1707L35.3041 11.3293C35.3577 9.97686 35.3687 8.6726 35.3362 7.41704L31.3375 7.52046ZM31.3066 11.1865C31.2652 12.4913 31.2187 13.7168 31.167 14.8631L35.163 15.0431C35.2155 13.8769 35.2627 12.6337 35.3046 11.3135L31.3066 11.1865ZM31.1663 14.8804C31.1239 16.0465 31.1025 17.1336 31.1025 18.1406H35.1025C35.1025 17.1894 35.1227 16.1514 35.1637 15.0258L31.1663 14.8804ZM31.1026 18.1621C31.1132 19.1504 31.1649 20.0241 31.3012 20.6754L35.2163 19.8559C35.1651 19.6113 35.1126 19.0684 35.1024 18.1191L31.1026 18.1621ZM31.2661 20.0944C31.2267 20.5527 31.1291 20.7722 31.0774 20.8565C31.0442 20.9107 31.0237 20.9279 30.9643 20.9513L32.4282 24.6737C34.3074 23.9347 35.0979 22.2236 35.2514 20.4369L31.2661 20.0944ZM30.9442 20.9593C30.8412 21.0011 30.7227 21.0383 30.4199 20.8766L28.5351 24.4047C29.7532 25.0554 31.1138 25.2073 32.4483 24.6657L30.9442 20.9593ZM30.4035 20.8679C30.2486 20.787 30.198 20.7283 30.1909 20.7196C30.187 20.7148 30.1879 20.7151 30.1896 20.7187C30.1912 20.7222 30.1892 20.7193 30.1862 20.7052L26.2688 21.5136C26.5474 22.8637 27.4252 23.825 28.5515 24.4133L30.4035 20.8679ZM30.1887 20.7171C30.1931 20.7396 30.1963 20.7667 30.1963 20.7969H26.1963C26.1963 21.0353 26.2202 21.2709 26.2663 21.5016L30.1887 20.7171ZM30.1957 20.7501C30.155 19.0114 30.1648 16.4822 30.2272 13.1468L26.2278 13.072C26.1652 16.4241 26.1541 19.0199 26.1968 20.8436L30.1957 20.7501ZM30.2272 13.1466C30.2897 9.79141 30.3111 7.36141 30.2898 5.87748L26.2902 5.93502C26.3105 7.34692 26.2903 9.71901 26.2278 13.0721L30.2272 13.1466Z" fill="#FE7E00" mask="url(#path-1-outside-1_2098_18586)"/>
</svg>
