<svg width="30" height="24" viewBox="0 0 30 24" fill="none" xmlns="http://www.w3.org/2000/svg">
<mask id="path-1-outside-1_2098_18591" maskUnits="userSpaceOnUse" x="-2" y="-2" width="34" height="27" fill="black">
<rect fill="white" x="-2" y="-2" width="34" height="27"/>
<path d="M6.73438 1.17188C6.95312 1.20312 7.23438 1.23438 7.57812 1.26562C7.92188 1.29688 8.15625 1.32292 8.28125 1.34375C8.40625 1.36458 8.58854 1.41146 8.82812 1.48438C9.06771 1.54688 9.29688 1.64583 9.51562 1.78125C9.74479 1.90625 10.026 2.08333 10.3594 2.3125C11.9531 3.40625 13.1979 4.83854 14.0938 6.60938C14.9896 8.38021 15.4531 10.3125 15.4844 12.4062C15.5156 14.8646 14.8021 17.1094 13.3438 19.1406C11.8854 21.1719 10.1094 22.401 8.01562 22.8281C6.89062 23.0573 5.88021 23.0521 4.98438 22.8125C4.08854 22.5729 3.35417 22.1562 2.78125 21.5625C2.21875 20.9688 1.75 20.2396 1.375 19.375C1 18.5104 0.744792 17.5677 0.609375 16.5469C0.473958 15.5156 0.411458 14.4531 0.421875 13.3594C0.432292 12.2552 0.520833 11.1719 0.6875 10.1094C0.864583 9.04688 1.09375 8.04688 1.375 7.10938C1.65625 6.16146 1.97396 5.33854 2.32812 4.64062C2.51562 4.27604 2.73438 3.89583 2.98438 3.5C3.23438 3.10417 3.53125 2.68229 3.875 2.23438C4.21875 1.78646 4.58854 1.41146 4.98438 1.10938C5.39062 0.807292 5.77604 0.635417 6.14062 0.59375C6.32812 0.572917 6.48438 0.619792 6.60938 0.734375C6.73438 0.848958 6.77604 0.994792 6.73438 1.17188ZM5.75 12.8906C5.39583 15.099 5.59896 16.6562 6.35938 17.5625C6.86979 18.1771 7.50521 18.349 8.26562 18.0781C9.03646 17.7969 9.67188 17.1458 10.1719 16.125C10.974 14.5208 11.1615 12.5625 10.7344 10.25C10.4427 8.64583 9.98438 7.51042 9.35938 6.84375C8.70312 6.14583 8.06771 6.24479 7.45312 7.14062C6.76562 8.15104 6.19792 10.0677 5.75 12.8906ZM28.8325 20.8281C28.7388 21.1927 28.2804 21.5208 27.4575 21.8125C26.645 22.1042 25.6919 22.3281 24.5981 22.4844C23.5044 22.6302 22.369 22.7552 21.1919 22.8594C20.0148 22.9635 19.02 23.0052 18.2075 22.9844C17.395 22.9635 16.8585 22.9375 16.5981 22.9062C15.0044 22.4583 14.7023 21.2812 15.6919 19.375C16.2752 18.2708 17.5356 16.5833 19.4731 14.3125C21.2856 12.1875 22.4106 10.8385 22.8481 10.2656C24.3273 8.32812 24.9002 7 24.5669 6.28125C24.296 5.6875 23.4471 5.41667 22.02 5.46875C21.5929 5.47917 21.0825 5.60938 20.4888 5.85938C19.895 6.10938 19.3585 6.36979 18.8794 6.64062C18.4002 6.91146 17.8898 7.13542 17.3481 7.3125C16.8065 7.47917 16.3585 7.51562 16.0044 7.42188C15.671 7.32812 15.4158 7.13542 15.2388 6.84375C15.0617 6.55208 14.9679 6.20833 14.9575 5.8125C14.9471 5.41667 14.9731 5.03125 15.0356 4.65625C15.0981 4.27083 15.1867 3.89062 15.3013 3.51562C15.4679 2.98438 15.8221 2.51042 16.3638 2.09375C16.9158 1.67708 17.5565 1.35938 18.2856 1.14062C19.0252 0.911458 19.796 0.755208 20.5981 0.671875C21.4106 0.588542 22.1971 0.598958 22.9575 0.703125C23.7179 0.796875 24.3585 0.973958 24.8794 1.23438C26.744 2.17188 27.8533 3.69271 28.2075 5.79688C28.4263 7.02604 28.4263 8.1875 28.2075 9.28125C27.9992 10.3646 27.6815 11.3125 27.2544 12.125C26.8377 12.9375 26.3325 13.7031 25.7388 14.4219C25.1554 15.1406 24.6033 15.75 24.0825 16.25C23.5617 16.75 23.0929 17.2292 22.6763 17.6875C22.2596 18.1354 22.0096 18.5 21.9263 18.7812C22.0825 18.7812 22.6554 18.6198 23.645 18.2969C24.6346 17.9635 25.6138 17.6562 26.5825 17.375C27.5617 17.0833 28.1554 16.9844 28.3638 17.0781C28.6867 17.224 28.9002 17.5417 29.0044 18.0312C29.1085 18.5104 29.1346 18.9844 29.0825 19.4531C29.0304 19.9115 28.9471 20.3698 28.8325 20.8281Z"/>
</mask>
<path d="M6.73438 1.17188L4.78754 0.713797L4.28667 2.84251L6.45153 3.15177L6.73438 1.17188ZM8.82812 1.48438L8.2458 3.39772L8.28432 3.40945L8.32328 3.41961L8.82812 1.48438ZM9.51562 1.78125L8.46292 3.48178L8.50966 3.51072L8.55792 3.53704L9.51562 1.78125ZM10.3594 2.3125L9.22632 3.96058L9.22769 3.96153L10.3594 2.3125ZM15.4844 12.4062L17.4842 12.3808L17.4842 12.3764L15.4844 12.4062ZM8.01562 22.8281L8.41483 24.7879L8.41535 24.7878L8.01562 22.8281ZM2.78125 21.5625L1.32934 22.938L1.33565 22.9446L1.34201 22.9512L2.78125 21.5625ZM0.609375 16.5469L-1.3736 16.8073L-1.37326 16.8099L0.609375 16.5469ZM0.421875 13.3594L2.42178 13.3784L2.42179 13.3782L0.421875 13.3594ZM0.6875 10.1094L-1.28529 9.78058L-1.28686 9.79L-1.28834 9.79944L0.6875 10.1094ZM1.375 7.10938L3.29066 7.68407L3.29238 7.67827L1.375 7.10938ZM2.32812 4.64062L0.549523 3.72592L0.544626 3.73557L2.32812 4.64062ZM4.98438 1.10938L3.79097 -0.49555L3.78095 -0.488101L3.77103 -0.480528L4.98438 1.10938ZM6.14062 0.59375L5.91976 -1.39403L5.91353 -1.39332L6.14062 0.59375ZM5.75 12.8906L7.72477 13.2073L7.72529 13.204L5.75 12.8906ZM6.35938 17.5625L7.89797 16.2847L7.89148 16.2769L6.35938 17.5625ZM8.26562 18.0781L8.93666 19.9622L8.94392 19.9596L8.95115 19.957L8.26562 18.0781ZM10.1719 16.125L8.38302 15.2306L8.37936 15.2379L8.37575 15.2453L10.1719 16.125ZM10.7344 10.25L8.76663 10.6078L8.76764 10.6132L10.7344 10.25ZM9.35938 6.84375L10.8185 5.47587L10.8164 5.4737L9.35938 6.84375ZM7.45312 7.14062L5.80391 6.00919L5.79959 6.01554L7.45312 7.14062ZM6.45153 3.15177C6.71731 3.18974 7.03586 3.22458 7.39705 3.25741L7.7592 -0.726161C7.43289 -0.755825 7.18894 -0.783493 7.01722 -0.808024L6.45153 3.15177ZM7.39705 3.25741C7.56112 3.27233 7.69144 3.28531 7.79086 3.29636C7.84035 3.30186 7.87906 3.30653 7.90831 3.31035C7.92276 3.31223 7.93375 3.31376 7.94167 3.31491C7.94975 3.31608 7.95308 3.31664 7.95245 3.31654L8.61005 -0.629038C8.40117 -0.663851 8.09597 -0.695546 7.7592 -0.726161L7.39705 3.25741ZM7.95245 3.31654C7.93795 3.31412 7.95439 3.31628 8.01364 3.33152C8.06909 3.34578 8.14544 3.36718 8.2458 3.39772L9.41045 -0.428973C9.1514 -0.507813 8.8679 -0.586062 8.61005 -0.629038L7.95245 3.31654ZM8.32328 3.41961C8.36208 3.42973 8.40736 3.44739 8.46292 3.48178L10.5683 0.0807199C10.1864 -0.155721 9.77333 -0.335982 9.33297 -0.450859L8.32328 3.41961ZM8.55792 3.53704C8.7036 3.6165 8.92248 3.7517 9.22632 3.96058L11.4924 0.664416C11.1296 0.41497 10.786 0.195996 10.4733 0.0254593L8.55792 3.53704ZM9.22769 3.96153C10.537 4.86008 11.5606 6.03263 12.3091 7.51219L15.8784 5.70656C14.8352 3.64445 13.3692 1.95242 11.4911 0.663473L9.22769 3.96153ZM12.3091 7.51219C13.0604 8.99722 13.4576 10.6287 13.4846 12.4361L17.4842 12.3764C17.4486 9.99627 16.9188 7.7632 15.8784 5.70656L12.3091 7.51219ZM13.4845 12.4317C13.5103 14.4551 12.9329 16.2836 11.7191 17.9742L14.9684 20.307C16.6713 17.9352 17.521 15.2741 17.4842 12.3808L13.4845 12.4317ZM11.7191 17.9742C10.5013 19.6705 9.13319 20.559 7.6159 20.8685L8.41535 24.7878C11.0856 24.2431 13.2696 22.6733 14.9684 20.307L11.7191 17.9742ZM7.61642 20.8684C6.72399 21.0502 6.03516 21.0232 5.5011 20.8804L4.46765 24.7446C5.72526 25.0809 7.05726 25.0644 8.41483 24.7879L7.61642 20.8684ZM5.5011 20.8804C4.91185 20.7228 4.51076 20.4746 4.22049 20.1738L1.34201 22.9512C2.19757 23.8379 3.26523 24.423 4.46765 24.7446L5.5011 20.8804ZM4.23316 20.187C3.85355 19.7863 3.50591 19.2618 3.20984 18.5792L-0.459842 20.1708C-0.00590521 21.2174 0.583953 22.1512 1.32934 22.938L4.23316 20.187ZM3.20984 18.5792C2.91502 17.8994 2.70531 17.138 2.59201 16.2839L-1.37326 16.8099C-1.21572 17.9974 -0.915017 19.1214 -0.459842 20.1708L3.20984 18.5792ZM2.59235 16.2865C2.46971 15.3525 2.41221 14.3835 2.42178 13.3784L-1.57803 13.3403C-1.5893 14.5227 -1.52179 15.6788 -1.3736 16.8073L2.59235 16.2865ZM2.42179 13.3782C2.43131 12.369 2.51218 11.383 2.66334 10.4193L-1.28834 9.79944C-1.47051 10.9608 -1.56672 12.1415 -1.57804 13.3405L2.42179 13.3782ZM2.66029 10.4382C2.82488 9.45059 3.03587 8.53333 3.29065 7.68407L-0.540653 6.53468C-0.848375 7.56042 -1.09572 8.64316 -1.28529 9.78058L2.66029 10.4382ZM3.29238 7.67827C3.54777 6.81751 3.82421 6.11205 4.11162 5.54568L0.544626 3.73557C0.123704 4.56503 -0.235273 5.5054 -0.542384 6.54048L3.29238 7.67827ZM4.1067 5.55532C4.26382 5.24982 4.45248 4.92086 4.67535 4.56799L1.2934 2.43201C1.01627 2.8708 0.767434 3.30226 0.549549 3.72593L4.1067 5.55532ZM4.67535 4.56799C4.88707 4.23277 5.14766 3.86111 5.46162 3.45201L2.28838 1.01674C1.91484 1.50347 1.58168 1.97556 1.2934 2.43201L4.67535 4.56799ZM5.46162 3.45201C5.71201 3.12575 5.95948 2.8811 6.19772 2.69928L3.77103 -0.480528C3.21761 -0.0581799 2.72549 0.447171 2.28838 1.01674L5.46162 3.45201ZM6.17778 2.7143C6.28569 2.63406 6.35745 2.59623 6.39269 2.58051C6.42632 2.56551 6.4161 2.57529 6.36772 2.58082L5.91353 -1.39332C5.09055 -1.29926 4.37744 -0.931645 3.79097 -0.49555L6.17778 2.7143ZM6.36149 2.58152C6.22935 2.5962 6.0404 2.59393 5.82374 2.52893C5.60147 2.46225 5.40872 2.34691 5.25793 2.20868L7.96082 -0.739933C7.35953 -1.29112 6.60863 -1.47056 5.91976 -1.39402L6.36149 2.58152ZM5.25793 2.20868C5.08119 2.04667 4.90361 1.80213 4.81133 1.47913C4.7213 1.16404 4.74574 0.89144 4.78754 0.713797L8.68121 1.62995C8.8738 0.81146 8.66532 -0.0941448 7.96082 -0.739933L5.25793 2.20868ZM3.77524 12.5739C3.4038 14.8899 3.47141 17.2322 4.82727 18.8481L7.89148 16.2769C7.72651 16.0803 7.38786 15.308 7.72476 13.2073L3.77524 12.5739ZM4.8208 18.8403C5.28216 19.3958 5.90231 19.8681 6.69653 20.083C7.48881 20.2973 8.26062 20.203 8.93666 19.9622L7.59459 16.1941C7.54959 16.2101 7.54583 16.2055 7.57731 16.2032C7.61197 16.2008 7.67051 16.2027 7.74097 16.2217C7.8116 16.2408 7.8652 16.2694 7.89741 16.2915C7.92698 16.3118 7.92495 16.3172 7.89795 16.2847L4.8208 18.8403ZM8.95115 19.957C10.3685 19.4398 11.3294 18.3085 11.968 17.0047L8.37575 15.2453C8.01433 15.9832 7.70447 16.1539 7.5801 16.1993L8.95115 19.957ZM11.9607 17.0194C13.01 14.9208 13.1826 12.4937 12.7011 9.88677L8.76764 10.6132C9.14033 12.6313 8.93789 14.1208 8.38302 15.2306L11.9607 17.0194ZM12.7021 9.89223C12.3885 8.16757 11.8419 6.56751 10.8184 5.47587L7.9003 8.21163C8.12689 8.45332 8.49688 9.12409 8.76663 10.6078L12.7021 9.89223ZM10.8164 5.4737C10.2701 4.89269 9.33004 4.22412 8.08286 4.41835C6.94544 4.59549 6.21912 5.40399 5.80392 6.0092L9.10233 8.27205C9.18114 8.15717 9.20702 8.14835 9.16338 8.18308C9.11308 8.22311 8.95617 8.33056 8.69839 8.37071C8.42532 8.41324 8.18701 8.35707 8.02973 8.28414C7.89446 8.22142 7.85635 8.16489 7.90234 8.2138L10.8164 5.4737ZM5.79959 6.01554C4.83653 7.43094 4.22289 9.75265 3.77471 12.5772L7.72529 13.204C8.17295 10.3828 8.69472 8.87114 9.10666 8.26571L5.79959 6.01554ZM28.8325 20.8281L30.7695 21.3262L30.7728 21.3132L28.8325 20.8281ZM27.4575 21.8125L26.7894 19.9274L26.7818 19.9301L27.4575 21.8125ZM24.5981 22.4844L24.8625 24.4668L24.8717 24.4656L24.881 24.4643L24.5981 22.4844ZM21.1919 22.8594L21.0156 20.8672L21.1919 22.8594ZM16.5981 22.9062L16.057 24.8317L16.2061 24.8736L16.3598 24.892L16.5981 22.9062ZM15.6919 19.375L13.9235 18.4408L13.9201 18.4471L13.9168 18.4535L15.6919 19.375ZM19.4731 14.3125L20.9946 15.6106L20.9948 15.6104L19.4731 14.3125ZM22.8481 10.2656L24.4377 11.4795L24.4378 11.4793L22.8481 10.2656ZM24.5669 6.28125L22.7472 7.11128L22.7525 7.1227L24.5669 6.28125ZM22.02 5.46875L22.0688 7.46815L22.0809 7.46786L22.0929 7.46742L22.02 5.46875ZM17.3481 7.3125L17.9363 9.22406L17.953 9.21892L17.9696 9.21349L17.3481 7.3125ZM16.0044 7.42188L15.4629 9.34718L15.4777 9.35135L15.4926 9.35529L16.0044 7.42188ZM15.2388 6.84375L13.5292 7.88171L15.2388 6.84375ZM15.0356 4.65625L17.0084 4.98505L17.0098 4.97639L15.0356 4.65625ZM15.3013 3.51562L13.393 2.91694L13.3907 2.92406L13.3885 2.93119L15.3013 3.51562ZM16.3638 2.09375L15.1589 0.497372L15.1516 0.502903L15.1443 0.508502L16.3638 2.09375ZM18.2856 1.14062L18.8603 3.05628L18.869 3.05369L18.8776 3.05102L18.2856 1.14062ZM20.5981 0.671875L20.3941 -1.31769L20.3914 -1.31742L20.5981 0.671875ZM22.9575 0.703125L22.6861 2.68462L22.6994 2.68645L22.7128 2.6881L22.9575 0.703125ZM24.8794 1.23438L25.7778 -0.552483L25.7738 -0.55448L24.8794 1.23438ZM28.2075 5.79688L26.2352 6.12884L26.2368 6.13808L26.2384 6.1473L28.2075 5.79688ZM28.2075 9.28125L26.2463 8.88902L26.2449 8.89628L26.2435 8.90355L28.2075 9.28125ZM27.2544 12.125L25.484 11.1944L25.4793 11.2034L25.4747 11.2124L27.2544 12.125ZM25.7388 14.4219L24.1968 13.1481L24.1913 13.1548L24.1858 13.1615L25.7388 14.4219ZM22.6763 17.6875L24.1406 19.0497L24.1484 19.0413L24.1561 19.0328L22.6763 17.6875ZM21.9263 18.7812L20.0087 18.2131L19.2477 20.7812H21.9263V18.7812ZM23.645 18.2969L24.2654 20.1982L24.2745 20.1953L24.2834 20.1922L23.645 18.2969ZM26.5825 17.375L27.1401 19.2957L27.1535 19.2918L26.5825 17.375ZM28.3638 17.0781L29.1869 15.2554L29.1845 15.2543L28.3638 17.0781ZM29.0044 18.0312L27.0481 18.4475L27.05 18.4561L29.0044 18.0312ZM29.0825 19.4531L31.0697 19.6789L31.0703 19.674L29.0825 19.4531ZM26.8955 20.33C26.9536 20.1043 27.0538 19.9436 27.1298 19.8482C27.1671 19.8013 27.1994 19.7691 27.2204 19.7499C27.2413 19.7307 27.2539 19.7216 27.2542 19.7214C27.2546 19.7212 27.2458 19.7275 27.2253 19.7394C27.2049 19.7512 27.1755 19.7671 27.1354 19.7865C27.054 19.8259 26.9408 19.8737 26.7894 19.9274L28.1256 23.6976C28.6283 23.5195 29.1417 23.2896 29.5827 22.9739C30.0107 22.6675 30.5596 22.1425 30.7695 21.3262L26.8955 20.33ZM26.7818 19.9301C26.1262 20.1655 25.3103 20.3623 24.3153 20.5045L24.881 24.4643C26.0735 24.2939 27.1638 24.0429 28.1332 23.6949L26.7818 19.9301ZM24.3338 20.5019C23.2713 20.6436 22.1653 20.7654 21.0156 20.8672L21.3682 24.8516C22.5726 24.745 23.7375 24.6168 24.8625 24.4668L24.3338 20.5019ZM21.0156 20.8672C19.8835 20.9673 18.9698 21.0033 18.2588 20.985L18.1562 24.9837C19.0702 25.0072 20.1461 24.9597 21.3682 24.8516L21.0156 20.8672ZM18.2588 20.985C17.4283 20.9637 16.9874 20.9386 16.8364 20.9205L16.3598 24.892C16.7297 24.9364 17.3617 24.9633 18.1562 24.9837L18.2588 20.985ZM17.1393 20.9808C16.9339 20.9231 16.903 20.8778 16.9466 20.9151C17.0122 20.9713 17.084 21.0755 17.1135 21.1903C17.1362 21.2789 17.1067 21.2701 17.1439 21.1032C17.1814 20.9351 17.2728 20.6704 17.4669 20.2965L13.9168 18.4535C13.353 19.5395 12.9012 20.8683 13.239 22.1847C13.6296 23.7066 14.8542 24.4936 16.057 24.8317L17.1393 20.9808ZM17.4603 20.3092C17.9298 19.4205 19.0574 17.8811 20.9946 15.6106L17.9517 13.0144C16.0138 15.2856 14.6207 17.1211 13.9235 18.4408L17.4603 20.3092ZM20.9948 15.6104C22.795 13.4999 23.9601 12.1048 24.4377 11.4795L21.2586 9.0518C20.8611 9.57227 19.7763 10.8751 17.9515 13.0146L20.9948 15.6104ZM24.4378 11.4793C25.2189 10.4562 25.8433 9.49022 26.2236 8.60859C26.5638 7.82005 26.9237 6.60937 26.3813 5.4398L22.7525 7.1227C22.6402 6.88048 22.6602 6.70504 22.6605 6.70206C22.6609 6.69864 22.6581 6.72381 22.6411 6.78179C22.6241 6.83922 22.596 6.91941 22.5508 7.02422C22.3582 7.47072 21.9566 8.13757 21.2584 9.05199L24.4378 11.4793ZM26.3865 5.45124C25.9407 4.4738 25.0925 3.96912 24.3349 3.72742C23.5986 3.49252 22.7695 3.44007 21.9471 3.47008L22.0929 7.46742C22.3822 7.45686 22.6123 7.46393 22.7906 7.48106C22.9712 7.49842 23.0741 7.52382 23.1192 7.5382C23.1646 7.5527 23.1185 7.54546 23.0331 7.47954C22.9378 7.40596 22.8256 7.28308 22.7472 7.11126L26.3865 5.45124ZM21.9712 3.46935C21.2006 3.48814 20.4314 3.71346 19.7126 4.0161L21.2649 7.70265C21.7336 7.50529 21.9852 7.47019 22.0688 7.46815L21.9712 3.46935ZM19.7126 4.0161C19.0593 4.29119 18.4519 4.58487 17.8953 4.8995L19.8635 8.38175C20.2652 8.15471 20.7307 7.92756 21.2649 7.70265L19.7126 4.0161ZM17.8953 4.8995C17.5354 5.10291 17.1469 5.27412 16.7266 5.41151L17.9696 9.21349C18.6327 8.99671 19.265 8.72001 19.8635 8.38175L17.8953 4.8995ZM16.76 5.40094C16.5936 5.45214 16.4914 5.46755 16.4437 5.47144C16.3967 5.47526 16.4302 5.46572 16.5162 5.48846L15.4926 9.35529C16.355 9.58357 17.2172 9.44532 17.9363 9.22406L16.76 5.40094ZM16.5459 5.49657C16.5991 5.51153 16.6811 5.54518 16.7682 5.61095C16.8557 5.67705 16.9144 5.74999 16.9483 5.80579L13.5292 7.88171C13.9735 8.61349 14.6499 9.11852 15.4629 9.34718L16.5459 5.49657ZM16.9483 5.80579C16.9541 5.81524 16.9584 5.82395 16.9614 5.83104C16.9644 5.83806 16.9654 5.84173 16.9652 5.84095C16.9648 5.83962 16.9583 5.81522 16.9568 5.75989L12.9582 5.86511C12.9763 6.55258 13.1442 7.24761 13.5292 7.88171L16.9483 5.80579ZM16.9568 5.75989C16.9496 5.48646 16.9678 5.22894 17.0084 4.98505L13.0628 4.32745C12.9785 4.83356 12.9446 5.34688 12.9582 5.86511L16.9568 5.75989ZM17.0098 4.97639C17.0578 4.68075 17.1257 4.38883 17.214 4.10006L13.3885 2.93119C13.2476 3.39242 13.1385 3.86092 13.0614 4.33611L17.0098 4.97639ZM17.2095 4.11431C17.2277 4.05631 17.292 3.90299 17.5832 3.679L15.1443 0.508502C14.3522 1.11785 13.7081 1.91244 13.393 2.91694L17.2095 4.11431ZM17.5686 3.69013C17.9131 3.43012 18.3356 3.21368 18.8603 3.05628L17.7109 -0.775027C16.7773 -0.494933 15.9186 -0.0759535 15.1589 0.497372L17.5686 3.69013ZM18.8776 3.05102C19.4866 2.86232 20.128 2.73148 20.8048 2.66117L20.3914 -1.31742C19.4641 -1.22107 18.5639 -1.0394 17.6937 -0.769766L18.8776 3.05102ZM20.8022 2.66144C21.4665 2.5933 22.093 2.60338 22.6861 2.68462L23.2289 -1.27837C22.3012 -1.40546 21.3547 -1.41622 20.3941 -1.31769L20.8022 2.66144ZM22.7128 2.6881C23.3144 2.76226 23.7209 2.89118 23.9849 3.02323L25.7738 -0.55448C24.9962 -0.943266 24.1215 -1.16851 23.2022 -1.28185L22.7128 2.6881ZM23.981 3.02123C25.2614 3.66501 25.984 4.63636 26.2352 6.12884L30.1798 5.46491C29.7226 2.74906 28.2266 0.678742 25.7778 -0.552479L23.981 3.02123ZM26.2384 6.1473C26.4186 7.15981 26.4106 8.06767 26.2463 8.88902L30.1687 9.67348C30.4419 8.30733 30.4339 6.89227 30.1766 5.44645L26.2384 6.1473ZM26.2435 8.90355C26.065 9.83166 25.8035 10.5866 25.484 11.1944L29.0247 13.0556C29.5594 12.0384 29.9333 10.8975 30.1715 9.65895L26.2435 8.90355ZM25.4747 11.2124C25.1254 11.8936 24.7005 12.5384 24.1968 13.1481L27.2807 15.6956C27.9645 14.8678 28.55 13.9814 29.034 13.0376L25.4747 11.2124ZM24.1858 13.1615C23.6409 13.833 23.1447 14.3778 22.6974 14.8072L25.4676 17.6928C26.0619 17.1222 26.6699 16.4483 27.2917 15.6822L24.1858 13.1615ZM22.6974 14.8072C22.1491 15.3336 21.648 15.8453 21.1964 16.3422L24.1561 19.0328C24.5378 18.613 24.9742 18.1664 25.4676 17.6928L22.6974 14.8072ZM21.2119 16.3253C20.7654 16.8053 20.2325 17.4575 20.0087 18.2131L23.8438 19.3494C23.8217 19.4241 23.8002 19.4663 23.7972 19.472C23.7937 19.4788 23.8005 19.4646 23.8257 19.4279C23.8782 19.3514 23.9761 19.2266 24.1406 19.0497L21.2119 16.3253ZM21.9263 20.7812C22.2063 20.7812 22.4622 20.724 22.5539 20.7037C22.6971 20.672 22.8546 20.6306 23.0156 20.5852C23.3405 20.4936 23.7608 20.3629 24.2654 20.1982L23.0246 16.3955C22.5396 16.5538 22.1786 16.6652 21.9306 16.7351C21.8052 16.7705 21.7284 16.7896 21.6892 16.7983C21.6697 16.8026 21.675 16.8009 21.698 16.7973C21.7082 16.7957 21.7973 16.7812 21.9263 16.7812V20.7812ZM24.2834 20.1922C25.2472 19.8676 26.1994 19.5688 27.1401 19.2957L26.0249 15.4543C25.0281 15.7437 24.022 16.0595 23.0066 16.4015L24.2834 20.1922ZM27.1535 19.2918C27.6101 19.1558 27.9128 19.0845 28.091 19.0548C28.1813 19.0398 28.1921 19.0436 28.1482 19.0439C28.124 19.0441 28.061 19.0434 27.9717 19.03C27.8872 19.0174 27.7306 18.9864 27.543 18.902L29.1845 15.2543C28.7422 15.0553 28.3247 15.0427 28.1222 15.044C27.8778 15.0456 27.64 15.0748 27.4334 15.1092C27.0178 15.1785 26.5341 15.3026 26.0115 15.4582L27.1535 19.2918ZM27.5406 18.9009C27.3355 18.8082 27.1897 18.6658 27.1062 18.5415C27.034 18.434 27.0337 18.3796 27.0482 18.4475L30.9606 17.615C30.7822 16.7767 30.3046 15.7601 29.1869 15.2554L27.5406 18.9009ZM27.05 18.4561C27.1099 18.7318 27.1219 18.9876 27.0947 19.2323L31.0703 19.674C31.1473 18.9811 31.1071 18.2891 30.9587 17.6064L27.05 18.4561ZM27.0953 19.2273C27.0534 19.5962 26.986 19.968 26.8922 20.3431L30.7728 21.3132C30.9082 20.7716 31.0075 20.2267 31.0697 19.6789L27.0953 19.2273Z" fill="#FE7E00" mask="url(#path-1-outside-1_2098_18591)"/>
</svg>
