<svg width="41" height="25" viewBox="0 0 41 25" fill="none" xmlns="http://www.w3.org/2000/svg">
<mask id="path-1-outside-1_2098_18596" maskUnits="userSpaceOnUse" x="-2" y="-1" width="44" height="27" fill="black">
<rect fill="white" x="-2" y="-1" width="44" height="27"/>
<path d="M6.73438 2.17188C6.95312 2.20312 7.23438 2.23438 7.57812 2.26562C7.92188 2.29688 8.15625 2.32292 8.28125 2.34375C8.40625 2.36458 8.58854 2.41146 8.82812 2.48438C9.06771 2.54688 9.29688 2.64583 9.51562 2.78125C9.74479 2.90625 10.026 3.08333 10.3594 3.3125C11.9531 4.40625 13.1979 5.83854 14.0938 7.60938C14.9896 9.38021 15.4531 11.3125 15.4844 13.4062C15.5156 15.8646 14.8021 18.1094 13.3438 20.1406C11.8854 22.1719 10.1094 23.401 8.01562 23.8281C6.89062 24.0573 5.88021 24.0521 4.98438 23.8125C4.08854 23.5729 3.35417 23.1562 2.78125 22.5625C2.21875 21.9688 1.75 21.2396 1.375 20.375C1 19.5104 0.744792 18.5677 0.609375 17.5469C0.473958 16.5156 0.411458 15.4531 0.421875 14.3594C0.432292 13.2552 0.520833 12.1719 0.6875 11.1094C0.864583 10.0469 1.09375 9.04688 1.375 8.10938C1.65625 7.16146 1.97396 6.33854 2.32812 5.64062C2.51562 5.27604 2.73438 4.89583 2.98438 4.5C3.23438 4.10417 3.53125 3.68229 3.875 3.23438C4.21875 2.78646 4.58854 2.41146 4.98438 2.10938C5.39062 1.80729 5.77604 1.63542 6.14062 1.59375C6.32812 1.57292 6.48438 1.61979 6.60938 1.73438C6.73438 1.84896 6.77604 1.99479 6.73438 2.17188ZM5.75 13.8906C5.39583 16.099 5.59896 17.6562 6.35938 18.5625C6.86979 19.1771 7.50521 19.349 8.26562 19.0781C9.03646 18.7969 9.67188 18.1458 10.1719 17.125C10.974 15.5208 11.1615 13.5625 10.7344 11.25C10.4427 9.64583 9.98438 8.51042 9.35938 7.84375C8.70312 7.14583 8.06771 7.24479 7.45312 8.14062C6.76562 9.15104 6.19792 11.0677 5.75 13.8906ZM33.2275 6.21875C33.1442 5.875 32.941 5.72917 32.6181 5.78125C32.2952 5.83333 31.9098 6.01042 31.4619 6.3125C31.0244 6.60417 30.54 6.90625 30.0088 7.21875C29.4775 7.52083 28.9671 7.75521 28.4775 7.92188C27.9983 8.08854 27.5452 8.0625 27.1181 7.84375C25.3473 6.88542 25.2171 5.67188 26.7275 4.20312C27.665 3.29688 28.9879 2.46354 30.6963 1.70312C31.2275 1.46354 31.6129 1.31771 31.8525 1.26562C32.6858 1.06771 33.4879 1.02083 34.2588 1.125C35.04 1.21875 35.7223 1.41667 36.3056 1.71875C36.8994 2.02083 37.3525 2.47917 37.665 3.09375C37.9775 3.70833 38.0921 4.43229 38.0088 5.26562C37.9567 5.76562 37.8525 6.26042 37.6963 6.75C37.5504 7.22917 37.3265 7.74479 37.0244 8.29688C36.7327 8.83854 36.4931 9.26042 36.3056 9.5625C36.1181 9.86458 35.8004 10.3438 35.3525 11C34.915 11.6458 34.6338 12.0573 34.5088 12.2344C35.54 12.5573 36.5713 13.099 37.6025 13.8594C38.6338 14.6198 39.2796 15.4115 39.54 16.2344C40.0296 17.776 39.9254 19.1562 39.2275 20.375C38.54 21.5938 37.4931 22.4688 36.0869 23C34.691 23.5208 33.2119 23.8281 31.6494 23.9219C30.0869 24.0156 28.6129 23.7396 27.2275 23.0938C25.8525 22.4375 24.9046 21.5052 24.3838 20.2969C24.1963 19.8594 24.1858 19.3385 24.3525 18.7344C24.5296 18.1198 24.7848 17.5625 25.1181 17.0625C25.3785 16.6771 25.6806 16.4635 26.0244 16.4219C26.3785 16.3698 26.7379 16.4479 27.1025 16.6562C27.4671 16.8646 27.8942 17.125 28.3838 17.4375C28.8838 17.75 29.3838 18.0625 29.8838 18.375C30.3838 18.6771 30.9671 18.9167 31.6338 19.0938C32.3108 19.2708 32.9775 19.3177 33.6338 19.2344C34.0817 19.1719 34.441 18.9688 34.7119 18.625C34.9931 18.2708 35.1285 17.901 35.1181 17.5156C35.1077 17.1198 34.9567 16.8281 34.665 16.6406C34.5088 16.5469 33.9827 16.3021 33.0869 15.9062C32.191 15.5104 31.3369 15.0938 30.5244 14.6562C29.7119 14.2083 29.1806 13.8073 28.9306 13.4531C28.5765 12.974 28.4358 12.4896 28.5088 12C28.5921 11.5104 28.7952 11.0729 29.1181 10.6875C29.4515 10.2917 29.8525 9.89062 30.3213 9.48438C30.8004 9.06771 31.2588 8.69271 31.6963 8.35938C32.1338 8.01562 32.5035 7.65625 32.8056 7.28125C33.1077 6.89583 33.2483 6.54167 33.2275 6.21875Z"/>
</mask>
<path d="M6.73438 2.17188L4.78754 1.7138L4.28667 3.84251L6.45153 4.15177L6.73438 2.17188ZM8.82812 2.48438L8.2458 4.39772L8.28432 4.40945L8.32328 4.41961L8.82812 2.48438ZM9.51562 2.78125L8.46292 4.48178L8.50966 4.51072L8.55792 4.53704L9.51562 2.78125ZM10.3594 3.3125L9.22632 4.96058L9.22769 4.96153L10.3594 3.3125ZM15.4844 13.4062L17.4842 13.3808L17.4842 13.3764L15.4844 13.4062ZM8.01562 23.8281L8.41483 25.7879L8.41535 25.7878L8.01562 23.8281ZM2.78125 22.5625L1.32934 23.938L1.33565 23.9446L1.34201 23.9512L2.78125 22.5625ZM0.609375 17.5469L-1.3736 17.8073L-1.37326 17.8099L0.609375 17.5469ZM0.421875 14.3594L2.42178 14.3784L2.42179 14.3782L0.421875 14.3594ZM0.6875 11.1094L-1.28529 10.7806L-1.28686 10.79L-1.28834 10.7994L0.6875 11.1094ZM1.375 8.10938L3.29066 8.68407L3.29238 8.67827L1.375 8.10938ZM2.32812 5.64062L0.549523 4.72592L0.544626 4.73557L2.32812 5.64062ZM4.98438 2.10938L3.79097 0.50445L3.78095 0.511899L3.77103 0.519472L4.98438 2.10938ZM6.14062 1.59375L5.91976 -0.394028L5.91353 -0.393315L6.14062 1.59375ZM5.75 13.8906L7.72477 14.2073L7.72529 14.204L5.75 13.8906ZM6.35938 18.5625L7.89797 17.2847L7.89148 17.2769L6.35938 18.5625ZM8.26562 19.0781L8.93666 20.9622L8.94392 20.9596L8.95115 20.957L8.26562 19.0781ZM10.1719 17.125L8.38302 16.2306L8.37936 16.2379L8.37575 16.2453L10.1719 17.125ZM10.7344 11.25L8.76663 11.6078L8.76764 11.6132L10.7344 11.25ZM9.35938 7.84375L10.8185 6.47587L10.8164 6.4737L9.35938 7.84375ZM7.45312 8.14062L5.80391 7.00919L5.79959 7.01554L7.45312 8.14062ZM6.45153 4.15177C6.71731 4.18974 7.03586 4.22458 7.39705 4.25741L7.7592 0.273839C7.43289 0.244175 7.18894 0.216507 7.01722 0.191976L6.45153 4.15177ZM7.39705 4.25741C7.56112 4.27233 7.69144 4.28531 7.79086 4.29636C7.84035 4.30186 7.87906 4.30653 7.90831 4.31035C7.92276 4.31223 7.93375 4.31376 7.94167 4.31491C7.94975 4.31608 7.95308 4.31664 7.95245 4.31654L8.61005 0.370962C8.40117 0.336149 8.09597 0.304454 7.7592 0.273839L7.39705 4.25741ZM7.95245 4.31654C7.93795 4.31412 7.95439 4.31628 8.01364 4.33152C8.06909 4.34578 8.14544 4.36718 8.2458 4.39772L9.41045 0.571027C9.1514 0.492187 8.8679 0.413938 8.61005 0.370962L7.95245 4.31654ZM8.32328 4.41961C8.36208 4.42973 8.40736 4.44739 8.46292 4.48178L10.5683 1.08072C10.1864 0.844279 9.77333 0.664018 9.33297 0.549141L8.32328 4.41961ZM8.55792 4.53704C8.7036 4.6165 8.92248 4.7517 9.22632 4.96058L11.4924 1.66442C11.1296 1.41497 10.786 1.196 10.4733 1.02546L8.55792 4.53704ZM9.22769 4.96153C10.537 5.86008 11.5606 7.03263 12.3091 8.51219L15.8784 6.70656C14.8352 4.64445 13.3692 2.95242 11.4911 1.66347L9.22769 4.96153ZM12.3091 8.51219C13.0604 9.99722 13.4576 11.6287 13.4846 13.4361L17.4842 13.3764C17.4486 10.9963 16.9188 8.7632 15.8784 6.70656L12.3091 8.51219ZM13.4845 13.4317C13.5103 15.4551 12.9329 17.2836 11.7191 18.9742L14.9684 21.307C16.6713 18.9352 17.521 16.2741 17.4842 13.3808L13.4845 13.4317ZM11.7191 18.9742C10.5013 20.6705 9.13319 21.559 7.6159 21.8685L8.41535 25.7878C11.0856 25.2431 13.2696 23.6733 14.9684 21.307L11.7191 18.9742ZM7.61642 21.8684C6.72399 22.0502 6.03516 22.0232 5.5011 21.8804L4.46765 25.7446C5.72526 26.0809 7.05726 26.0644 8.41483 25.7879L7.61642 21.8684ZM5.5011 21.8804C4.91185 21.7228 4.51076 21.4746 4.22049 21.1738L1.34201 23.9512C2.19757 24.8379 3.26523 25.423 4.46765 25.7446L5.5011 21.8804ZM4.23316 21.187C3.85355 20.7863 3.50591 20.2618 3.20984 19.5792L-0.459842 21.1708C-0.00590521 22.2174 0.583953 23.1512 1.32934 23.938L4.23316 21.187ZM3.20984 19.5792C2.91502 18.8994 2.70531 18.138 2.59201 17.2839L-1.37326 17.8099C-1.21572 18.9974 -0.915017 20.1214 -0.459842 21.1708L3.20984 19.5792ZM2.59235 17.2865C2.46971 16.3525 2.41221 15.3835 2.42178 14.3784L-1.57803 14.3403C-1.5893 15.5227 -1.52179 16.6788 -1.3736 17.8073L2.59235 17.2865ZM2.42179 14.3782C2.43131 13.369 2.51218 12.383 2.66334 11.4193L-1.28834 10.7994C-1.47051 11.9608 -1.56672 13.1415 -1.57804 14.3405L2.42179 14.3782ZM2.66029 11.4382C2.82488 10.4506 3.03587 9.53333 3.29065 8.68407L-0.540653 7.53468C-0.848375 8.56042 -1.09572 9.64316 -1.28529 10.7806L2.66029 11.4382ZM3.29238 8.67827C3.54777 7.81751 3.82421 7.11205 4.11162 6.54568L0.544626 4.73557C0.123704 5.56503 -0.235273 6.5054 -0.542384 7.54048L3.29238 8.67827ZM4.1067 6.55532C4.26382 6.24982 4.45248 5.92086 4.67535 5.56799L1.2934 3.43201C1.01627 3.8708 0.767434 4.30226 0.549549 4.72593L4.1067 6.55532ZM4.67535 5.56799C4.88707 5.23277 5.14766 4.86111 5.46162 4.45201L2.28838 2.01674C1.91484 2.50347 1.58168 2.97556 1.2934 3.43201L4.67535 5.56799ZM5.46162 4.45201C5.71201 4.12575 5.95948 3.8811 6.19772 3.69928L3.77103 0.519472C3.21761 0.94182 2.72549 1.44717 2.28838 2.01674L5.46162 4.45201ZM6.17778 3.7143C6.28569 3.63406 6.35745 3.59623 6.39269 3.58051C6.42632 3.56551 6.4161 3.57529 6.36772 3.58082L5.91353 -0.393315C5.09055 -0.29926 4.37744 0.0683546 3.79097 0.50445L6.17778 3.7143ZM6.36149 3.58152C6.22935 3.5962 6.0404 3.59393 5.82374 3.52893C5.60147 3.46225 5.40872 3.34691 5.25793 3.20868L7.96082 0.260067C7.35953 -0.291116 6.60863 -0.470558 5.91976 -0.394017L6.36149 3.58152ZM5.25793 3.20868C5.08119 3.04667 4.90361 2.80213 4.81133 2.47913C4.7213 2.16404 4.74574 1.89144 4.78754 1.7138L8.68121 2.62995C8.8738 1.81146 8.66532 0.905855 7.96082 0.260067L5.25793 3.20868ZM3.77524 13.5739C3.4038 15.8899 3.47141 18.2322 4.82727 19.8481L7.89148 17.2769C7.72651 17.0803 7.38786 16.308 7.72476 14.2073L3.77524 13.5739ZM4.8208 19.8403C5.28216 20.3958 5.90231 20.8681 6.69653 21.083C7.48881 21.2973 8.26062 21.203 8.93666 20.9622L7.59459 17.1941C7.54959 17.2101 7.54583 17.2055 7.57731 17.2032C7.61197 17.2008 7.67051 17.2027 7.74097 17.2217C7.8116 17.2408 7.8652 17.2694 7.89741 17.2915C7.92698 17.3118 7.92495 17.3172 7.89795 17.2847L4.8208 19.8403ZM8.95115 20.957C10.3685 20.4398 11.3294 19.3085 11.968 18.0047L8.37575 16.2453C8.01433 16.9832 7.70447 17.1539 7.5801 17.1993L8.95115 20.957ZM11.9607 18.0194C13.01 15.9208 13.1826 13.4937 12.7011 10.8868L8.76764 11.6132C9.14033 13.6313 8.93789 15.1208 8.38302 16.2306L11.9607 18.0194ZM12.7021 10.8922C12.3885 9.16757 11.8419 7.56751 10.8184 6.47587L7.9003 9.21163C8.12689 9.45332 8.49688 10.1241 8.76663 11.6078L12.7021 10.8922ZM10.8164 6.4737C10.2701 5.89269 9.33004 5.22412 8.08286 5.41835C6.94544 5.59549 6.21912 6.40399 5.80392 7.0092L9.10233 9.27205C9.18114 9.15717 9.20702 9.14835 9.16338 9.18308C9.11308 9.22311 8.95617 9.33056 8.69839 9.37071C8.42532 9.41324 8.18701 9.35707 8.02973 9.28414C7.89446 9.22142 7.85635 9.16489 7.90234 9.2138L10.8164 6.4737ZM5.79959 7.01554C4.83653 8.43094 4.22289 10.7526 3.77471 13.5772L7.72529 14.204C8.17295 11.3828 8.69472 9.87114 9.10666 9.26571L5.79959 7.01554ZM33.2275 6.21875L35.2234 6.08999L35.2122 5.9165L35.1712 5.74755L33.2275 6.21875ZM31.4619 6.3125L32.5713 7.97662L32.5802 7.97064L31.4619 6.3125ZM30.0088 7.21875L30.9974 8.95733L31.0101 8.95007L31.0228 8.94262L30.0088 7.21875ZM28.4775 7.92188L27.833 6.02853L27.8205 6.03288L28.4775 7.92188ZM27.1181 7.84375L26.1662 9.6027L26.1862 9.61349L26.2064 9.62384L27.1181 7.84375ZM26.7275 4.20312L25.3375 2.76514L25.3332 2.76927L26.7275 4.20312ZM30.6963 1.70312L31.5096 3.53031L31.5185 3.5263L30.6963 1.70312ZM31.8525 1.26562L32.2774 3.21998L32.296 3.21592L32.3146 3.2115L31.8525 1.26562ZM34.2588 1.125L33.9909 3.10699L34.0057 3.10898L34.0205 3.11075L34.2588 1.125ZM36.3056 1.71875L35.3859 3.49474L35.3923 3.49804L35.3987 3.50131L36.3056 1.71875ZM38.0088 5.26562L39.998 5.47284L39.9988 5.46463L38.0088 5.26562ZM37.6963 6.75L35.7909 6.14192L35.7868 6.15477L35.7829 6.16768L37.6963 6.75ZM37.0244 8.29688L35.2698 7.33683L35.2634 7.34867L37.0244 8.29688ZM35.3525 11L33.7006 9.87251L33.6967 9.8783L35.3525 11ZM34.5088 12.2344L32.8748 11.081L31.2923 13.323L33.9111 14.143L34.5088 12.2344ZM39.54 16.2344L37.6332 16.8378L37.6338 16.8397L39.54 16.2344ZM39.2275 20.375L37.4919 19.3811L37.4855 19.3924L39.2275 20.375ZM36.0869 23L36.7861 24.8738L36.7937 24.8709L36.0869 23ZM27.2275 23.0938L26.366 24.8987L26.3742 24.9026L26.3825 24.9065L27.2275 23.0938ZM24.3838 20.2969L22.5455 21.0847L22.5471 21.0885L24.3838 20.2969ZM24.3525 18.7344L22.4307 18.1806L22.4275 18.1916L22.4245 18.2025L24.3525 18.7344ZM25.1181 17.0625L23.4609 15.9428L23.454 15.9531L25.1181 17.0625ZM26.0244 16.4219L26.265 18.4073L26.2902 18.4043L26.3154 18.4006L26.0244 16.4219ZM28.3838 17.4375L27.3077 19.1233L27.3157 19.1285L27.3238 19.1335L28.3838 17.4375ZM29.8838 18.375L28.8238 20.071L28.8366 20.079L28.8495 20.0868L29.8838 18.375ZM31.6338 19.0938L31.1203 21.0267L31.1277 21.0287L31.6338 19.0938ZM33.6338 19.2344L33.8857 21.2184L33.8979 21.2169L33.9101 21.2152L33.6338 19.2344ZM34.7119 18.625L33.1456 17.3812L33.1409 17.3873L34.7119 18.625ZM35.1181 17.5156L33.1188 17.5682L33.1189 17.5697L35.1181 17.5156ZM34.665 16.6406L35.7465 14.9583L35.7205 14.9415L35.694 14.9256L34.665 16.6406ZM33.0869 15.9062L32.2785 17.7356L33.0869 15.9062ZM30.5244 14.6562L29.5588 16.4077L29.5675 16.4125L29.5762 16.4172L30.5244 14.6562ZM28.9306 13.4531L30.5646 12.2998L30.552 12.2819L30.539 12.2643L28.9306 13.4531ZM28.5088 12L26.5371 11.6644L26.5336 11.6849L26.5306 11.7054L28.5088 12ZM29.1181 10.6875L27.5883 9.39923L27.5851 9.40306L29.1181 10.6875ZM30.3213 9.48438L31.6311 10.9958L31.6336 10.9936L30.3213 9.48438ZM31.6963 8.35938L32.9083 9.95024L32.9202 9.94121L32.9319 9.93201L31.6963 8.35938ZM32.8056 7.28125L34.3631 8.53591L34.3715 8.52552L34.3797 8.51501L32.8056 7.28125ZM35.1712 5.74755C35.063 5.30128 34.8036 4.6753 34.1791 4.22692C33.528 3.75945 32.8158 3.72352 32.2997 3.80677L32.9366 7.75573C32.7433 7.7869 32.2942 7.79784 31.8462 7.47621C31.4248 7.17366 31.3087 6.79247 31.2838 6.68995L35.1712 5.74755ZM32.2997 3.80677C31.5626 3.92565 30.8947 4.2827 30.3436 4.65436L32.5802 7.97064C32.7372 7.8647 32.8502 7.80342 32.9219 7.77048C32.9961 7.73637 32.9974 7.74593 32.9366 7.75573L32.2997 3.80677ZM30.3525 4.6484C29.951 4.91608 29.499 5.19827 28.9947 5.49488L31.0228 8.94262C31.581 8.61423 32.0978 8.29225 32.5713 7.9766L30.3525 4.6484ZM29.0201 5.48017C28.5793 5.73083 28.1841 5.90905 27.833 6.02857L29.122 9.81517C29.7501 9.60137 30.3757 9.31083 30.9974 8.95733L29.0201 5.48017ZM27.8205 6.03288C27.7994 6.04019 27.8286 6.02694 27.893 6.03064C27.9231 6.03237 27.9526 6.03742 27.9792 6.04481C28.0055 6.05211 28.0226 6.05996 28.0299 6.06366L26.2064 9.62384C27.1499 10.1071 28.1726 10.1455 29.1345 9.81087L27.8205 6.03288ZM28.07 6.08481C27.76 5.91701 27.635 5.79697 27.6025 5.75988C27.5903 5.74592 27.6063 5.76082 27.6281 5.80725C27.6512 5.85629 27.6725 5.92334 27.6809 6.00148C27.699 6.16949 27.6446 6.24196 27.6807 6.17192C27.7234 6.08885 27.8427 5.90837 28.1218 5.63698L25.3332 2.76927C24.4471 3.63097 23.5378 4.8812 23.7038 6.42821C23.8751 8.02551 25.082 9.01595 26.1662 9.6027L28.07 6.08481ZM28.1175 5.6411C28.8312 4.95125 29.9299 4.23343 31.5096 3.53029L29.8829 -0.124039C28.0459 0.693653 26.4988 1.6425 25.3375 2.76515L28.1175 5.6411ZM31.5185 3.5263C31.7605 3.41715 31.9496 3.33835 32.0915 3.28463C32.2451 3.22655 32.2967 3.21578 32.2774 3.21998L31.4276 -0.688727C30.962 -0.587498 30.4067 -0.36027 29.874 -0.120049L31.5185 3.5263ZM32.3146 3.2115C32.9331 3.06461 33.487 3.03889 33.9909 3.10699L34.5266 -0.856985C33.4888 -0.997226 32.4386 -0.929195 31.3904 -0.680248L32.3146 3.2115ZM34.0205 3.11075C34.6097 3.18146 35.0528 3.32223 35.3859 3.49474L37.2253 -0.0572386C36.3918 -0.488894 35.4703 -0.743959 34.497 -0.860754L34.0205 3.11075ZM35.3987 3.50131C35.6013 3.60437 35.7544 3.74891 35.8822 4.00024L39.4478 2.18726C38.9506 1.20943 38.1975 0.437299 37.2125 -0.0638065L35.3987 3.50131ZM35.8822 4.00024C35.9873 4.20682 36.0722 4.53172 36.0187 5.06662L39.9988 5.46463C40.112 4.33287 39.9677 3.20984 39.4478 2.18726L35.8822 4.00024ZM36.0195 5.05841C35.9819 5.41926 35.9065 5.77982 35.7909 6.14192L39.6016 7.35808C39.7985 6.74101 39.9314 6.11199 39.998 5.47284L36.0195 5.05841ZM35.7829 6.16768C35.6856 6.48753 35.5221 6.87581 35.2699 7.33685L38.7789 9.2569C39.1308 8.61377 39.4153 7.9708 39.6096 7.33232L35.7829 6.16768ZM35.2634 7.34867C34.9794 7.87614 34.7622 8.25673 34.6063 8.50777L38.0049 10.6172C38.2241 10.2641 38.486 9.80094 38.7853 9.24508L35.2634 7.34867ZM34.6063 8.50777C34.4435 8.77007 34.147 9.21843 33.7006 9.87251L37.0044 12.1275C37.4538 11.4691 37.7927 10.9591 38.0049 10.6172L34.6063 8.50777ZM33.6967 9.8783C33.2559 10.5289 32.9864 10.9229 32.8748 11.081L36.1427 13.3877C36.2811 13.1917 36.5741 12.7628 37.0083 12.1217L33.6967 9.8783ZM33.9111 14.143C34.6955 14.3886 35.5305 14.8165 36.4155 15.4691L38.7895 12.2497C37.612 11.3814 36.3845 10.726 35.1064 10.3258L33.9111 14.143ZM36.4155 15.4691C37.2633 16.0942 37.5487 16.5707 37.6332 16.8378L41.4468 15.631C41.0105 14.2522 40.0042 13.1454 38.7895 12.2497L36.4155 15.4691ZM37.6338 16.8397C37.9822 17.9369 37.8685 18.7236 37.4919 19.3811L40.9631 21.3689C41.9824 19.5889 42.0769 17.6152 41.4462 15.629L37.6338 16.8397ZM37.4855 19.3924C37.0461 20.1713 36.3829 20.7502 35.3801 21.1291L36.7937 24.8709C38.6033 24.1873 40.0339 23.0162 40.9695 21.3576L37.4855 19.3924ZM35.3877 21.1262C34.1871 21.5742 32.904 21.843 31.5296 21.9255L31.7692 25.9183C33.5197 25.8133 35.195 25.4675 36.7861 24.8738L35.3877 21.1262ZM31.5296 21.9255C30.2907 21.9998 29.1491 21.7829 28.0725 21.281L26.3825 24.9065C28.0767 25.6962 29.8831 26.0314 31.7692 25.9183L31.5296 21.9255ZM28.089 21.2888C27.0778 20.8062 26.5197 20.1996 26.2204 19.5052L22.5471 21.0885C23.2895 22.8108 24.6272 24.0688 26.366 24.8987L28.089 21.2888ZM26.222 19.509C26.2389 19.5483 26.2355 19.5656 26.2349 19.5381C26.2343 19.5053 26.2384 19.4186 26.2805 19.2662L22.4245 18.2025C22.1756 19.1048 22.1296 20.1144 22.5455 21.0847L26.222 19.509ZM26.2743 19.2881C26.3982 18.8582 26.5699 18.4903 26.7822 18.1719L23.454 15.9531C22.9997 16.6347 22.661 17.3814 22.4307 18.1806L26.2743 19.2881ZM26.7753 18.1822C26.8037 18.1402 26.7841 18.1831 26.6945 18.2464C26.5939 18.3176 26.4447 18.3856 26.265 18.4073L25.7837 14.4364C24.6848 14.5696 23.9284 15.251 23.4609 15.9428L26.7753 18.1822ZM26.3154 18.4006C26.2478 18.4105 26.1836 18.4064 26.1347 18.3958C26.0893 18.3859 26.0802 18.3756 26.1102 18.3927L28.0948 14.9198C27.4116 14.5294 26.604 14.3151 25.7334 14.4432L26.3154 18.4006ZM26.1102 18.3927C26.4381 18.5801 26.836 18.8223 27.3077 19.1233L29.4598 15.7517C28.9523 15.4277 28.4961 15.1491 28.0948 14.9198L26.1102 18.3927ZM27.3238 19.1335C27.3247 19.1341 27.3257 19.1347 27.3267 19.1353C27.3277 19.1359 27.3286 19.1365 27.3296 19.1372C27.3306 19.1378 27.3316 19.1384 27.3325 19.139C27.3335 19.1396 27.3345 19.1402 27.3355 19.1408C27.3364 19.1414 27.3374 19.142 27.3384 19.1427C27.3394 19.1433 27.3404 19.1439 27.3413 19.1445C27.3423 19.1451 27.3433 19.1457 27.3443 19.1463C27.3452 19.1469 27.3462 19.1475 27.3472 19.1481C27.3482 19.1488 27.3491 19.1494 27.3501 19.15C27.3511 19.1506 27.3521 19.1512 27.3531 19.1518C27.354 19.1524 27.355 19.153 27.356 19.1536C27.357 19.1542 27.3579 19.1549 27.3589 19.1555C27.3599 19.1561 27.3609 19.1567 27.3618 19.1573C27.3628 19.1579 27.3638 19.1585 27.3648 19.1591C27.3657 19.1597 27.3667 19.1604 27.3677 19.161C27.3687 19.1616 27.3697 19.1622 27.3706 19.1628C27.3716 19.1634 27.3726 19.164 27.3736 19.1646C27.3745 19.1652 27.3755 19.1658 27.3765 19.1665C27.3775 19.1671 27.3784 19.1677 27.3794 19.1683C27.3804 19.1689 27.3814 19.1695 27.3823 19.1701C27.3833 19.1707 27.3843 19.1713 27.3853 19.1719C27.3863 19.1726 27.3872 19.1732 27.3882 19.1738C27.3892 19.1744 27.3902 19.175 27.3911 19.1756C27.3921 19.1762 27.3931 19.1768 27.3941 19.1774C27.395 19.1781 27.396 19.1787 27.397 19.1793C27.398 19.1799 27.3989 19.1805 27.3999 19.1811C27.4009 19.1817 27.4019 19.1823 27.4029 19.1829C27.4038 19.1835 27.4048 19.1842 27.4058 19.1848C27.4068 19.1854 27.4077 19.186 27.4087 19.1866C27.4097 19.1872 27.4107 19.1878 27.4116 19.1884C27.4126 19.189 27.4136 19.1896 27.4146 19.1903C27.4156 19.1909 27.4165 19.1915 27.4175 19.1921C27.4185 19.1927 27.4195 19.1933 27.4204 19.1939C27.4214 19.1945 27.4224 19.1951 27.4234 19.1958C27.4243 19.1964 27.4253 19.197 27.4263 19.1976C27.4273 19.1982 27.4282 19.1988 27.4292 19.1994C27.4302 19.2 27.4312 19.2006 27.4322 19.2012C27.4331 19.2019 27.4341 19.2025 27.4351 19.2031C27.4361 19.2037 27.437 19.2043 27.438 19.2049C27.439 19.2055 27.44 19.2061 27.4409 19.2067C27.4419 19.2073 27.4429 19.208 27.4439 19.2086C27.4448 19.2092 27.4458 19.2098 27.4468 19.2104C27.4478 19.211 27.4488 19.2116 27.4497 19.2122C27.4507 19.2128 27.4517 19.2135 27.4527 19.2141C27.4536 19.2147 27.4546 19.2153 27.4556 19.2159C27.4566 19.2165 27.4575 19.2171 27.4585 19.2177C27.4595 19.2183 27.4605 19.2189 27.4614 19.2196C27.4624 19.2202 27.4634 19.2208 27.4644 19.2214C27.4654 19.222 27.4663 19.2226 27.4673 19.2232C27.4683 19.2238 27.4693 19.2244 27.4702 19.225C27.4712 19.2257 27.4722 19.2263 27.4732 19.2269C27.4741 19.2275 27.4751 19.2281 27.4761 19.2287C27.4771 19.2293 27.4781 19.2299 27.479 19.2305C27.48 19.2312 27.481 19.2318 27.482 19.2324C27.4829 19.233 27.4839 19.2336 27.4849 19.2342C27.4859 19.2348 27.4868 19.2354 27.4878 19.236C27.4888 19.2366 27.4898 19.2373 27.4907 19.2379C27.4917 19.2385 27.4927 19.2391 27.4937 19.2397C27.4947 19.2403 27.4956 19.2409 27.4966 19.2415C27.4976 19.2421 27.4986 19.2428 27.4995 19.2434C27.5005 19.244 27.5015 19.2446 27.5025 19.2452C27.5034 19.2458 27.5044 19.2464 27.5054 19.247C27.5064 19.2476 27.5073 19.2482 27.5083 19.2489C27.5093 19.2495 27.5103 19.2501 27.5113 19.2507C27.5122 19.2513 27.5132 19.2519 27.5142 19.2525C27.5152 19.2531 27.5161 19.2537 27.5171 19.2543C27.5181 19.255 27.5191 19.2556 27.52 19.2562C27.521 19.2568 27.522 19.2574 27.523 19.258C27.5239 19.2586 27.5249 19.2592 27.5259 19.2598C27.5269 19.2605 27.5279 19.2611 27.5288 19.2617C27.5298 19.2623 27.5308 19.2629 27.5318 19.2635C27.5327 19.2641 27.5337 19.2647 27.5347 19.2653C27.5357 19.2659 27.5366 19.2666 27.5376 19.2672C27.5386 19.2678 27.5396 19.2684 27.5406 19.269C27.5415 19.2696 27.5425 19.2702 27.5435 19.2708C27.5445 19.2714 27.5454 19.272 27.5464 19.2727C27.5474 19.2733 27.5484 19.2739 27.5493 19.2745C27.5503 19.2751 27.5513 19.2757 27.5523 19.2763C27.5532 19.2769 27.5542 19.2775 27.5552 19.2782C27.5562 19.2788 27.5572 19.2794 27.5581 19.28C27.5591 19.2806 27.5601 19.2812 27.5611 19.2818C27.562 19.2824 27.563 19.283 27.564 19.2836C27.565 19.2843 27.5659 19.2849 27.5669 19.2855C27.5679 19.2861 27.5689 19.2867 27.5698 19.2873C27.5708 19.2879 27.5718 19.2885 27.5728 19.2891C27.5738 19.2897 27.5747 19.2904 27.5757 19.291C27.5767 19.2916 27.5777 19.2922 27.5786 19.2928C27.5796 19.2934 27.5806 19.294 27.5816 19.2946C27.5825 19.2952 27.5835 19.2959 27.5845 19.2965C27.5855 19.2971 27.5864 19.2977 27.5874 19.2983C27.5884 19.2989 27.5894 19.2995 27.5904 19.3001C27.5913 19.3007 27.5923 19.3013 27.5933 19.302C27.5943 19.3026 27.5952 19.3032 27.5962 19.3038C27.5972 19.3044 27.5982 19.305 27.5991 19.3056C27.6001 19.3062 27.6011 19.3068 27.6021 19.3074C27.6031 19.3081 27.604 19.3087 27.605 19.3093C27.606 19.3099 27.607 19.3105 27.6079 19.3111C27.6089 19.3117 27.6099 19.3123 27.6109 19.3129C27.6118 19.3136 27.6128 19.3142 27.6138 19.3148C27.6148 19.3154 27.6157 19.316 27.6167 19.3166C27.6177 19.3172 27.6187 19.3178 27.6197 19.3184C27.6206 19.319 27.6216 19.3197 27.6226 19.3203C27.6236 19.3209 27.6245 19.3215 27.6255 19.3221C27.6265 19.3227 27.6275 19.3233 27.6284 19.3239C27.6294 19.3245 27.6304 19.3251 27.6314 19.3258C27.6323 19.3264 27.6333 19.327 27.6343 19.3276C27.6353 19.3282 27.6363 19.3288 27.6372 19.3294C27.6382 19.33 27.6392 19.3306 27.6402 19.3313C27.6411 19.3319 27.6421 19.3325 27.6431 19.3331C27.6441 19.3337 27.645 19.3343 27.646 19.3349C27.647 19.3355 27.648 19.3361 27.6489 19.3367C27.6499 19.3374 27.6509 19.338 27.6519 19.3386C27.6529 19.3392 27.6538 19.3398 27.6548 19.3404C27.6558 19.341 27.6568 19.3416 27.6577 19.3422C27.6587 19.3428 27.6597 19.3435 27.6607 19.3441C27.6616 19.3447 27.6626 19.3453 27.6636 19.3459C27.6646 19.3465 27.6656 19.3471 27.6665 19.3477C27.6675 19.3483 27.6685 19.349 27.6695 19.3496C27.6704 19.3502 27.6714 19.3508 27.6724 19.3514C27.6734 19.352 27.6743 19.3526 27.6753 19.3532C27.6763 19.3538 27.6773 19.3544 27.6782 19.3551C27.6792 19.3557 27.6802 19.3563 27.6812 19.3569C27.6822 19.3575 27.6831 19.3581 27.6841 19.3587C27.6851 19.3593 27.6861 19.3599 27.687 19.3605C27.688 19.3612 27.689 19.3618 27.69 19.3624C27.6909 19.363 27.6919 19.3636 27.6929 19.3642C27.6939 19.3648 27.6948 19.3654 27.6958 19.366C27.6968 19.3667 27.6978 19.3673 27.6988 19.3679C27.6997 19.3685 27.7007 19.3691 27.7017 19.3697C27.7027 19.3703 27.7036 19.3709 27.7046 19.3715C27.7056 19.3721 27.7066 19.3728 27.7075 19.3734C27.7085 19.374 27.7095 19.3746 27.7105 19.3752C27.7114 19.3758 27.7124 19.3764 27.7134 19.377C27.7144 19.3776 27.7154 19.3782 27.7163 19.3789C27.7173 19.3795 27.7183 19.3801 27.7193 19.3807C27.7202 19.3813 27.7212 19.3819 27.7222 19.3825C27.7232 19.3831 27.7241 19.3837 27.7251 19.3844C27.7261 19.385 27.7271 19.3856 27.7281 19.3862C27.729 19.3868 27.73 19.3874 27.731 19.388C27.732 19.3886 27.7329 19.3892 27.7339 19.3898C27.7349 19.3905 27.7359 19.3911 27.7368 19.3917C27.7378 19.3923 27.7388 19.3929 27.7398 19.3935C27.7407 19.3941 27.7417 19.3947 27.7427 19.3953C27.7437 19.3959 27.7447 19.3966 27.7456 19.3972C27.7466 19.3978 27.7476 19.3984 27.7486 19.399C27.7495 19.3996 27.7505 19.4002 27.7515 19.4008C27.7525 19.4014 27.7534 19.4021 27.7544 19.4027C27.7554 19.4033 27.7564 19.4039 27.7573 19.4045C27.7583 19.4051 27.7593 19.4057 27.7603 19.4063C27.7613 19.4069 27.7622 19.4075 27.7632 19.4082C27.7642 19.4088 27.7652 19.4094 27.7661 19.41C27.7671 19.4106 27.7681 19.4112 27.7691 19.4118C27.77 19.4124 27.771 19.413 27.772 19.4136C27.773 19.4143 27.7739 19.4149 27.7749 19.4155C27.7759 19.4161 27.7769 19.4167 27.7779 19.4173C27.7788 19.4179 27.7798 19.4185 27.7808 19.4191C27.7818 19.4198 27.7827 19.4204 27.7837 19.421C27.7847 19.4216 27.7857 19.4222 27.7866 19.4228C27.7876 19.4234 27.7886 19.424 27.7896 19.4246C27.7906 19.4252 27.7915 19.4259 27.7925 19.4265C27.7935 19.4271 27.7945 19.4277 27.7954 19.4283C27.7964 19.4289 27.7974 19.4295 27.7984 19.4301C27.7993 19.4307 27.8003 19.4313 27.8013 19.432C27.8023 19.4326 27.8032 19.4332 27.8042 19.4338C27.8052 19.4344 27.8062 19.435 27.8072 19.4356C27.8081 19.4362 27.8091 19.4368 27.8101 19.4375C27.8111 19.4381 27.812 19.4387 27.813 19.4393C27.814 19.4399 27.815 19.4405 27.8159 19.4411C27.8169 19.4417 27.8179 19.4423 27.8189 19.4429C27.8198 19.4436 27.8208 19.4442 27.8218 19.4448C27.8228 19.4454 27.8238 19.446 27.8247 19.4466C27.8257 19.4472 27.8267 19.4478 27.8277 19.4484C27.8286 19.449 27.8296 19.4497 27.8306 19.4503C27.8316 19.4509 27.8325 19.4515 27.8335 19.4521C27.8345 19.4527 27.8355 19.4533 27.8364 19.4539C27.8374 19.4545 27.8384 19.4552 27.8394 19.4558C27.8404 19.4564 27.8413 19.457 27.8423 19.4576C27.8433 19.4582 27.8443 19.4588 27.8452 19.4594C27.8462 19.46 27.8472 19.4606 27.8482 19.4613C27.8491 19.4619 27.8501 19.4625 27.8511 19.4631C27.8521 19.4637 27.8531 19.4643 27.854 19.4649C27.855 19.4655 27.856 19.4661 27.857 19.4667C27.8579 19.4674 27.8589 19.468 27.8599 19.4686C27.8609 19.4692 27.8618 19.4698 27.8628 19.4704C27.8638 19.471 27.8648 19.4716 27.8657 19.4722C27.8667 19.4729 27.8677 19.4735 27.8687 19.4741C27.8697 19.4747 27.8706 19.4753 27.8716 19.4759C27.8726 19.4765 27.8736 19.4771 27.8745 19.4777C27.8755 19.4783 27.8765 19.479 27.8775 19.4796C27.8784 19.4802 27.8794 19.4808 27.8804 19.4814C27.8814 19.482 27.8823 19.4826 27.8833 19.4832C27.8843 19.4838 27.8853 19.4844 27.8863 19.4851C27.8872 19.4857 27.8882 19.4863 27.8892 19.4869C27.8902 19.4875 27.8911 19.4881 27.8921 19.4887C27.8931 19.4893 27.8941 19.4899 27.895 19.4906C27.896 19.4912 27.897 19.4918 27.898 19.4924C27.8989 19.493 27.8999 19.4936 27.9009 19.4942C27.9019 19.4948 27.9029 19.4954 27.9038 19.496C27.9048 19.4967 27.9058 19.4973 27.9068 19.4979C27.9077 19.4985 27.9087 19.4991 27.9097 19.4997C27.9107 19.5003 27.9116 19.5009 27.9126 19.5015C27.9136 19.5021 27.9146 19.5028 27.9156 19.5034C27.9165 19.504 27.9175 19.5046 27.9185 19.5052C27.9195 19.5058 27.9204 19.5064 27.9214 19.507C27.9224 19.5076 27.9234 19.5083 27.9243 19.5089C27.9253 19.5095 27.9263 19.5101 27.9273 19.5107C27.9282 19.5113 27.9292 19.5119 27.9302 19.5125C27.9312 19.5131 27.9322 19.5137 27.9331 19.5144C27.9341 19.515 27.9351 19.5156 27.9361 19.5162C27.937 19.5168 27.938 19.5174 27.939 19.518C27.94 19.5186 27.9409 19.5192 27.9419 19.5198C27.9429 19.5205 27.9439 19.5211 27.9448 19.5217C27.9458 19.5223 27.9468 19.5229 27.9478 19.5235C27.9488 19.5241 27.9497 19.5247 27.9507 19.5253C27.9517 19.526 27.9527 19.5266 27.9536 19.5272C27.9546 19.5278 27.9556 19.5284 27.9566 19.529C27.9575 19.5296 27.9585 19.5302 27.9595 19.5308C27.9605 19.5314 27.9614 19.5321 27.9624 19.5327C27.9634 19.5333 27.9644 19.5339 27.9654 19.5345C27.9663 19.5351 27.9673 19.5357 27.9683 19.5363C27.9693 19.5369 27.9702 19.5375 27.9712 19.5382C27.9722 19.5388 27.9732 19.5394 27.9741 19.54C27.9751 19.5406 27.9761 19.5412 27.9771 19.5418C27.9781 19.5424 27.979 19.543 27.98 19.5437C27.981 19.5443 27.982 19.5449 27.9829 19.5455C27.9839 19.5461 27.9849 19.5467 27.9859 19.5473C27.9868 19.5479 27.9878 19.5485 27.9888 19.5491C27.9898 19.5498 27.9907 19.5504 27.9917 19.551C27.9927 19.5516 27.9937 19.5522 27.9947 19.5528C27.9956 19.5534 27.9966 19.554 27.9976 19.5546C27.9986 19.5553 27.9995 19.5559 28.0005 19.5565C28.0015 19.5571 28.0025 19.5577 28.0034 19.5583C28.0044 19.5589 28.0054 19.5595 28.0064 19.5601C28.0073 19.5607 28.0083 19.5614 28.0093 19.562C28.0103 19.5626 28.0113 19.5632 28.0122 19.5638C28.0132 19.5644 28.0142 19.565 28.0152 19.5656C28.0161 19.5662 28.0171 19.5668 28.0181 19.5675C28.0191 19.5681 28.02 19.5687 28.021 19.5693C28.022 19.5699 28.023 19.5705 28.0239 19.5711C28.0249 19.5717 28.0259 19.5723 28.0269 19.573C28.0279 19.5736 28.0288 19.5742 28.0298 19.5748C28.0308 19.5754 28.0318 19.576 28.0327 19.5766C28.0337 19.5772 28.0347 19.5778 28.0357 19.5784C28.0366 19.5791 28.0376 19.5797 28.0386 19.5803C28.0396 19.5809 28.0406 19.5815 28.0415 19.5821C28.0425 19.5827 28.0435 19.5833 28.0445 19.5839C28.0454 19.5845 28.0464 19.5852 28.0474 19.5858C28.0484 19.5864 28.0493 19.587 28.0503 19.5876C28.0513 19.5882 28.0523 19.5888 28.0532 19.5894C28.0542 19.59 28.0552 19.5907 28.0562 19.5913C28.0572 19.5919 28.0581 19.5925 28.0591 19.5931C28.0601 19.5937 28.0611 19.5943 28.062 19.5949C28.063 19.5955 28.064 19.5961 28.065 19.5968C28.0659 19.5974 28.0669 19.598 28.0679 19.5986C28.0689 19.5992 28.0698 19.5998 28.0708 19.6004C28.0718 19.601 28.0728 19.6016 28.0738 19.6022C28.0747 19.6029 28.0757 19.6035 28.0767 19.6041C28.0777 19.6047 28.0786 19.6053 28.0796 19.6059C28.0806 19.6065 28.0816 19.6071 28.0825 19.6077C28.0835 19.6084 28.0845 19.609 28.0855 19.6096C28.0864 19.6102 28.0874 19.6108 28.0884 19.6114C28.0894 19.612 28.0904 19.6126 28.0913 19.6132C28.0923 19.6138 28.0933 19.6145 28.0943 19.6151C28.0952 19.6157 28.0962 19.6163 28.0972 19.6169C28.0982 19.6175 28.0991 19.6181 28.1001 19.6187C28.1011 19.6193 28.1021 19.6199 28.1031 19.6206C28.104 19.6212 28.105 19.6218 28.106 19.6224C28.107 19.623 28.1079 19.6236 28.1089 19.6242C28.1099 19.6248 28.1109 19.6254 28.1118 19.6261C28.1128 19.6267 28.1138 19.6273 28.1148 19.6279C28.1157 19.6285 28.1167 19.6291 28.1177 19.6297C28.1187 19.6303 28.1197 19.6309 28.1206 19.6315C28.1216 19.6322 28.1226 19.6328 28.1236 19.6334C28.1245 19.634 28.1255 19.6346 28.1265 19.6352C28.1275 19.6358 28.1284 19.6364 28.1294 19.637C28.1304 19.6376 28.1314 19.6383 28.1323 19.6389C28.1333 19.6395 28.1343 19.6401 28.1353 19.6407C28.1363 19.6413 28.1372 19.6419 28.1382 19.6425C28.1392 19.6431 28.1402 19.6438 28.1411 19.6444C28.1421 19.645 28.1431 19.6456 28.1441 19.6462C28.145 19.6468 28.146 19.6474 28.147 19.648C28.148 19.6486 28.1489 19.6492 28.1499 19.6499C28.1509 19.6505 28.1519 19.6511 28.1529 19.6517C28.1538 19.6523 28.1548 19.6529 28.1558 19.6535C28.1568 19.6541 28.1577 19.6547 28.1587 19.6553C28.1597 19.656 28.1607 19.6566 28.1616 19.6572C28.1626 19.6578 28.1636 19.6584 28.1646 19.659C28.1656 19.6596 28.1665 19.6602 28.1675 19.6608C28.1685 19.6615 28.1695 19.6621 28.1704 19.6627C28.1714 19.6633 28.1724 19.6639 28.1734 19.6645C28.1743 19.6651 28.1753 19.6657 28.1763 19.6663C28.1773 19.6669 28.1782 19.6676 28.1792 19.6682C28.1802 19.6688 28.1812 19.6694 28.1822 19.67C28.1831 19.6706 28.1841 19.6712 28.1851 19.6718C28.1861 19.6724 28.187 19.673 28.188 19.6737C28.189 19.6743 28.19 19.6749 28.1909 19.6755C28.1919 19.6761 28.1929 19.6767 28.1939 19.6773C28.1948 19.6779 28.1958 19.6785 28.1968 19.6792C28.1978 19.6798 28.1988 19.6804 28.1997 19.681C28.2007 19.6816 28.2017 19.6822 28.2027 19.6828C28.2036 19.6834 28.2046 19.684 28.2056 19.6846C28.2066 19.6853 28.2075 19.6859 28.2085 19.6865C28.2095 19.6871 28.2105 19.6877 28.2114 19.6883C28.2124 19.6889 28.2134 19.6895 28.2144 19.6901C28.2154 19.6907 28.2163 19.6914 28.2173 19.692C28.2183 19.6926 28.2193 19.6932 28.2202 19.6938C28.2212 19.6944 28.2222 19.695 28.2232 19.6956C28.2241 19.6962 28.2251 19.6969 28.2261 19.6975C28.2271 19.6981 28.2281 19.6987 28.229 19.6993C28.23 19.6999 28.231 19.7005 28.232 19.7011C28.2329 19.7017 28.2339 19.7023 28.2349 19.703C28.2359 19.7036 28.2368 19.7042 28.2378 19.7048C28.2388 19.7054 28.2398 19.706 28.2407 19.7066C28.2417 19.7072 28.2427 19.7078 28.2437 19.7084C28.2447 19.7091 28.2456 19.7097 28.2466 19.7103C28.2476 19.7109 28.2486 19.7115 28.2495 19.7121C28.2505 19.7127 28.2515 19.7133 28.2525 19.7139C28.2534 19.7146 28.2544 19.7152 28.2554 19.7158C28.2564 19.7164 28.2573 19.717 28.2583 19.7176C28.2593 19.7182 28.2603 19.7188 28.2613 19.7194C28.2622 19.72 28.2632 19.7207 28.2642 19.7213C28.2652 19.7219 28.2661 19.7225 28.2671 19.7231C28.2681 19.7237 28.2691 19.7243 28.27 19.7249C28.271 19.7255 28.272 19.7261 28.273 19.7268C28.2739 19.7274 28.2749 19.728 28.2759 19.7286C28.2769 19.7292 28.2779 19.7298 28.2788 19.7304C28.2798 19.731 28.2808 19.7316 28.2818 19.7323C28.2827 19.7329 28.2837 19.7335 28.2847 19.7341C28.2857 19.7347 28.2866 19.7353 28.2876 19.7359C28.2886 19.7365 28.2896 19.7371 28.2906 19.7377C28.2915 19.7384 28.2925 19.739 28.2935 19.7396C28.2945 19.7402 28.2954 19.7408 28.2964 19.7414C28.2974 19.742 28.2984 19.7426 28.2993 19.7432C28.3003 19.7438 28.3013 19.7445 28.3023 19.7451C28.3032 19.7457 28.3042 19.7463 28.3052 19.7469C28.3062 19.7475 28.3072 19.7481 28.3081 19.7487C28.3091 19.7493 28.3101 19.75 28.3111 19.7506C28.312 19.7512 28.313 19.7518 28.314 19.7524C28.315 19.753 28.3159 19.7536 28.3169 19.7542C28.3179 19.7548 28.3189 19.7554 28.3198 19.7561C28.3208 19.7567 28.3218 19.7573 28.3228 19.7579C28.3238 19.7585 28.3247 19.7591 28.3257 19.7597C28.3267 19.7603 28.3277 19.7609 28.3286 19.7615C28.3296 19.7622 28.3306 19.7628 28.3316 19.7634C28.3325 19.764 28.3335 19.7646 28.3345 19.7652C28.3355 19.7658 28.3364 19.7664 28.3374 19.767C28.3384 19.7677 28.3394 19.7683 28.3404 19.7689C28.3413 19.7695 28.3423 19.7701 28.3433 19.7707C28.3443 19.7713 28.3452 19.7719 28.3462 19.7725C28.3472 19.7731 28.3482 19.7738 28.3491 19.7744C28.3501 19.775 28.3511 19.7756 28.3521 19.7762C28.3531 19.7768 28.354 19.7774 28.355 19.778C28.356 19.7786 28.357 19.7792 28.3579 19.7799C28.3589 19.7805 28.3599 19.7811 28.3609 19.7817C28.3618 19.7823 28.3628 19.7829 28.3638 19.7835C28.3648 19.7841 28.3657 19.7847 28.3667 19.7854C28.3677 19.786 28.3687 19.7866 28.3697 19.7872C28.3706 19.7878 28.3716 19.7884 28.3726 19.789C28.3736 19.7896 28.3745 19.7902 28.3755 19.7908C28.3765 19.7915 28.3775 19.7921 28.3784 19.7927C28.3794 19.7933 28.3804 19.7939 28.3814 19.7945C28.3823 19.7951 28.3833 19.7957 28.3843 19.7963C28.3853 19.7969 28.3863 19.7976 28.3872 19.7982C28.3882 19.7988 28.3892 19.7994 28.3902 19.8C28.3911 19.8006 28.3921 19.8012 28.3931 19.8018C28.3941 19.8024 28.395 19.8031 28.396 19.8037C28.397 19.8043 28.398 19.8049 28.3989 19.8055C28.3999 19.8061 28.4009 19.8067 28.4019 19.8073C28.4029 19.8079 28.4038 19.8085 28.4048 19.8092C28.4058 19.8098 28.4068 19.8104 28.4077 19.811C28.4087 19.8116 28.4097 19.8122 28.4107 19.8128C28.4116 19.8134 28.4126 19.814 28.4136 19.8146C28.4146 19.8153 28.4156 19.8159 28.4165 19.8165C28.4175 19.8171 28.4185 19.8177 28.4195 19.8183C28.4204 19.8189 28.4214 19.8195 28.4224 19.8201C28.4234 19.8208 28.4243 19.8214 28.4253 19.822C28.4263 19.8226 28.4273 19.8232 28.4282 19.8238C28.4292 19.8244 28.4302 19.825 28.4312 19.8256C28.4322 19.8262 28.4331 19.8269 28.4341 19.8275C28.4351 19.8281 28.4361 19.8287 28.437 19.8293C28.438 19.8299 28.439 19.8305 28.44 19.8311C28.4409 19.8317 28.4419 19.8323 28.4429 19.833C28.4439 19.8336 28.4448 19.8342 28.4458 19.8348C28.4468 19.8354 28.4478 19.836 28.4488 19.8366C28.4497 19.8372 28.4507 19.8378 28.4517 19.8385C28.4527 19.8391 28.4536 19.8397 28.4546 19.8403C28.4556 19.8409 28.4566 19.8415 28.4575 19.8421C28.4585 19.8427 28.4595 19.8433 28.4605 19.8439C28.4614 19.8446 28.4624 19.8452 28.4634 19.8458C28.4644 19.8464 28.4654 19.847 28.4663 19.8476C28.4673 19.8482 28.4683 19.8488 28.4693 19.8494C28.4702 19.85 28.4712 19.8507 28.4722 19.8513C28.4732 19.8519 28.4741 19.8525 28.4751 19.8531C28.4761 19.8537 28.4771 19.8543 28.4781 19.8549C28.479 19.8555 28.48 19.8562 28.481 19.8568C28.482 19.8574 28.4829 19.858 28.4839 19.8586C28.4849 19.8592 28.4859 19.8598 28.4868 19.8604C28.4878 19.861 28.4888 19.8616 28.4898 19.8623C28.4907 19.8629 28.4917 19.8635 28.4927 19.8641C28.4937 19.8647 28.4947 19.8653 28.4956 19.8659C28.4966 19.8665 28.4976 19.8671 28.4986 19.8678C28.4995 19.8684 28.5005 19.869 28.5015 19.8696C28.5025 19.8702 28.5034 19.8708 28.5044 19.8714C28.5054 19.872 28.5064 19.8726 28.5073 19.8732C28.5083 19.8739 28.5093 19.8745 28.5103 19.8751C28.5113 19.8757 28.5122 19.8763 28.5132 19.8769C28.5142 19.8775 28.5152 19.8781 28.5161 19.8787C28.5171 19.8793 28.5181 19.88 28.5191 19.8806C28.52 19.8812 28.521 19.8818 28.522 19.8824C28.523 19.883 28.5239 19.8836 28.5249 19.8842C28.5259 19.8848 28.5269 19.8855 28.5279 19.8861C28.5288 19.8867 28.5298 19.8873 28.5308 19.8879C28.5318 19.8885 28.5327 19.8891 28.5337 19.8897C28.5347 19.8903 28.5357 19.8909 28.5366 19.8916C28.5376 19.8922 28.5386 19.8928 28.5396 19.8934C28.5406 19.894 28.5415 19.8946 28.5425 19.8952C28.5435 19.8958 28.5445 19.8964 28.5454 19.897C28.5464 19.8977 28.5474 19.8983 28.5484 19.8989C28.5493 19.8995 28.5503 19.9001 28.5513 19.9007C28.5523 19.9013 28.5532 19.9019 28.5542 19.9025C28.5552 19.9032 28.5562 19.9038 28.5572 19.9044C28.5581 19.905 28.5591 19.9056 28.5601 19.9062C28.5611 19.9068 28.562 19.9074 28.563 19.908C28.564 19.9086 28.565 19.9093 28.5659 19.9099C28.5669 19.9105 28.5679 19.9111 28.5689 19.9117C28.5698 19.9123 28.5708 19.9129 28.5718 19.9135C28.5728 19.9141 28.5738 19.9147 28.5747 19.9154C28.5757 19.916 28.5767 19.9166 28.5777 19.9172C28.5786 19.9178 28.5796 19.9184 28.5806 19.919C28.5816 19.9196 28.5825 19.9202 28.5835 19.9209C28.5845 19.9215 28.5855 19.9221 28.5864 19.9227C28.5874 19.9233 28.5884 19.9239 28.5894 19.9245C28.5904 19.9251 28.5913 19.9257 28.5923 19.9263C28.5933 19.927 28.5943 19.9276 28.5952 19.9282C28.5962 19.9288 28.5972 19.9294 28.5982 19.93C28.5991 19.9306 28.6001 19.9312 28.6011 19.9318C28.6021 19.9324 28.6031 19.9331 28.604 19.9337C28.605 19.9343 28.606 19.9349 28.607 19.9355C28.6079 19.9361 28.6089 19.9367 28.6099 19.9373C28.6109 19.9379 28.6118 19.9386 28.6128 19.9392C28.6138 19.9398 28.6148 19.9404 28.6157 19.941C28.6167 19.9416 28.6177 19.9422 28.6187 19.9428C28.6197 19.9434 28.6206 19.944 28.6216 19.9447C28.6226 19.9453 28.6236 19.9459 28.6245 19.9465C28.6255 19.9471 28.6265 19.9477 28.6275 19.9483C28.6284 19.9489 28.6294 19.9495 28.6304 19.9501C28.6314 19.9508 28.6323 19.9514 28.6333 19.952C28.6343 19.9526 28.6353 19.9532 28.6363 19.9538C28.6372 19.9544 28.6382 19.955 28.6392 19.9556C28.6402 19.9563 28.6411 19.9569 28.6421 19.9575C28.6431 19.9581 28.6441 19.9587 28.645 19.9593C28.646 19.9599 28.647 19.9605 28.648 19.9611C28.6489 19.9617 28.6499 19.9624 28.6509 19.963C28.6519 19.9636 28.6529 19.9642 28.6538 19.9648C28.6548 19.9654 28.6558 19.966 28.6568 19.9666C28.6577 19.9672 28.6587 19.9678 28.6597 19.9685C28.6607 19.9691 28.6616 19.9697 28.6626 19.9703C28.6636 19.9709 28.6646 19.9715 28.6656 19.9721C28.6665 19.9727 28.6675 19.9733 28.6685 19.974C28.6695 19.9746 28.6704 19.9752 28.6714 19.9758C28.6724 19.9764 28.6734 19.977 28.6743 19.9776C28.6753 19.9782 28.6763 19.9788 28.6773 19.9794C28.6782 19.9801 28.6792 19.9807 28.6802 19.9813C28.6812 19.9819 28.6822 19.9825 28.6831 19.9831C28.6841 19.9837 28.6851 19.9843 28.6861 19.9849C28.687 19.9855 28.688 19.9862 28.689 19.9868C28.69 19.9874 28.6909 19.988 28.6919 19.9886C28.6929 19.9892 28.6939 19.9898 28.6948 19.9904C28.6958 19.991 28.6968 19.9917 28.6978 19.9923C28.6988 19.9929 28.6997 19.9935 28.7007 19.9941C28.7017 19.9947 28.7027 19.9953 28.7036 19.9959C28.7046 19.9965 28.7056 19.9971 28.7066 19.9978C28.7075 19.9984 28.7085 19.999 28.7095 19.9996C28.7105 20.0002 28.7114 20.0008 28.7124 20.0014C28.7134 20.002 28.7144 20.0026 28.7154 20.0032C28.7163 20.0039 28.7173 20.0045 28.7183 20.0051C28.7193 20.0057 28.7202 20.0063 28.7212 20.0069C28.7222 20.0075 28.7232 20.0081 28.7241 20.0087C28.7251 20.0094 28.7261 20.01 28.7271 20.0106C28.7281 20.0112 28.729 20.0118 28.73 20.0124C28.731 20.013 28.732 20.0136 28.7329 20.0142C28.7339 20.0148 28.7349 20.0155 28.7359 20.0161C28.7368 20.0167 28.7378 20.0173 28.7388 20.0179C28.7398 20.0185 28.7407 20.0191 28.7417 20.0197C28.7427 20.0203 28.7437 20.0209 28.7447 20.0216C28.7456 20.0222 28.7466 20.0228 28.7476 20.0234C28.7486 20.024 28.7495 20.0246 28.7505 20.0252C28.7515 20.0258 28.7525 20.0264 28.7534 20.0271C28.7544 20.0277 28.7554 20.0283 28.7564 20.0289C28.7573 20.0295 28.7583 20.0301 28.7593 20.0307C28.7603 20.0313 28.7613 20.0319 28.7622 20.0325C28.7632 20.0332 28.7642 20.0338 28.7652 20.0344C28.7661 20.035 28.7671 20.0356 28.7681 20.0362C28.7691 20.0368 28.77 20.0374 28.771 20.038C28.772 20.0386 28.773 20.0393 28.7739 20.0399C28.7749 20.0405 28.7759 20.0411 28.7769 20.0417C28.7779 20.0423 28.7788 20.0429 28.7798 20.0435C28.7808 20.0441 28.7818 20.0448 28.7827 20.0454C28.7837 20.046 28.7847 20.0466 28.7857 20.0472C28.7866 20.0478 28.7876 20.0484 28.7886 20.049C28.7896 20.0496 28.7906 20.0502 28.7915 20.0509C28.7925 20.0515 28.7935 20.0521 28.7945 20.0527C28.7954 20.0533 28.7964 20.0539 28.7974 20.0545C28.7984 20.0551 28.7993 20.0557 28.8003 20.0563C28.8013 20.057 28.8023 20.0576 28.8032 20.0582C28.8042 20.0588 28.8052 20.0594 28.8062 20.06C28.8072 20.0606 28.8081 20.0612 28.8091 20.0618C28.8101 20.0625 28.8111 20.0631 28.812 20.0637C28.813 20.0643 28.814 20.0649 28.815 20.0655C28.8159 20.0661 28.8169 20.0667 28.8179 20.0673C28.8189 20.0679 28.8198 20.0686 28.8208 20.0692C28.8218 20.0698 28.8228 20.0704 28.8238 20.071L30.9437 16.679C30.9428 16.6784 30.9418 16.6778 30.9408 16.6772C30.9398 16.6766 30.9389 16.676 30.9379 16.6753C30.9369 16.6747 30.9359 16.6741 30.935 16.6735C30.934 16.6729 30.933 16.6723 30.932 16.6717C30.9311 16.6711 30.9301 16.6705 30.9291 16.6698C30.9281 16.6692 30.9271 16.6686 30.9262 16.668C30.9252 16.6674 30.9242 16.6668 30.9232 16.6662C30.9223 16.6656 30.9213 16.665 30.9203 16.6644C30.9193 16.6637 30.9184 16.6631 30.9174 16.6625C30.9164 16.6619 30.9154 16.6613 30.9145 16.6607C30.9135 16.6601 30.9125 16.6595 30.9115 16.6589C30.9105 16.6583 30.9096 16.6576 30.9086 16.657C30.9076 16.6564 30.9066 16.6558 30.9057 16.6552C30.9047 16.6546 30.9037 16.654 30.9027 16.6534C30.9018 16.6528 30.9008 16.6521 30.8998 16.6515C30.8988 16.6509 30.8979 16.6503 30.8969 16.6497C30.8959 16.6491 30.8949 16.6485 30.8939 16.6479C30.893 16.6473 30.892 16.6467 30.891 16.646C30.89 16.6454 30.8891 16.6448 30.8881 16.6442C30.8871 16.6436 30.8861 16.643 30.8852 16.6424C30.8842 16.6418 30.8832 16.6412 30.8822 16.6406C30.8812 16.6399 30.8803 16.6393 30.8793 16.6387C30.8783 16.6381 30.8773 16.6375 30.8764 16.6369C30.8754 16.6363 30.8744 16.6357 30.8734 16.6351C30.8725 16.6344 30.8715 16.6338 30.8705 16.6332C30.8695 16.6326 30.8686 16.632 30.8676 16.6314C30.8666 16.6308 30.8656 16.6302 30.8646 16.6296C30.8637 16.629 30.8627 16.6283 30.8617 16.6277C30.8607 16.6271 30.8598 16.6265 30.8588 16.6259C30.8578 16.6253 30.8568 16.6247 30.8559 16.6241C30.8549 16.6235 30.8539 16.6229 30.8529 16.6222C30.852 16.6216 30.851 16.621 30.85 16.6204C30.849 16.6198 30.848 16.6192 30.8471 16.6186C30.8461 16.618 30.8451 16.6174 30.8441 16.6167C30.8432 16.6161 30.8422 16.6155 30.8412 16.6149C30.8402 16.6143 30.8393 16.6137 30.8383 16.6131C30.8373 16.6125 30.8363 16.6119 30.8354 16.6113C30.8344 16.6106 30.8334 16.61 30.8324 16.6094C30.8314 16.6088 30.8305 16.6082 30.8295 16.6076C30.8285 16.607 30.8275 16.6064 30.8266 16.6058C30.8256 16.6052 30.8246 16.6045 30.8236 16.6039C30.8227 16.6033 30.8217 16.6027 30.8207 16.6021C30.8197 16.6015 30.8187 16.6009 30.8178 16.6003C30.8168 16.5997 30.8158 16.599 30.8148 16.5984C30.8139 16.5978 30.8129 16.5972 30.8119 16.5966C30.8109 16.596 30.81 16.5954 30.809 16.5948C30.808 16.5942 30.807 16.5936 30.8061 16.5929C30.8051 16.5923 30.8041 16.5917 30.8031 16.5911C30.8021 16.5905 30.8012 16.5899 30.8002 16.5893C30.7992 16.5887 30.7982 16.5881 30.7973 16.5875C30.7963 16.5868 30.7953 16.5862 30.7943 16.5856C30.7934 16.585 30.7924 16.5844 30.7914 16.5838C30.7904 16.5832 30.7895 16.5826 30.7885 16.582C30.7875 16.5813 30.7865 16.5807 30.7855 16.5801C30.7846 16.5795 30.7836 16.5789 30.7826 16.5783C30.7816 16.5777 30.7807 16.5771 30.7797 16.5765C30.7787 16.5759 30.7777 16.5752 30.7768 16.5746C30.7758 16.574 30.7748 16.5734 30.7738 16.5728C30.7729 16.5722 30.7719 16.5716 30.7709 16.571C30.7699 16.5704 30.7689 16.5697 30.768 16.5691C30.767 16.5685 30.766 16.5679 30.765 16.5673C30.7641 16.5667 30.7631 16.5661 30.7621 16.5655C30.7611 16.5649 30.7602 16.5643 30.7592 16.5636C30.7582 16.563 30.7572 16.5624 30.7562 16.5618C30.7553 16.5612 30.7543 16.5606 30.7533 16.56C30.7523 16.5594 30.7514 16.5588 30.7504 16.5582C30.7494 16.5575 30.7484 16.5569 30.7475 16.5563C30.7465 16.5557 30.7455 16.5551 30.7445 16.5545C30.7436 16.5539 30.7426 16.5533 30.7416 16.5527C30.7406 16.552 30.7396 16.5514 30.7387 16.5508C30.7377 16.5502 30.7367 16.5496 30.7357 16.549C30.7348 16.5484 30.7338 16.5478 30.7328 16.5472C30.7318 16.5466 30.7309 16.5459 30.7299 16.5453C30.7289 16.5447 30.7279 16.5441 30.727 16.5435C30.726 16.5429 30.725 16.5423 30.724 16.5417C30.723 16.5411 30.7221 16.5405 30.7211 16.5398C30.7201 16.5392 30.7191 16.5386 30.7182 16.538C30.7172 16.5374 30.7162 16.5368 30.7152 16.5362C30.7143 16.5356 30.7133 16.535 30.7123 16.5343C30.7113 16.5337 30.7104 16.5331 30.7094 16.5325C30.7084 16.5319 30.7074 16.5313 30.7064 16.5307C30.7055 16.5301 30.7045 16.5295 30.7035 16.5289C30.7025 16.5282 30.7016 16.5276 30.7006 16.527C30.6996 16.5264 30.6986 16.5258 30.6977 16.5252C30.6967 16.5246 30.6957 16.524 30.6947 16.5234C30.6937 16.5228 30.6928 16.5221 30.6918 16.5215C30.6908 16.5209 30.6898 16.5203 30.6889 16.5197C30.6879 16.5191 30.6869 16.5185 30.6859 16.5179C30.685 16.5173 30.684 16.5166 30.683 16.516C30.682 16.5154 30.6811 16.5148 30.6801 16.5142C30.6791 16.5136 30.6781 16.513 30.6771 16.5124C30.6762 16.5118 30.6752 16.5112 30.6742 16.5105C30.6732 16.5099 30.6723 16.5093 30.6713 16.5087C30.6703 16.5081 30.6693 16.5075 30.6684 16.5069C30.6674 16.5063 30.6664 16.5057 30.6654 16.5051C30.6645 16.5044 30.6635 16.5038 30.6625 16.5032C30.6615 16.5026 30.6605 16.502 30.6596 16.5014C30.6586 16.5008 30.6576 16.5002 30.6566 16.4996C30.6557 16.4989 30.6547 16.4983 30.6537 16.4977C30.6527 16.4971 30.6518 16.4965 30.6508 16.4959C30.6498 16.4953 30.6488 16.4947 30.6479 16.4941C30.6469 16.4935 30.6459 16.4928 30.6449 16.4922C30.6439 16.4916 30.643 16.491 30.642 16.4904C30.641 16.4898 30.64 16.4892 30.6391 16.4886C30.6381 16.488 30.6371 16.4874 30.6361 16.4867C30.6352 16.4861 30.6342 16.4855 30.6332 16.4849C30.6322 16.4843 30.6312 16.4837 30.6303 16.4831C30.6293 16.4825 30.6283 16.4819 30.6273 16.4812C30.6264 16.4806 30.6254 16.48 30.6244 16.4794C30.6234 16.4788 30.6225 16.4782 30.6215 16.4776C30.6205 16.477 30.6195 16.4764 30.6186 16.4758C30.6176 16.4751 30.6166 16.4745 30.6156 16.4739C30.6146 16.4733 30.6137 16.4727 30.6127 16.4721C30.6117 16.4715 30.6107 16.4709 30.6098 16.4703C30.6088 16.4697 30.6078 16.469 30.6068 16.4684C30.6059 16.4678 30.6049 16.4672 30.6039 16.4666C30.6029 16.466 30.602 16.4654 30.601 16.4648C30.6 16.4642 30.599 16.4635 30.598 16.4629C30.5971 16.4623 30.5961 16.4617 30.5951 16.4611C30.5941 16.4605 30.5932 16.4599 30.5922 16.4593C30.5912 16.4587 30.5902 16.4581 30.5893 16.4574C30.5883 16.4568 30.5873 16.4562 30.5863 16.4556C30.5854 16.455 30.5844 16.4544 30.5834 16.4538C30.5824 16.4532 30.5814 16.4526 30.5805 16.452C30.5795 16.4513 30.5785 16.4507 30.5775 16.4501C30.5766 16.4495 30.5756 16.4489 30.5746 16.4483C30.5736 16.4477 30.5727 16.4471 30.5717 16.4465C30.5707 16.4458 30.5697 16.4452 30.5687 16.4446C30.5678 16.444 30.5668 16.4434 30.5658 16.4428C30.5648 16.4422 30.5639 16.4416 30.5629 16.441C30.5619 16.4404 30.5609 16.4397 30.56 16.4391C30.559 16.4385 30.558 16.4379 30.557 16.4373C30.5561 16.4367 30.5551 16.4361 30.5541 16.4355C30.5531 16.4349 30.5521 16.4343 30.5512 16.4336C30.5502 16.433 30.5492 16.4324 30.5482 16.4318C30.5473 16.4312 30.5463 16.4306 30.5453 16.43C30.5443 16.4294 30.5434 16.4288 30.5424 16.4281C30.5414 16.4275 30.5404 16.4269 30.5395 16.4263C30.5385 16.4257 30.5375 16.4251 30.5365 16.4245C30.5355 16.4239 30.5346 16.4233 30.5336 16.4227C30.5326 16.422 30.5316 16.4214 30.5307 16.4208C30.5297 16.4202 30.5287 16.4196 30.5277 16.419C30.5268 16.4184 30.5258 16.4178 30.5248 16.4172C30.5238 16.4166 30.5229 16.4159 30.5219 16.4153C30.5209 16.4147 30.5199 16.4141 30.5189 16.4135C30.518 16.4129 30.517 16.4123 30.516 16.4117C30.515 16.4111 30.5141 16.4104 30.5131 16.4098C30.5121 16.4092 30.5111 16.4086 30.5102 16.408C30.5092 16.4074 30.5082 16.4068 30.5072 16.4062C30.5062 16.4056 30.5053 16.405 30.5043 16.4043C30.5033 16.4037 30.5023 16.4031 30.5014 16.4025C30.5004 16.4019 30.4994 16.4013 30.4984 16.4007C30.4975 16.4001 30.4965 16.3995 30.4955 16.3989C30.4945 16.3982 30.4936 16.3976 30.4926 16.397C30.4916 16.3964 30.4906 16.3958 30.4896 16.3952C30.4887 16.3946 30.4877 16.394 30.4867 16.3934C30.4857 16.3927 30.4848 16.3921 30.4838 16.3915C30.4828 16.3909 30.4818 16.3903 30.4809 16.3897C30.4799 16.3891 30.4789 16.3885 30.4779 16.3879C30.477 16.3873 30.476 16.3866 30.475 16.386C30.474 16.3854 30.473 16.3848 30.4721 16.3842C30.4711 16.3836 30.4701 16.383 30.4691 16.3824C30.4682 16.3818 30.4672 16.3812 30.4662 16.3805C30.4652 16.3799 30.4643 16.3793 30.4633 16.3787C30.4623 16.3781 30.4613 16.3775 30.4604 16.3769C30.4594 16.3763 30.4584 16.3757 30.4574 16.375C30.4564 16.3744 30.4555 16.3738 30.4545 16.3732C30.4535 16.3726 30.4525 16.372 30.4516 16.3714C30.4506 16.3708 30.4496 16.3702 30.4486 16.3696C30.4477 16.3689 30.4467 16.3683 30.4457 16.3677C30.4447 16.3671 30.4437 16.3665 30.4428 16.3659C30.4418 16.3653 30.4408 16.3647 30.4398 16.3641C30.4389 16.3635 30.4379 16.3628 30.4369 16.3622C30.4359 16.3616 30.435 16.361 30.434 16.3604C30.433 16.3598 30.432 16.3592 30.4311 16.3586C30.4301 16.358 30.4291 16.3573 30.4281 16.3567C30.4271 16.3561 30.4262 16.3555 30.4252 16.3549C30.4242 16.3543 30.4232 16.3537 30.4223 16.3531C30.4213 16.3525 30.4203 16.3519 30.4193 16.3512C30.4184 16.3506 30.4174 16.35 30.4164 16.3494C30.4154 16.3488 30.4145 16.3482 30.4135 16.3476C30.4125 16.347 30.4115 16.3464 30.4105 16.3458C30.4096 16.3451 30.4086 16.3445 30.4076 16.3439C30.4066 16.3433 30.4057 16.3427 30.4047 16.3421C30.4037 16.3415 30.4027 16.3409 30.4018 16.3403C30.4008 16.3396 30.3998 16.339 30.3988 16.3384C30.3979 16.3378 30.3969 16.3372 30.3959 16.3366C30.3949 16.336 30.3939 16.3354 30.393 16.3348C30.392 16.3342 30.391 16.3335 30.39 16.3329C30.3891 16.3323 30.3881 16.3317 30.3871 16.3311C30.3861 16.3305 30.3852 16.3299 30.3842 16.3293C30.3832 16.3287 30.3822 16.3281 30.3812 16.3274C30.3803 16.3268 30.3793 16.3262 30.3783 16.3256C30.3773 16.325 30.3764 16.3244 30.3754 16.3238C30.3744 16.3232 30.3734 16.3226 30.3725 16.3219C30.3715 16.3213 30.3705 16.3207 30.3695 16.3201C30.3686 16.3195 30.3676 16.3189 30.3666 16.3183C30.3656 16.3177 30.3646 16.3171 30.3637 16.3165C30.3627 16.3158 30.3617 16.3152 30.3607 16.3146C30.3598 16.314 30.3588 16.3134 30.3578 16.3128C30.3568 16.3122 30.3559 16.3116 30.3549 16.311C30.3539 16.3104 30.3529 16.3097 30.352 16.3091C30.351 16.3085 30.35 16.3079 30.349 16.3073C30.348 16.3067 30.3471 16.3061 30.3461 16.3055C30.3451 16.3049 30.3441 16.3042 30.3432 16.3036C30.3422 16.303 30.3412 16.3024 30.3402 16.3018C30.3393 16.3012 30.3383 16.3006 30.3373 16.3C30.3363 16.2994 30.3354 16.2988 30.3344 16.2981C30.3334 16.2975 30.3324 16.2969 30.3314 16.2963C30.3305 16.2957 30.3295 16.2951 30.3285 16.2945C30.3275 16.2939 30.3266 16.2933 30.3256 16.2927C30.3246 16.292 30.3236 16.2914 30.3227 16.2908C30.3217 16.2902 30.3207 16.2896 30.3197 16.289C30.3187 16.2884 30.3178 16.2878 30.3168 16.2872C30.3158 16.2865 30.3148 16.2859 30.3139 16.2853C30.3129 16.2847 30.3119 16.2841 30.3109 16.2835C30.31 16.2829 30.309 16.2823 30.308 16.2817C30.307 16.2811 30.3061 16.2804 30.3051 16.2798C30.3041 16.2792 30.3031 16.2786 30.3021 16.278C30.3012 16.2774 30.3002 16.2768 30.2992 16.2762C30.2982 16.2756 30.2973 16.275 30.2963 16.2743C30.2953 16.2737 30.2943 16.2731 30.2934 16.2725C30.2924 16.2719 30.2914 16.2713 30.2904 16.2707C30.2895 16.2701 30.2885 16.2695 30.2875 16.2688C30.2865 16.2682 30.2855 16.2676 30.2846 16.267C30.2836 16.2664 30.2826 16.2658 30.2816 16.2652C30.2807 16.2646 30.2797 16.264 30.2787 16.2634C30.2777 16.2627 30.2768 16.2621 30.2758 16.2615C30.2748 16.2609 30.2738 16.2603 30.2729 16.2597C30.2719 16.2591 30.2709 16.2585 30.2699 16.2579C30.2689 16.2572 30.268 16.2566 30.267 16.256C30.266 16.2554 30.265 16.2548 30.2641 16.2542C30.2631 16.2536 30.2621 16.253 30.2611 16.2524C30.2602 16.2518 30.2592 16.2511 30.2582 16.2505C30.2572 16.2499 30.2562 16.2493 30.2553 16.2487C30.2543 16.2481 30.2533 16.2475 30.2523 16.2469C30.2514 16.2463 30.2504 16.2457 30.2494 16.245C30.2484 16.2444 30.2475 16.2438 30.2465 16.2432C30.2455 16.2426 30.2445 16.242 30.2436 16.2414C30.2426 16.2408 30.2416 16.2402 30.2406 16.2395C30.2396 16.2389 30.2387 16.2383 30.2377 16.2377C30.2367 16.2371 30.2357 16.2365 30.2348 16.2359C30.2338 16.2353 30.2328 16.2347 30.2318 16.2341C30.2309 16.2334 30.2299 16.2328 30.2289 16.2322C30.2279 16.2316 30.227 16.231 30.226 16.2304C30.225 16.2298 30.224 16.2292 30.223 16.2286C30.2221 16.228 30.2211 16.2273 30.2201 16.2267C30.2191 16.2261 30.2182 16.2255 30.2172 16.2249C30.2162 16.2243 30.2152 16.2237 30.2143 16.2231C30.2133 16.2225 30.2123 16.2218 30.2113 16.2212C30.2104 16.2206 30.2094 16.22 30.2084 16.2194C30.2074 16.2188 30.2064 16.2182 30.2055 16.2176C30.2045 16.217 30.2035 16.2164 30.2025 16.2157C30.2016 16.2151 30.2006 16.2145 30.1996 16.2139C30.1986 16.2133 30.1977 16.2127 30.1967 16.2121C30.1957 16.2115 30.1947 16.2109 30.1937 16.2103C30.1928 16.2096 30.1918 16.209 30.1908 16.2084C30.1898 16.2078 30.1889 16.2072 30.1879 16.2066C30.1869 16.206 30.1859 16.2054 30.185 16.2048C30.184 16.2041 30.183 16.2035 30.182 16.2029C30.1811 16.2023 30.1801 16.2017 30.1791 16.2011C30.1781 16.2005 30.1771 16.1999 30.1762 16.1993C30.1752 16.1987 30.1742 16.198 30.1732 16.1974C30.1723 16.1968 30.1713 16.1962 30.1703 16.1956C30.1693 16.195 30.1684 16.1944 30.1674 16.1938C30.1664 16.1932 30.1654 16.1926 30.1645 16.1919C30.1635 16.1913 30.1625 16.1907 30.1615 16.1901C30.1605 16.1895 30.1596 16.1889 30.1586 16.1883C30.1576 16.1877 30.1566 16.1871 30.1557 16.1864C30.1547 16.1858 30.1537 16.1852 30.1527 16.1846C30.1518 16.184 30.1508 16.1834 30.1498 16.1828C30.1488 16.1822 30.1479 16.1816 30.1469 16.181C30.1459 16.1803 30.1449 16.1797 30.1439 16.1791C30.143 16.1785 30.142 16.1779 30.141 16.1773C30.14 16.1767 30.1391 16.1761 30.1381 16.1755C30.1371 16.1749 30.1361 16.1742 30.1352 16.1736C30.1342 16.173 30.1332 16.1724 30.1322 16.1718C30.1312 16.1712 30.1303 16.1706 30.1293 16.17C30.1283 16.1694 30.1273 16.1687 30.1264 16.1681C30.1254 16.1675 30.1244 16.1669 30.1234 16.1663C30.1225 16.1657 30.1215 16.1651 30.1205 16.1645C30.1195 16.1639 30.1186 16.1633 30.1176 16.1626C30.1166 16.162 30.1156 16.1614 30.1146 16.1608C30.1137 16.1602 30.1127 16.1596 30.1117 16.159C30.1107 16.1584 30.1098 16.1578 30.1088 16.1572C30.1078 16.1565 30.1068 16.1559 30.1059 16.1553C30.1049 16.1547 30.1039 16.1541 30.1029 16.1535C30.102 16.1529 30.101 16.1523 30.1 16.1517C30.099 16.151 30.098 16.1504 30.0971 16.1498C30.0961 16.1492 30.0951 16.1486 30.0941 16.148C30.0932 16.1474 30.0922 16.1468 30.0912 16.1462C30.0902 16.1456 30.0893 16.1449 30.0883 16.1443C30.0873 16.1437 30.0863 16.1431 30.0854 16.1425C30.0844 16.1419 30.0834 16.1413 30.0824 16.1407C30.0814 16.1401 30.0805 16.1395 30.0795 16.1388C30.0785 16.1382 30.0775 16.1376 30.0766 16.137C30.0756 16.1364 30.0746 16.1358 30.0736 16.1352C30.0727 16.1346 30.0717 16.134 30.0707 16.1333C30.0697 16.1327 30.0687 16.1321 30.0678 16.1315C30.0668 16.1309 30.0658 16.1303 30.0648 16.1297C30.0639 16.1291 30.0629 16.1285 30.0619 16.1279C30.0609 16.1272 30.06 16.1266 30.059 16.126C30.058 16.1254 30.057 16.1248 30.0561 16.1242C30.0551 16.1236 30.0541 16.123 30.0531 16.1224C30.0521 16.1218 30.0512 16.1211 30.0502 16.1205C30.0492 16.1199 30.0482 16.1193 30.0473 16.1187C30.0463 16.1181 30.0453 16.1175 30.0443 16.1169C30.0434 16.1163 30.0424 16.1156 30.0414 16.115C30.0404 16.1144 30.0395 16.1138 30.0385 16.1132C30.0375 16.1126 30.0365 16.112 30.0355 16.1114C30.0346 16.1108 30.0336 16.1102 30.0326 16.1095C30.0316 16.1089 30.0307 16.1083 30.0297 16.1077C30.0287 16.1071 30.0277 16.1065 30.0268 16.1059C30.0258 16.1053 30.0248 16.1047 30.0238 16.1041C30.0229 16.1034 30.0219 16.1028 30.0209 16.1022C30.0199 16.1016 30.0189 16.101 30.018 16.1004C30.017 16.0998 30.016 16.0992 30.015 16.0986C30.0141 16.0979 30.0131 16.0973 30.0121 16.0967C30.0111 16.0961 30.0102 16.0955 30.0092 16.0949C30.0082 16.0943 30.0072 16.0937 30.0062 16.0931C30.0053 16.0925 30.0043 16.0918 30.0033 16.0912C30.0023 16.0906 30.0014 16.09 30.0004 16.0894C29.9994 16.0888 29.9984 16.0882 29.9975 16.0876C29.9965 16.087 29.9955 16.0864 29.9945 16.0857C29.9936 16.0851 29.9926 16.0845 29.9916 16.0839C29.9906 16.0833 29.9896 16.0827 29.9887 16.0821C29.9877 16.0815 29.9867 16.0809 29.9857 16.0802C29.9848 16.0796 29.9838 16.079 29.9828 16.0784C29.9818 16.0778 29.9809 16.0772 29.9799 16.0766C29.9789 16.076 29.9779 16.0754 29.977 16.0748C29.976 16.0741 29.975 16.0735 29.974 16.0729C29.973 16.0723 29.9721 16.0717 29.9711 16.0711C29.9701 16.0705 29.9691 16.0699 29.9682 16.0693C29.9672 16.0687 29.9662 16.068 29.9652 16.0674C29.9643 16.0668 29.9633 16.0662 29.9623 16.0656C29.9613 16.065 29.9604 16.0644 29.9594 16.0638C29.9584 16.0632 29.9574 16.0625 29.9564 16.0619C29.9555 16.0613 29.9545 16.0607 29.9535 16.0601C29.9525 16.0595 29.9516 16.0589 29.9506 16.0583C29.9496 16.0577 29.9486 16.0571 29.9477 16.0564C29.9467 16.0558 29.9457 16.0552 29.9447 16.0546C29.9437 16.054 29.9428 16.0534 29.9418 16.0528C29.9408 16.0522 29.9398 16.0516 29.9389 16.051C29.9379 16.0503 29.9369 16.0497 29.9359 16.0491C29.935 16.0485 29.934 16.0479 29.933 16.0473C29.932 16.0467 29.9311 16.0461 29.9301 16.0455C29.9291 16.0448 29.9281 16.0442 29.9271 16.0436C29.9262 16.043 29.9252 16.0424 29.9242 16.0418C29.9232 16.0412 29.9223 16.0406 29.9213 16.04C29.9203 16.0394 29.9193 16.0387 29.9184 16.0381C29.9174 16.0375 29.9164 16.0369 29.9154 16.0363C29.9145 16.0357 29.9135 16.0351 29.9125 16.0345C29.9115 16.0339 29.9105 16.0333 29.9096 16.0326C29.9086 16.032 29.9076 16.0314 29.9066 16.0308C29.9057 16.0302 29.9047 16.0296 29.9037 16.029C29.9027 16.0284 29.9018 16.0278 29.9008 16.0271C29.8998 16.0265 29.8988 16.0259 29.8979 16.0253C29.8969 16.0247 29.8959 16.0241 29.8949 16.0235C29.8939 16.0229 29.893 16.0223 29.892 16.0217C29.891 16.021 29.89 16.0204 29.8891 16.0198C29.8881 16.0192 29.8871 16.0186 29.8861 16.018C29.8852 16.0174 29.8842 16.0168 29.8832 16.0162C29.8822 16.0156 29.8812 16.0149 29.8803 16.0143C29.8793 16.0137 29.8783 16.0131 29.8773 16.0125C29.8764 16.0119 29.8754 16.0113 29.8744 16.0107C29.8734 16.0101 29.8725 16.0094 29.8715 16.0088C29.8705 16.0082 29.8695 16.0076 29.8686 16.007C29.8676 16.0064 29.8666 16.0058 29.8656 16.0052C29.8646 16.0046 29.8637 16.004 29.8627 16.0033C29.8617 16.0027 29.8607 16.0021 29.8598 16.0015C29.8588 16.0009 29.8578 16.0003 29.8568 15.9997C29.8559 15.9991 29.8549 15.9985 29.8539 15.9979C29.8529 15.9972 29.852 15.9966 29.851 15.996C29.85 15.9954 29.849 15.9948 29.848 15.9942C29.8471 15.9936 29.8461 15.993 29.8451 15.9924C29.8441 15.9917 29.8432 15.9911 29.8422 15.9905C29.8412 15.9899 29.8402 15.9893 29.8393 15.9887C29.8383 15.9881 29.8373 15.9875 29.8363 15.9869C29.8354 15.9863 29.8344 15.9856 29.8334 15.985C29.8324 15.9844 29.8314 15.9838 29.8305 15.9832C29.8295 15.9826 29.8285 15.982 29.8275 15.9814C29.8266 15.9808 29.8256 15.9802 29.8246 15.9795C29.8236 15.9789 29.8227 15.9783 29.8217 15.9777C29.8207 15.9771 29.8197 15.9765 29.8187 15.9759C29.8178 15.9753 29.8168 15.9747 29.8158 15.974C29.8148 15.9734 29.8139 15.9728 29.8129 15.9722C29.8119 15.9716 29.8109 15.971 29.81 15.9704C29.809 15.9698 29.808 15.9692 29.807 15.9686C29.8061 15.9679 29.8051 15.9673 29.8041 15.9667C29.8031 15.9661 29.8021 15.9655 29.8012 15.9649C29.8002 15.9643 29.7992 15.9637 29.7982 15.9631C29.7973 15.9625 29.7963 15.9618 29.7953 15.9612C29.7943 15.9606 29.7934 15.96 29.7924 15.9594C29.7914 15.9588 29.7904 15.9582 29.7895 15.9576C29.7885 15.957 29.7875 15.9563 29.7865 15.9557C29.7855 15.9551 29.7846 15.9545 29.7836 15.9539C29.7826 15.9533 29.7816 15.9527 29.7807 15.9521C29.7797 15.9515 29.7787 15.9509 29.7777 15.9502C29.7768 15.9496 29.7758 15.949 29.7748 15.9484C29.7738 15.9478 29.7729 15.9472 29.7719 15.9466C29.7709 15.946 29.7699 15.9454 29.7689 15.9447C29.768 15.9441 29.767 15.9435 29.766 15.9429C29.765 15.9423 29.7641 15.9417 29.7631 15.9411C29.7621 15.9405 29.7611 15.9399 29.7602 15.9393C29.7592 15.9386 29.7582 15.938 29.7572 15.9374C29.7562 15.9368 29.7553 15.9362 29.7543 15.9356C29.7533 15.935 29.7523 15.9344 29.7514 15.9338C29.7504 15.9332 29.7494 15.9325 29.7484 15.9319C29.7475 15.9313 29.7465 15.9307 29.7455 15.9301C29.7445 15.9295 29.7436 15.9289 29.7426 15.9283C29.7416 15.9277 29.7406 15.927 29.7396 15.9264C29.7387 15.9258 29.7377 15.9252 29.7367 15.9246C29.7357 15.924 29.7348 15.9234 29.7338 15.9228C29.7328 15.9222 29.7318 15.9216 29.7309 15.9209C29.7299 15.9203 29.7289 15.9197 29.7279 15.9191C29.727 15.9185 29.726 15.9179 29.725 15.9173C29.724 15.9167 29.723 15.9161 29.7221 15.9155C29.7211 15.9148 29.7201 15.9142 29.7191 15.9136C29.7182 15.913 29.7172 15.9124 29.7162 15.9118C29.7152 15.9112 29.7143 15.9106 29.7133 15.91C29.7123 15.9093 29.7113 15.9087 29.7104 15.9081C29.7094 15.9075 29.7084 15.9069 29.7074 15.9063C29.7064 15.9057 29.7055 15.9051 29.7045 15.9045C29.7035 15.9039 29.7025 15.9032 29.7016 15.9026C29.7006 15.902 29.6996 15.9014 29.6986 15.9008C29.6977 15.9002 29.6967 15.8996 29.6957 15.899C29.6947 15.8984 29.6937 15.8978 29.6928 15.8971C29.6918 15.8965 29.6908 15.8959 29.6898 15.8953C29.6889 15.8947 29.6879 15.8941 29.6869 15.8935C29.6859 15.8929 29.685 15.8923 29.684 15.8916C29.683 15.891 29.682 15.8904 29.6811 15.8898C29.6801 15.8892 29.6791 15.8886 29.6781 15.888C29.6771 15.8874 29.6762 15.8868 29.6752 15.8862C29.6742 15.8855 29.6732 15.8849 29.6723 15.8843C29.6713 15.8837 29.6703 15.8831 29.6693 15.8825C29.6684 15.8819 29.6674 15.8813 29.6664 15.8807C29.6654 15.8801 29.6645 15.8794 29.6635 15.8788C29.6625 15.8782 29.6615 15.8776 29.6605 15.877C29.6596 15.8764 29.6586 15.8758 29.6576 15.8752C29.6566 15.8746 29.6557 15.8739 29.6547 15.8733C29.6537 15.8727 29.6527 15.8721 29.6518 15.8715C29.6508 15.8709 29.6498 15.8703 29.6488 15.8697C29.6479 15.8691 29.6469 15.8685 29.6459 15.8678C29.6449 15.8672 29.6439 15.8666 29.643 15.866C29.642 15.8654 29.641 15.8648 29.64 15.8642C29.6391 15.8636 29.6381 15.863 29.6371 15.8624C29.6361 15.8617 29.6352 15.8611 29.6342 15.8605C29.6332 15.8599 29.6322 15.8593 29.6312 15.8587C29.6303 15.8581 29.6293 15.8575 29.6283 15.8569C29.6273 15.8562 29.6264 15.8556 29.6254 15.855C29.6244 15.8544 29.6234 15.8538 29.6225 15.8532C29.6215 15.8526 29.6205 15.852 29.6195 15.8514C29.6186 15.8508 29.6176 15.8501 29.6166 15.8495C29.6156 15.8489 29.6146 15.8483 29.6137 15.8477C29.6127 15.8471 29.6117 15.8465 29.6107 15.8459C29.6098 15.8453 29.6088 15.8447 29.6078 15.844C29.6068 15.8434 29.6059 15.8428 29.6049 15.8422C29.6039 15.8416 29.6029 15.841 29.602 15.8404C29.601 15.8398 29.6 15.8392 29.599 15.8385C29.598 15.8379 29.5971 15.8373 29.5961 15.8367C29.5951 15.8361 29.5941 15.8355 29.5932 15.8349C29.5922 15.8343 29.5912 15.8337 29.5902 15.8331C29.5893 15.8324 29.5883 15.8318 29.5873 15.8312C29.5863 15.8306 29.5854 15.83 29.5844 15.8294C29.5834 15.8288 29.5824 15.8282 29.5814 15.8276C29.5805 15.827 29.5795 15.8263 29.5785 15.8257C29.5775 15.8251 29.5766 15.8245 29.5756 15.8239C29.5746 15.8233 29.5736 15.8227 29.5727 15.8221C29.5717 15.8215 29.5707 15.8208 29.5697 15.8202C29.5687 15.8196 29.5678 15.819 29.5668 15.8184C29.5658 15.8178 29.5648 15.8172 29.5639 15.8166C29.5629 15.816 29.5619 15.8154 29.5609 15.8147C29.56 15.8141 29.559 15.8135 29.558 15.8129C29.557 15.8123 29.5561 15.8117 29.5551 15.8111C29.5541 15.8105 29.5531 15.8099 29.5521 15.8093C29.5512 15.8086 29.5502 15.808 29.5492 15.8074C29.5482 15.8068 29.5473 15.8062 29.5463 15.8056C29.5453 15.805 29.5443 15.8044 29.5434 15.8038C29.5424 15.8031 29.5414 15.8025 29.5404 15.8019C29.5395 15.8013 29.5385 15.8007 29.5375 15.8001C29.5365 15.7995 29.5355 15.7989 29.5346 15.7983C29.5336 15.7977 29.5326 15.797 29.5316 15.7964C29.5307 15.7958 29.5297 15.7952 29.5287 15.7946C29.5277 15.794 29.5268 15.7934 29.5258 15.7928C29.5248 15.7922 29.5238 15.7916 29.5229 15.7909C29.5219 15.7903 29.5209 15.7897 29.5199 15.7891C29.5189 15.7885 29.518 15.7879 29.517 15.7873C29.516 15.7867 29.515 15.7861 29.5141 15.7854C29.5131 15.7848 29.5121 15.7842 29.5111 15.7836C29.5102 15.783 29.5092 15.7824 29.5082 15.7818C29.5072 15.7812 29.5062 15.7806 29.5053 15.78C29.5043 15.7793 29.5033 15.7787 29.5023 15.7781C29.5014 15.7775 29.5004 15.7769 29.4994 15.7763C29.4984 15.7757 29.4975 15.7751 29.4965 15.7745C29.4955 15.7739 29.4945 15.7732 29.4936 15.7726C29.4926 15.772 29.4916 15.7714 29.4906 15.7708C29.4896 15.7702 29.4887 15.7696 29.4877 15.769C29.4867 15.7684 29.4857 15.7677 29.4848 15.7671C29.4838 15.7665 29.4828 15.7659 29.4818 15.7653C29.4809 15.7647 29.4799 15.7641 29.4789 15.7635C29.4779 15.7629 29.477 15.7623 29.476 15.7616C29.475 15.761 29.474 15.7604 29.473 15.7598C29.4721 15.7592 29.4711 15.7586 29.4701 15.758C29.4691 15.7574 29.4682 15.7568 29.4672 15.7562C29.4662 15.7555 29.4652 15.7549 29.4643 15.7543C29.4633 15.7537 29.4623 15.7531 29.4613 15.7525C29.4604 15.7519 29.4594 15.7513 29.4584 15.7507C29.4574 15.75 29.4564 15.7494 29.4555 15.7488C29.4545 15.7482 29.4535 15.7476 29.4525 15.747C29.4516 15.7464 29.4506 15.7458 29.4496 15.7452C29.4486 15.7446 29.4477 15.7439 29.4467 15.7433C29.4457 15.7427 29.4447 15.7421 29.4437 15.7415L27.3238 19.1335ZM28.8495 20.0868C29.5379 20.5027 30.3026 20.8095 31.1203 21.0267L32.1472 17.1608C31.6316 17.0238 31.2296 16.8514 30.918 16.6632L28.8495 20.0868ZM31.1277 21.0287C32.0375 21.2666 32.9615 21.3358 33.8857 21.2184L33.3818 17.2503C32.9935 17.2996 32.5842 17.2751 32.1398 17.1588L31.1277 21.0287ZM33.9101 21.2152C34.8503 21.084 35.6809 20.6268 36.2829 19.8627L33.1409 17.3873C33.1567 17.3672 33.1949 17.3281 33.2551 17.294C33.2827 17.2784 33.308 17.2679 33.328 17.2613C33.3477 17.2549 33.3585 17.2534 33.3574 17.2536L33.9101 21.2152ZM36.2781 19.8688C36.7986 19.2133 37.1427 18.396 37.1174 17.4616L33.1189 17.5697C33.1171 17.5042 33.129 17.4416 33.1463 17.3943C33.1622 17.3511 33.1727 17.3472 33.1457 17.3812L36.2781 19.8688ZM37.1174 17.463C37.0925 16.5147 36.6809 15.559 35.7465 14.9583L33.5835 18.323C33.4521 18.2385 33.3154 18.1019 33.221 17.9197C33.1319 17.7475 33.1199 17.6113 33.1188 17.5682L37.1174 17.463ZM35.694 14.9256C35.4024 14.7507 34.7268 14.4443 33.8952 14.0769L32.2785 17.7356C32.7214 17.9313 33.0635 18.0855 33.3095 18.2C33.4328 18.2574 33.5248 18.3014 33.5895 18.3336C33.6667 18.3719 33.6691 18.3755 33.636 18.3556L35.694 14.9256ZM33.8952 14.0769C33.044 13.7008 32.2367 13.3067 31.4726 12.8953L29.5762 16.4172C30.4371 16.8808 31.3381 17.3201 32.2785 17.7356L33.8952 14.0769ZM31.4899 12.9048C31.1373 12.7104 30.8881 12.549 30.7216 12.4233C30.5425 12.2881 30.5245 12.243 30.5646 12.2998L27.2967 14.6065C27.8289 15.3604 28.7168 15.9435 29.5588 16.4077L31.4899 12.9048ZM30.539 12.2643C30.4776 12.1813 30.4738 12.1508 30.4802 12.1728C30.4834 12.1838 30.4876 12.2027 30.4893 12.2275C30.491 12.2524 30.4898 12.2756 30.4869 12.2946L26.5306 11.7054C26.3641 12.8229 26.7218 13.8295 27.3223 14.6419L30.539 12.2643ZM30.4804 12.3356C30.5035 12.2001 30.553 12.0891 30.6512 11.9719L27.5851 9.40306C27.0374 10.0567 26.6807 10.8207 26.5371 11.6644L30.4804 12.3356ZM30.6479 11.9758C30.9022 11.6738 31.2264 11.3465 31.6311 10.9958L29.0114 7.973C28.4786 8.43475 28.0007 8.90952 27.5883 9.39923L30.6479 11.9758ZM31.6336 10.9936C32.0851 10.601 32.5099 10.2538 32.9083 9.95024L30.4842 6.76851C30.0076 7.13159 29.5158 7.53441 29.0089 7.97516L31.6336 10.9936ZM32.9319 9.93201C33.4704 9.50889 33.9528 9.04527 34.3631 8.53591L31.2481 6.02659C31.0543 6.26723 30.7971 6.52236 30.4606 6.78674L32.9319 9.93201ZM34.3797 8.51501C34.8343 7.93508 35.2887 7.10227 35.2234 6.08999L31.2316 6.34751C31.2199 6.16547 31.2591 6.03816 31.2788 5.9885C31.296 5.94528 31.2962 5.96495 31.2315 6.04749L34.3797 8.51501Z" fill="#FE7E00" mask="url(#path-1-outside-1_2098_18596)"/>
</svg>
