<svg width="37" height="24" viewBox="0 0 37 24" fill="none" xmlns="http://www.w3.org/2000/svg">
<mask id="path-1-outside-1_2098_18601" maskUnits="userSpaceOnUse" x="-2" y="-2" width="41" height="27" fill="black">
<rect fill="white" x="-2" y="-2" width="41" height="27"/>
<path d="M6.73438 1.17188C6.95312 1.20312 7.23438 1.23438 7.57812 1.26562C7.92188 1.29688 8.15625 1.32292 8.28125 1.34375C8.40625 1.36458 8.58854 1.41146 8.82812 1.48438C9.06771 1.54688 9.29688 1.64583 9.51562 1.78125C9.74479 1.90625 10.026 2.08333 10.3594 2.3125C11.9531 3.40625 13.1979 4.83854 14.0938 6.60938C14.9896 8.38021 15.4531 10.3125 15.4844 12.4062C15.5156 14.8646 14.8021 17.1094 13.3438 19.1406C11.8854 21.1719 10.1094 22.401 8.01562 22.8281C6.89062 23.0573 5.88021 23.0521 4.98438 22.8125C4.08854 22.5729 3.35417 22.1562 2.78125 21.5625C2.21875 20.9688 1.75 20.2396 1.375 19.375C1 18.5104 0.744792 17.5677 0.609375 16.5469C0.473958 15.5156 0.411458 14.4531 0.421875 13.3594C0.432292 12.2552 0.520833 11.1719 0.6875 10.1094C0.864583 9.04688 1.09375 8.04688 1.375 7.10938C1.65625 6.16146 1.97396 5.33854 2.32812 4.64062C2.51562 4.27604 2.73438 3.89583 2.98438 3.5C3.23438 3.10417 3.53125 2.68229 3.875 2.23438C4.21875 1.78646 4.58854 1.41146 4.98438 1.10938C5.39062 0.807292 5.77604 0.635417 6.14062 0.59375C6.32812 0.572917 6.48438 0.619792 6.60938 0.734375C6.73438 0.848958 6.77604 0.994792 6.73438 1.17188ZM5.75 12.8906C5.39583 15.099 5.59896 16.6562 6.35938 17.5625C6.86979 18.1771 7.50521 18.349 8.26562 18.0781C9.03646 17.7969 9.67188 17.1458 10.1719 16.125C10.974 14.5208 11.1615 12.5625 10.7344 10.25C10.4427 8.64583 9.98438 7.51042 9.35938 6.84375C8.70312 6.14583 8.06771 6.24479 7.45312 7.14062C6.76562 8.15104 6.19792 10.0677 5.75 12.8906ZM27.7119 13.9844C26.9202 13.7135 26.2535 13.2656 25.7119 12.6406C25.1806 12.0156 24.8056 11.3125 24.5869 10.5312C24.3681 9.73958 24.2327 8.90104 24.1806 8.01562C24.1285 7.11979 24.1754 6.25521 24.3213 5.42188C24.4775 4.57812 24.6702 3.8125 24.8994 3.125C25.1285 2.42708 25.3994 1.85938 25.7119 1.42188C26.0348 0.973958 26.3473 0.729167 26.6494 0.6875C27.4931 0.541667 28.1494 0.604167 28.6181 0.875C29.0973 1.13542 29.3942 1.54167 29.5088 2.09375C29.6338 2.63542 29.6858 3.25521 29.665 3.95312C29.6442 4.65104 29.6025 5.36979 29.54 6.10938C29.4879 6.84896 29.4775 7.53125 29.5088 8.15625C29.54 8.78125 29.7119 9.30729 30.0244 9.73438C30.3473 10.1615 30.8317 10.401 31.4775 10.4531C31.9775 10.4948 32.3785 10.25 32.6806 9.71875C32.9931 9.17708 33.2119 8.48958 33.3369 7.65625C33.4619 6.82292 33.5556 5.97917 33.6181 5.125C33.6806 4.26042 33.7535 3.46875 33.8369 2.75C33.9202 2.02083 34.0348 1.55729 34.1806 1.35938C34.5452 0.869792 35.0296 0.671875 35.6338 0.765625C36.2483 0.859375 36.6806 1.23438 36.9306 1.89062C36.9306 1.90104 36.9202 3.30208 36.8994 6.09375C36.8785 8.88542 36.8473 11.849 36.8056 14.9844C36.7744 18.1094 36.7535 20.0781 36.7431 20.8906C36.7327 21.599 36.5713 22.1302 36.2588 22.4844C35.9463 22.8281 35.566 22.9948 35.1181 22.9844C34.6806 22.974 34.2327 22.8906 33.7744 22.7344C33.3265 22.5781 32.941 22.3698 32.6181 22.1094C32.2952 21.8385 32.1129 21.6042 32.0713 21.4062C32.04 21.1042 32.0244 20.8594 32.0244 20.6719C32.0348 20.4844 32.0556 20.2135 32.0869 19.8594C32.1181 19.5052 32.1338 19.2552 32.1338 19.1094C32.2067 16.5365 32.2015 14.9271 32.1181 14.2812C30.6077 14.5833 29.139 14.4844 27.7119 13.9844Z"/>
</mask>
<path d="M6.73438 1.17188L4.78754 0.713797L4.28667 2.84251L6.45153 3.15177L6.73438 1.17188ZM8.82812 1.48438L8.2458 3.39772L8.28432 3.40945L8.32328 3.41961L8.82812 1.48438ZM9.51562 1.78125L8.46292 3.48178L8.50966 3.51072L8.55792 3.53704L9.51562 1.78125ZM10.3594 2.3125L9.22632 3.96058L9.22769 3.96153L10.3594 2.3125ZM15.4844 12.4062L17.4842 12.3808L17.4842 12.3764L15.4844 12.4062ZM8.01562 22.8281L8.41483 24.7879L8.41535 24.7878L8.01562 22.8281ZM2.78125 21.5625L1.32934 22.938L1.33565 22.9446L1.34201 22.9512L2.78125 21.5625ZM0.609375 16.5469L-1.3736 16.8073L-1.37326 16.8099L0.609375 16.5469ZM0.421875 13.3594L2.42178 13.3784L2.42179 13.3782L0.421875 13.3594ZM0.6875 10.1094L-1.28529 9.78058L-1.28686 9.79L-1.28834 9.79944L0.6875 10.1094ZM1.375 7.10938L3.29066 7.68407L3.29238 7.67827L1.375 7.10938ZM2.32812 4.64062L0.549523 3.72592L0.544626 3.73557L2.32812 4.64062ZM4.98438 1.10938L3.79097 -0.49555L3.78095 -0.488101L3.77103 -0.480528L4.98438 1.10938ZM6.14062 0.59375L5.91976 -1.39403L5.91353 -1.39332L6.14062 0.59375ZM5.75 12.8906L7.72477 13.2073L7.72529 13.204L5.75 12.8906ZM6.35938 17.5625L7.89797 16.2847L7.89148 16.2769L6.35938 17.5625ZM8.26562 18.0781L8.93666 19.9622L8.94392 19.9596L8.95115 19.957L8.26562 18.0781ZM10.1719 16.125L8.38302 15.2306L8.37936 15.2379L8.37575 15.2453L10.1719 16.125ZM10.7344 10.25L8.76663 10.6078L8.76764 10.6132L10.7344 10.25ZM9.35938 6.84375L10.8185 5.47587L10.8164 5.4737L9.35938 6.84375ZM7.45312 7.14062L5.80391 6.00919L5.79959 6.01554L7.45312 7.14062ZM6.45153 3.15177C6.71731 3.18974 7.03586 3.22458 7.39705 3.25741L7.7592 -0.726161C7.43289 -0.755825 7.18894 -0.783493 7.01722 -0.808024L6.45153 3.15177ZM7.39705 3.25741C7.56112 3.27233 7.69144 3.28531 7.79086 3.29636C7.84035 3.30186 7.87906 3.30653 7.90831 3.31035C7.92276 3.31223 7.93375 3.31376 7.94167 3.31491C7.94975 3.31608 7.95308 3.31664 7.95245 3.31654L8.61005 -0.629038C8.40117 -0.663851 8.09597 -0.695546 7.7592 -0.726161L7.39705 3.25741ZM7.95245 3.31654C7.93795 3.31412 7.95439 3.31628 8.01364 3.33152C8.06909 3.34578 8.14544 3.36718 8.2458 3.39772L9.41045 -0.428973C9.1514 -0.507813 8.8679 -0.586062 8.61005 -0.629038L7.95245 3.31654ZM8.32328 3.41961C8.36208 3.42973 8.40736 3.44739 8.46292 3.48178L10.5683 0.0807199C10.1864 -0.155721 9.77333 -0.335982 9.33297 -0.450859L8.32328 3.41961ZM8.55792 3.53704C8.7036 3.6165 8.92248 3.7517 9.22632 3.96058L11.4924 0.664416C11.1296 0.41497 10.786 0.195996 10.4733 0.0254593L8.55792 3.53704ZM9.22769 3.96153C10.537 4.86008 11.5606 6.03263 12.3091 7.51219L15.8784 5.70656C14.8352 3.64445 13.3692 1.95242 11.4911 0.663473L9.22769 3.96153ZM12.3091 7.51219C13.0604 8.99722 13.4576 10.6287 13.4846 12.4361L17.4842 12.3764C17.4486 9.99627 16.9188 7.7632 15.8784 5.70656L12.3091 7.51219ZM13.4845 12.4317C13.5103 14.4551 12.9329 16.2836 11.7191 17.9742L14.9684 20.307C16.6713 17.9352 17.521 15.2741 17.4842 12.3808L13.4845 12.4317ZM11.7191 17.9742C10.5013 19.6705 9.13319 20.559 7.6159 20.8685L8.41535 24.7878C11.0856 24.2431 13.2696 22.6733 14.9684 20.307L11.7191 17.9742ZM7.61642 20.8684C6.72399 21.0502 6.03516 21.0232 5.5011 20.8804L4.46765 24.7446C5.72526 25.0809 7.05726 25.0644 8.41483 24.7879L7.61642 20.8684ZM5.5011 20.8804C4.91185 20.7228 4.51076 20.4746 4.22049 20.1738L1.34201 22.9512C2.19757 23.8379 3.26523 24.423 4.46765 24.7446L5.5011 20.8804ZM4.23316 20.187C3.85355 19.7863 3.50591 19.2618 3.20984 18.5792L-0.459842 20.1708C-0.00590521 21.2174 0.583953 22.1512 1.32934 22.938L4.23316 20.187ZM3.20984 18.5792C2.91502 17.8994 2.70531 17.138 2.59201 16.2839L-1.37326 16.8099C-1.21572 17.9974 -0.915017 19.1214 -0.459842 20.1708L3.20984 18.5792ZM2.59235 16.2865C2.46971 15.3525 2.41221 14.3835 2.42178 13.3784L-1.57803 13.3403C-1.5893 14.5227 -1.52179 15.6788 -1.3736 16.8073L2.59235 16.2865ZM2.42179 13.3782C2.43131 12.369 2.51218 11.383 2.66334 10.4193L-1.28834 9.79944C-1.47051 10.9608 -1.56672 12.1415 -1.57804 13.3405L2.42179 13.3782ZM2.66029 10.4382C2.82488 9.45059 3.03587 8.53333 3.29065 7.68407L-0.540653 6.53468C-0.848375 7.56042 -1.09572 8.64316 -1.28529 9.78058L2.66029 10.4382ZM3.29238 7.67827C3.54777 6.81751 3.82421 6.11205 4.11162 5.54568L0.544626 3.73557C0.123704 4.56503 -0.235273 5.5054 -0.542384 6.54048L3.29238 7.67827ZM4.1067 5.55532C4.26382 5.24982 4.45248 4.92086 4.67535 4.56799L1.2934 2.43201C1.01627 2.8708 0.767434 3.30226 0.549549 3.72593L4.1067 5.55532ZM4.67535 4.56799C4.88707 4.23277 5.14766 3.86111 5.46162 3.45201L2.28838 1.01674C1.91484 1.50347 1.58168 1.97556 1.2934 2.43201L4.67535 4.56799ZM5.46162 3.45201C5.71201 3.12575 5.95948 2.8811 6.19772 2.69928L3.77103 -0.480528C3.21761 -0.0581799 2.72549 0.447171 2.28838 1.01674L5.46162 3.45201ZM6.17778 2.7143C6.28569 2.63406 6.35745 2.59623 6.39269 2.58051C6.42632 2.56551 6.4161 2.57529 6.36772 2.58082L5.91353 -1.39332C5.09055 -1.29926 4.37744 -0.931645 3.79097 -0.49555L6.17778 2.7143ZM6.36149 2.58152C6.22935 2.5962 6.0404 2.59393 5.82374 2.52893C5.60147 2.46225 5.40872 2.34691 5.25793 2.20868L7.96082 -0.739933C7.35953 -1.29112 6.60863 -1.47056 5.91976 -1.39402L6.36149 2.58152ZM5.25793 2.20868C5.08119 2.04667 4.90361 1.80213 4.81133 1.47913C4.7213 1.16404 4.74574 0.89144 4.78754 0.713797L8.68121 1.62995C8.8738 0.81146 8.66532 -0.0941448 7.96082 -0.739933L5.25793 2.20868ZM3.77524 12.5739C3.4038 14.8899 3.47141 17.2322 4.82727 18.8481L7.89148 16.2769C7.72651 16.0803 7.38786 15.308 7.72476 13.2073L3.77524 12.5739ZM4.8208 18.8403C5.28216 19.3958 5.90231 19.8681 6.69653 20.083C7.48881 20.2973 8.26062 20.203 8.93666 19.9622L7.59459 16.1941C7.54959 16.2101 7.54583 16.2055 7.57731 16.2032C7.61197 16.2008 7.67051 16.2027 7.74097 16.2217C7.8116 16.2408 7.8652 16.2694 7.89741 16.2915C7.92698 16.3118 7.92495 16.3172 7.89795 16.2847L4.8208 18.8403ZM8.95115 19.957C10.3685 19.4398 11.3294 18.3085 11.968 17.0047L8.37575 15.2453C8.01433 15.9832 7.70447 16.1539 7.5801 16.1993L8.95115 19.957ZM11.9607 17.0194C13.01 14.9208 13.1826 12.4937 12.7011 9.88677L8.76764 10.6132C9.14033 12.6313 8.93789 14.1208 8.38302 15.2306L11.9607 17.0194ZM12.7021 9.89223C12.3885 8.16757 11.8419 6.56751 10.8184 5.47587L7.9003 8.21163C8.12689 8.45332 8.49688 9.12409 8.76663 10.6078L12.7021 9.89223ZM10.8164 5.4737C10.2701 4.89269 9.33004 4.22412 8.08286 4.41835C6.94544 4.59549 6.21912 5.40399 5.80392 6.0092L9.10233 8.27205C9.18114 8.15717 9.20702 8.14835 9.16338 8.18308C9.11308 8.22311 8.95617 8.33056 8.69839 8.37071C8.42532 8.41324 8.18701 8.35707 8.02973 8.28414C7.89446 8.22142 7.85635 8.16489 7.90234 8.2138L10.8164 5.4737ZM5.79959 6.01554C4.83653 7.43094 4.22289 9.75265 3.77471 12.5772L7.72529 13.204C8.17295 10.3828 8.69472 8.87114 9.10666 8.26571L5.79959 6.01554ZM27.7119 13.9844L28.3732 12.0969L28.3662 12.0944L28.3593 12.092L27.7119 13.9844ZM25.7119 12.6406L24.188 13.9359L24.1942 13.9432L24.2005 13.9505L25.7119 12.6406ZM24.5869 10.5312L22.6591 11.0639L22.6609 11.0705L24.5869 10.5312ZM24.1806 8.01562L22.184 8.13171L22.1841 8.13307L24.1806 8.01562ZM24.3213 5.42188L22.3547 5.0577L22.3529 5.0674L22.3512 5.07711L24.3213 5.42188ZM24.8994 3.125L26.7968 3.75746L26.7996 3.74894L24.8994 3.125ZM25.7119 1.42188L24.0895 0.25226L24.0844 0.259398L25.7119 1.42188ZM26.6494 0.6875L26.9227 2.66874L26.9564 2.66408L26.99 2.65828L26.6494 0.6875ZM28.6181 0.875L27.6176 2.60673L27.6402 2.61979L27.6631 2.63225L28.6181 0.875ZM29.5088 2.09375L27.5505 2.50018L27.555 2.52188L27.56 2.54347L29.5088 2.09375ZM29.54 6.10938L27.5471 5.94096L27.5459 5.95491L27.5449 5.96888L29.54 6.10938ZM30.0244 9.73438L28.4103 10.9154L28.4196 10.9281L28.4291 10.9406L30.0244 9.73438ZM31.4775 10.4531L31.6436 8.46003L31.6383 8.4596L31.4775 10.4531ZM32.6806 9.71875L30.9482 8.71929L30.942 8.73015L32.6806 9.71875ZM33.3369 7.65625L31.359 7.35957L33.3369 7.65625ZM33.6181 5.125L35.6128 5.27095L35.6129 5.2692L33.6181 5.125ZM33.8369 2.75L35.8236 2.98034L35.8239 2.97709L33.8369 2.75ZM34.1806 1.35938L32.5765 0.164827L32.5705 0.172976L34.1806 1.35938ZM35.6338 0.765625L35.3271 2.74198L35.3322 2.74275L35.6338 0.765625ZM36.9306 1.89062H38.9306V1.52257L38.7996 1.17863L36.9306 1.89062ZM36.8056 14.9844L34.8058 14.9578L34.8057 14.9644L36.8056 14.9844ZM36.7431 20.8906L38.7429 20.92L38.743 20.9163L36.7431 20.8906ZM36.2588 22.4844L37.7386 23.8297L37.7486 23.8187L37.7584 23.8076L36.2588 22.4844ZM35.1181 22.9844L35.0705 24.9838L35.0716 24.9838L35.1181 22.9844ZM33.7744 22.7344L33.1156 24.6228L33.1223 24.6251L33.129 24.6274L33.7744 22.7344ZM32.6181 22.1094L31.3329 23.6418L31.3476 23.6541L31.3626 23.6662L32.6181 22.1094ZM32.0713 21.4062L30.0819 21.612L30.0926 21.716L30.1142 21.8183L32.0713 21.4062ZM32.0244 20.6719L30.0275 20.5609L30.0244 20.6164V20.6719H32.0244ZM32.1338 19.1094L30.1346 19.0527L30.1338 19.081V19.1094H32.1338ZM32.1181 14.2812L34.1017 14.0253L33.8274 11.8998L31.7259 12.3201L32.1181 14.2812ZM28.3593 12.092C27.8979 11.9342 27.5306 11.6854 27.2233 11.3308L24.2005 13.9505C24.9765 14.8458 25.9425 15.4929 27.0645 15.8767L28.3593 12.092ZM27.2358 11.3453C26.8894 10.9378 26.6528 10.492 26.5128 9.99199L22.6609 11.0705C22.9584 12.133 23.4719 13.0934 24.188 13.9359L27.2358 11.3453ZM26.5146 9.99858C26.3362 9.35282 26.2216 8.65424 26.1772 7.89818L22.1841 8.13307C22.2438 9.14784 22.4 10.1263 22.6591 11.0639L26.5146 9.99858ZM26.1773 7.89954C26.1336 7.14853 26.1737 6.43898 26.2913 5.76664L22.3512 5.07711C22.1772 6.07144 22.1235 7.09105 22.184 8.13171L26.1773 7.89954ZM26.2878 5.78605C26.4302 5.01719 26.6016 4.34302 26.7967 3.75746L23.002 2.49254C22.7389 3.28198 22.5248 4.13906 22.3547 5.0577L26.2878 5.78605ZM26.7996 3.74894C26.987 3.17807 27.1786 2.80933 27.3393 2.58435L24.0844 0.259398C23.6201 0.909424 23.2701 1.6761 22.9992 2.50106L26.7996 3.74894ZM27.3342 2.59148C27.4252 2.46531 27.4587 2.44786 27.4218 2.4768C27.3816 2.5083 27.2124 2.62877 26.9227 2.66874L26.3761 -1.29374C25.2307 -1.13575 24.4944 -0.309394 24.0895 0.252272L27.3342 2.59148ZM26.99 2.65828C27.2859 2.60713 27.4771 2.60573 27.5848 2.61599C27.688 2.62583 27.6798 2.64269 27.6176 2.60673L29.6187 -0.85673C28.5673 -1.46418 27.3609 -1.46513 26.3087 -1.28328L26.99 2.65828ZM27.6631 2.63225C27.6668 2.63426 27.6571 2.62939 27.6401 2.61473C27.6226 2.59972 27.6032 2.57946 27.5854 2.55503C27.5676 2.53073 27.5566 2.50956 27.5509 2.49607C27.5453 2.48319 27.5469 2.48288 27.5505 2.50018L31.467 1.68732C31.2376 0.581779 30.5889 -0.330223 29.5732 -0.882249L27.6631 2.63225ZM27.56 2.54347C27.6381 2.88201 27.6829 3.3252 27.6659 3.89345L31.6641 4.0128C31.6888 3.18521 31.6294 2.38882 31.4575 1.64403L27.56 2.54347ZM27.6659 3.89345C27.6462 4.55289 27.6067 5.23532 27.5471 5.94096L31.5329 6.27779C31.5983 5.50427 31.6421 4.7492 31.6641 4.0128L27.6659 3.89345ZM27.5449 5.96888C27.4882 6.77432 27.4753 7.53801 27.5112 8.25612L31.5063 8.05638C31.4797 7.52449 31.4876 6.9236 31.5351 6.24987L27.5449 5.96888ZM27.5112 8.25612C27.5584 9.19874 27.8278 10.1192 28.4103 10.9154L31.6384 8.55335C31.596 8.49534 31.5216 8.36376 31.5063 8.05638L27.5112 8.25612ZM28.4291 10.9406C29.1675 11.9172 30.2323 12.3592 31.3167 12.4467L31.6383 8.4596C31.5188 8.44996 31.4914 8.42922 31.5166 8.44168C31.5291 8.44791 31.5486 8.45946 31.5703 8.4774C31.5921 8.49538 31.6087 8.51366 31.6197 8.52816L28.4291 10.9406ZM31.3114 12.4462C31.9538 12.4998 32.6074 12.3668 33.1953 12.0079C33.7593 11.6636 34.1496 11.1815 34.4192 10.7074L30.942 8.73015C30.9096 8.7872 30.9483 8.69315 31.1113 8.59367C31.1938 8.54329 31.2903 8.50302 31.3941 8.47963C31.4965 8.45654 31.5831 8.45499 31.6436 8.46003L31.3114 12.4462ZM34.413 10.7182C34.8858 9.89869 35.1647 8.95302 35.3147 7.95293L31.359 7.35957C31.259 8.02614 31.1005 8.45548 30.9483 8.71931L34.413 10.7182ZM35.3147 7.95293C35.4474 7.06878 35.5467 6.17473 35.6128 5.27095L31.6235 4.97905C31.5646 5.7836 31.4764 6.57706 31.359 7.35957L35.3147 7.95293ZM35.6129 5.2692C35.6737 4.42797 35.7441 3.66551 35.8236 2.98034L31.8502 2.51966C31.763 3.27199 31.6875 4.09286 31.6233 4.9808L35.6129 5.2692ZM35.8239 2.97709C35.8604 2.65769 35.898 2.45236 35.9269 2.33541C35.941 2.27833 35.9468 2.26815 35.9381 2.29028C35.9327 2.30405 35.8918 2.40866 35.7907 2.54577L32.5705 0.172976C32.2557 0.600268 32.116 1.08344 32.0438 1.37553C31.9581 1.72212 31.8966 2.11315 31.8498 2.52291L35.8239 2.97709ZM35.7847 2.55391C35.7863 2.55183 35.7214 2.63486 35.5738 2.69516C35.4264 2.75538 35.3229 2.74132 35.3271 2.74197L35.9404 -1.21072C35.3405 -1.30382 34.6926 -1.2658 34.0609 -1.00766C33.4289 -0.749444 32.9396 -0.322664 32.5765 0.164843L35.7847 2.55391ZM35.3322 2.74275C35.3227 2.74131 35.2898 2.73491 35.2432 2.71404C35.1955 2.69269 35.1487 2.66297 35.1084 2.62796C35.0249 2.55553 35.0277 2.51356 35.0616 2.60262L38.7996 1.17863C38.3333 -0.0454969 37.367 -0.993119 35.9353 -1.2115L35.3322 2.74275ZM34.9306 1.89062C34.9306 1.88592 34.9282 2.22421 34.9229 2.93435C34.9177 3.63484 34.9098 4.683 34.8994 6.07882L38.8993 6.10868C38.9201 3.32681 38.9306 1.91099 38.9306 1.89062H34.9306ZM34.8994 6.07882C34.8786 8.86617 34.8474 11.8258 34.8058 14.9578L38.8055 15.011C38.8472 11.8721 38.8785 8.90466 38.8993 6.10868L34.8994 6.07882ZM34.8057 14.9644C34.7745 18.0904 34.7537 20.0559 34.7433 20.865L38.743 20.9163C38.7534 20.1003 38.7743 18.1284 38.8055 15.0044L34.8057 14.9644ZM34.7433 20.8612C34.7402 21.077 34.7144 21.1936 34.7006 21.2387C34.6887 21.278 34.6955 21.2332 34.7591 21.1611L37.7584 23.8076C38.5115 22.9542 38.7289 21.875 38.7429 20.92L34.7433 20.8612ZM34.7789 21.139C34.789 21.1279 34.84 21.0776 34.9363 21.0354C35.0344 20.9924 35.1201 20.9839 35.1646 20.9849L35.0716 24.9838C36.1231 25.0083 37.0526 24.5843 37.7386 23.8297L34.7789 21.139ZM35.1657 20.9849C34.9521 20.9799 34.7057 20.9389 34.4197 20.8414L33.129 24.6274C33.7597 24.8424 34.4091 24.9681 35.0705 24.9838L35.1657 20.9849ZM34.4331 20.846C34.171 20.7545 33.9945 20.65 33.8736 20.5525L31.3626 23.6662C31.8876 24.0896 32.4819 24.4017 33.1156 24.6228L34.4331 20.846ZM33.9034 20.577C33.8091 20.4979 33.7946 20.4726 33.8179 20.5026C33.8316 20.5202 33.8659 20.5666 33.9047 20.6415C33.9435 20.7164 33.9949 20.8354 34.0284 20.9942L30.1142 21.8183C30.3059 22.7289 30.9732 23.34 31.3329 23.6418L33.9034 20.577ZM34.0606 21.2005C34.0327 20.9305 34.0244 20.7619 34.0244 20.6719H30.0244C30.0244 20.9568 30.0473 21.2778 30.0819 21.612L34.0606 21.2005ZM34.0213 20.7828C34.0299 20.6283 34.0484 20.3831 34.0791 20.0352L30.0946 19.6836C30.0628 20.044 30.0397 20.3405 30.0275 20.5609L34.0213 20.7828ZM34.0791 20.0352C34.1103 19.6817 34.1338 19.3528 34.1338 19.1094H30.1338C30.1338 19.1577 30.1259 19.3287 30.0946 19.6836L34.0791 20.0352ZM34.1329 19.166C34.2042 16.6509 34.2096 14.8618 34.1017 14.0253L30.1346 14.5372C30.1933 14.9923 30.2091 16.422 30.1346 19.0527L34.1329 19.166ZM31.7259 12.3201C30.56 12.5533 29.4555 12.4761 28.3732 12.0969L27.0506 15.8719C28.8224 16.4927 30.6554 16.6134 32.5104 16.2424L31.7259 12.3201Z" fill="#FE7E00" mask="url(#path-1-outside-1_2098_18601)"/>
</svg>
